<?xml version="1.0" encoding="utf-8"?>
<!-- Generator: Adobe Illustrator 24.3.0, SVG Export Plug-In . SVG Version: 6.00 Build 0)  -->
<svg version="1.1" id="Слой_1" xmlns="http://www.w3.org/2000/svg" xmlns:xlink="http://www.w3.org/1999/xlink" x="0px" y="0px"
	 viewBox="0 0 74.5 41.2" style="enable-background:new 0 0 74.5 41.2;" xml:space="preserve">
<style type="text/css">
	.st0{fill:#17E200;}
	.st1{fill:#7345FF;}
	.st2{fill:#FF0703;}
	.st3{fill:#00D5FF;}
	.st4{fill:#85E0FF;}
	.st5{fill:#E2FAFF;}
	.st6{fill:#B57DFF;}
	.st7{fill:#E8BAFF;}
	.st8{fill:#FF751F;}
	.st9{fill:#FFEB36;}
	.st10{fill:#FFEC4A;}
	.st11{fill:#FFFFFF;}
	.st12{fill:#AAFF5C;}
	.st13{fill:#E4FFA3;}
</style>
<g>
	<g>
		<g>
			<path class="st0" d="M63.8,41.2c-0.1,0-0.2,0-0.3,0c-0.4-0.1-0.7-0.6-0.5-1l0.5-1.6c0.1-0.4,0.6-0.7,1-0.5c0.4,0.1,0.7,0.6,0.5,1
				l-0.5,1.6C64.5,41,64.2,41.2,63.8,41.2z M68.5,38.6c-0.1,0-0.2,0-0.2,0L66.7,38c-0.4-0.1-0.7-0.6-0.5-1c0.1-0.4,0.6-0.7,1-0.5
				l1.5,0.5c0.4,0.1,0.7,0.6,0.5,1C69.1,38.4,68.8,38.6,68.5,38.6z M63.1,36.8c-0.1,0-0.2,0-0.3,0l-1.6-0.5c-0.4-0.1-0.7-0.6-0.5-1
				c0.1-0.4,0.6-0.7,1-0.5l1.6,0.5c0.4,0.1,0.7,0.6,0.5,1C63.8,36.6,63.5,36.8,63.1,36.8z M65.7,35.3c-0.1,0-0.2,0-0.3,0
				c-0.4-0.1-0.7-0.6-0.5-1l0.5-1.6c0.1-0.4,0.6-0.7,1-0.5c0.4,0.1,0.7,0.6,0.5,1l-0.5,1.6C66.4,35.1,66.1,35.3,65.7,35.3z
				 M26.3,18.2H26c-1.4,0-2.5-1.1-2.5-2.5v-1.3h-1.3c-1.4,0-2.5-1.1-2.5-2.5v-0.3c0-1.4,1.1-2.5,2.5-2.5h1.3V7.8
				c0-1.4,1.1-2.5,2.5-2.5h0.3c1.4,0,2.5,1.1,2.5,2.5v1.3h1.3c1.4,0,2.5,1.1,2.5,2.5v0.3c0,1.4-1.1,2.5-2.5,2.5h-1.3v1.3
				C28.8,17.1,27.7,18.2,26.3,18.2z M22.2,10.7c-0.5,0-0.9,0.4-0.9,0.9v0.3c0,0.5,0.4,0.9,0.9,0.9h2.1c0.4,0,0.8,0.4,0.8,0.8v2.1
				c0,0.5,0.4,0.9,0.9,0.9h0.3c0.5,0,0.9-0.4,0.9-0.9v-2.1c0-0.4,0.4-0.8,0.8-0.8h2.1c0.5,0,0.9-0.4,0.9-0.9v-0.3
				c0-0.5-0.4-0.9-0.9-0.9H28c-0.4,0-0.8-0.4-0.8-0.8V7.8c0-0.5-0.4-0.9-0.9-0.9H26c-0.5,0-0.9,0.4-0.9,0.9v2.1
				c0,0.4-0.4,0.8-0.8,0.8H22.2z M50.3,10c-1.5,0-2.7-1.2-2.7-2.7s1.2-2.7,2.7-2.7c1.5,0,2.7,1.2,2.7,2.7S51.8,10,50.3,10z
				 M50.3,6.2c-0.6,0-1.1,0.5-1.1,1.1c0,0.6,0.5,1.1,1.1,1.1c0.6,0,1.1-0.5,1.1-1.1C51.4,6.7,50.9,6.2,50.3,6.2z"/>
		</g>
	</g>
	<g>
		<g>
			<path class="st1" d="M29.6,38.6c-0.2,0-0.4-0.1-0.6-0.2l-1.2-1.1c-0.3-0.3-0.3-0.8,0-1.1c0.3-0.3,0.8-0.3,1.1,0l1.1,1.1
				c0.3,0.3,0.3,0.8,0,1.1C30,38.5,29.8,38.6,29.6,38.6z M24.5,38.5c-0.2,0-0.4-0.1-0.6-0.2c-0.3-0.3-0.3-0.8,0-1.1l1.1-1.1
				c0.3-0.3,0.8-0.3,1.1,0c0.3,0.3,0.3,0.8,0,1.1l-1.1,1.1C24.9,38.5,24.7,38.5,24.5,38.5z M25.6,34.6c-0.2,0-0.4-0.1-0.6-0.2
				l-1.2-1.2c-0.3-0.3-0.3-0.8,0-1.1c0.3-0.3,0.8-0.3,1.1,0l1.2,1.2c0.3,0.3,0.3,0.8,0,1.1C26,34.6,25.8,34.6,25.6,34.6z M28.4,34.6
				c-0.2,0-0.4-0.1-0.6-0.2c-0.3-0.3-0.3-0.8,0-1.1l1.1-1.1c0.3-0.3,0.8-0.3,1.1,0c0.3,0.3,0.3,0.8,0,1.1L29,34.4
				C28.8,34.5,28.6,34.6,28.4,34.6z M59.2,32.2C59.2,32.2,59.2,32.2,59.2,32.2c-4.3,0-7.4-4.1-9.4-6.8c-0.4-0.6-0.8-1.1-1.2-1.5
				c-2.1-2.4-3.1-2.7-4.3-2.5c-1.1,0.2-3.9,0.8-6.7,0.8c-2.8,0-5.6-0.6-6.7-0.8c-1.2-0.3-2.2,0.1-4.3,2.5c-0.3,0.4-0.7,0.9-1.2,1.5
				c-2,2.7-5.1,6.8-9.4,6.8c-1.3,0-2.4-0.4-3.2-1.3c-1.9-2.1-1.4-6.1-1.1-9l0-0.4c0.3-2.5,1.5-9,3.3-13.1l0.1-0.2
				C16.2,5.7,18.5,0.4,25,0c3.6-0.2,5.9,0.3,7.9,0.8c0,0,0,0,0.1,0c0,0,0,0,0,0c0.1,0,0.3,0.1,0.4,0.1c1.4,0.3,2.6,0.5,4.1,0.5
				c0,0,0,0,0,0c1.7,0,3-0.3,4.5-0.6c0,0,0,0,0,0c2.1-0.5,4.5-1,8-0.8c6.5,0.4,8.8,5.7,9.9,8.2l0.1,0.2c1.8,4.1,3,10.5,3.3,13.1
				l0,0.4c0.3,2.9,0.7,6.9-1.1,9C61.6,31.8,60.5,32.2,59.2,32.2z M44.9,19.7c1.8,0,3.3,1.2,4.9,3.1c0.4,0.4,0.8,1,1.3,1.6
				c1.9,2.5,4.6,6.2,8.1,6.2c0,0,0,0,0,0c0.9,0,1.5-0.2,2-0.8c1.4-1.5,1-5.1,0.7-7.7l0-0.4c-0.3-2.5-1.5-8.7-3.2-12.6l-0.1-0.2
				c-1-2.4-3-6.9-8.5-7.2C47,1.5,45,1.9,43.2,2.3v4.2c0,1.1-0.9,2-2,2h-7.1c-1.1,0-2-0.9-2-2V2.3c-1.9-0.4-3.9-0.8-6.9-0.6
				c-5.5,0.3-7.5,4.8-8.5,7.2l-0.1,0.2c-1.7,3.9-2.9,10.2-3.2,12.6l0,0.4c-0.3,2.6-0.7,6.2,0.7,7.7c0.5,0.5,1.1,0.8,2,0.8
				c0,0,0,0,0,0c3.5,0,6.3-3.7,8.1-6.2c0.5-0.6,0.9-1.2,1.3-1.6c1.9-2.2,3.6-3.5,5.9-3c1,0.2,3.7,0.8,6.3,0.8c2.6,0,5.3-0.5,6.3-0.8
				C44.3,19.7,44.6,19.7,44.9,19.7z M33.7,2.6v3.8c0,0.2,0.2,0.4,0.4,0.4h7.1c0.2,0,0.4-0.2,0.4-0.4V2.6c-1.3,0.3-2.5,0.5-3.9,0.5
				C36.2,3.1,35,2.9,33.7,2.6z"/>
		</g>
	</g>
	<g>
		<g>
			<path class="st2" d="M43.9,33.8c-2.1,0-3.7-1.7-3.7-3.7c0-2.1,1.7-3.7,3.7-3.7s3.7,1.7,3.7,3.7C47.7,32.1,46,33.8,43.9,33.8z
				 M43.9,27.9c-1.2,0-2.1,1-2.1,2.1c0,1.2,1,2.1,2.1,2.1c1.2,0,2.1-1,2.1-2.1C46.1,28.9,45.1,27.9,43.9,27.9z M5.7,26.1
				c-0.3,0-0.6-0.1-0.7-0.4l-0.8-1.3C4,24,4.2,23.5,4.6,23.2c0.4-0.2,0.9-0.1,1.1,0.3l0.8,1.3c0.2,0.4,0.1,0.9-0.3,1.1
				C6,26,5.8,26.1,5.7,26.1z M0.8,24.8c-0.3,0-0.6-0.1-0.7-0.4C-0.1,24,0,23.5,0.4,23.3l1.4-0.8c0.4-0.2,0.9-0.1,1.1,0.3
				c0.2,0.4,0.1,0.9-0.3,1.1l-1.4,0.8C1.1,24.8,0.9,24.8,0.8,24.8z M5.7,22c-0.3,0-0.6-0.1-0.7-0.4c-0.2-0.4-0.1-0.9,0.3-1.1
				l1.4-0.8c0.4-0.2,0.9-0.1,1.1,0.3c0.2,0.4,0.1,0.9-0.3,1.1l-1.4,0.8C6,22,5.8,22,5.7,22z M3,21.3c-0.3,0-0.6-0.1-0.7-0.4
				l-0.8-1.3c-0.2-0.4-0.1-0.9,0.3-1.1c0.4-0.2,0.9-0.1,1.1,0.3l0.8,1.3c0.2,0.4,0.1,0.9-0.3,1.1C3.2,21.3,3.1,21.3,3,21.3z
				 M50.3,18.9c-1.5,0-2.7-1.2-2.7-2.7c0-1.5,1.2-2.7,2.7-2.7c1.5,0,2.7,1.2,2.7,2.7C53,17.7,51.8,18.9,50.3,18.9z M50.3,15.1
				c-0.6,0-1.1,0.5-1.1,1.1c0,0.6,0.5,1.1,1.1,1.1c0.6,0,1.1-0.5,1.1-1.1C51.4,15.6,50.9,15.1,50.3,15.1z"/>
		</g>
	</g>
	<g>
		<g>
			<path class="st3" d="M45.8,14.4c-1.5,0-2.7-1.2-2.7-2.7c0-1.5,1.2-2.7,2.7-2.7c1.5,0,2.7,1.2,2.7,2.7
				C48.5,13.2,47.3,14.4,45.8,14.4z M45.8,10.7c-0.6,0-1.1,0.5-1.1,1.1s0.5,1.1,1.1,1.1c0.6,0,1.1-0.5,1.1-1.1S46.4,10.7,45.8,10.7z
				 M68.9,8.6c-0.1,0-0.2,0-0.3-0.1c-0.4-0.2-0.6-0.7-0.4-1.1l0.6-1.4c0.2-0.4,0.7-0.6,1.1-0.4c0.4,0.2,0.6,0.7,0.4,1.1l-0.6,1.4
				C69.5,8.5,69.3,8.6,68.9,8.6z M7.1,7.6c-1.6,0-3-1.3-3-3c0-1.6,1.3-3,3-3c1.6,0,3,1.3,3,3C10.1,6.3,8.7,7.6,7.1,7.6z M7.1,3.3
				c-0.7,0-1.3,0.6-1.3,1.3S6.4,6,7.1,6c0.7,0,1.3-0.6,1.3-1.3S7.8,3.3,7.1,3.3z M73.7,7c-0.1,0-0.2,0-0.3-0.1l-1.5-0.7
				c-0.4-0.2-0.6-0.7-0.4-1.1c0.2-0.4,0.7-0.6,1.1-0.4l1.5,0.7c0.4,0.2,0.6,0.7,0.4,1.1C74.3,6.8,74,7,73.7,7z M68.6,4.6
				c-0.1,0-0.2,0-0.3-0.1l-1.5-0.7c-0.4-0.2-0.6-0.7-0.4-1.1c0.2-0.4,0.7-0.6,1.1-0.4L69,3.1c0.4,0.2,0.6,0.7,0.4,1.1
				C69.2,4.4,68.9,4.6,68.6,4.6z M71.3,3.6c-0.1,0-0.2,0-0.3-0.1c-0.4-0.2-0.6-0.7-0.4-1.1l0.6-1.4c0.2-0.4,0.7-0.6,1.1-0.4
				c0.4,0.2,0.6,0.7,0.4,1.1L72,3.2C71.9,3.5,71.6,3.6,71.3,3.6z"/>
		</g>
	</g>
	<g>
		<path class="st4" d="M45.8,14.1c-1.3,0-2.4-1.1-2.4-2.4s1.1-2.4,2.4-2.4c1.3,0,2.4,1.1,2.4,2.4S47.2,14.1,45.8,14.1z M45.8,10.3
			c-0.8,0-1.4,0.6-1.4,1.4s0.6,1.4,1.4,1.4c0.8,0,1.4-0.6,1.4-1.4S46.6,10.3,45.8,10.3z"/>
	</g>
	<g>
		<path class="st4" d="M68.9,8.3c-0.1,0-0.1,0-0.2,0c-0.2-0.1-0.3-0.4-0.2-0.6l0.6-1.4C69.3,6,69.6,5.9,69.8,6
			C70,6.1,70.1,6.4,70,6.7L69.4,8C69.3,8.2,69.1,8.3,68.9,8.3z"/>
	</g>
	<g>
		<path class="st4" d="M71.3,3.3c-0.1,0-0.1,0-0.2,0c-0.2-0.1-0.4-0.4-0.2-0.6l0.6-1.4C71.6,1,71.9,0.9,72.1,1
			c0.2,0.1,0.4,0.4,0.2,0.6L71.7,3C71.6,3.2,71.5,3.3,71.3,3.3z"/>
	</g>
	<g>
		<path class="st4" d="M68.6,4.3c-0.1,0-0.1,0-0.2,0l-1.5-0.7c-0.2-0.1-0.4-0.4-0.2-0.6c0.1-0.2,0.4-0.4,0.6-0.2l1.5,0.7
			c0.2,0.1,0.3,0.4,0.2,0.6C69,4.2,68.8,4.3,68.6,4.3z"/>
	</g>
	<g>
		<path class="st4" d="M73.7,6.7c-0.1,0-0.1,0-0.2,0L72,5.9c-0.2-0.1-0.4-0.4-0.2-0.6C71.9,5,72.2,4.9,72.4,5l1.5,0.7
			c0.2,0.1,0.4,0.4,0.2,0.6C74.1,6.5,73.9,6.7,73.7,6.7z"/>
	</g>
	<g>
		<path class="st4" d="M7.1,7.3c-1.5,0-2.6-1.2-2.6-2.6C4.5,3.2,5.6,2,7.1,2c1.5,0,2.6,1.2,2.6,2.6C9.7,6.1,8.6,7.3,7.1,7.3z M7.1,3
			C6.2,3,5.4,3.7,5.4,4.6s0.7,1.7,1.7,1.7c0.9,0,1.7-0.7,1.7-1.7S8,3,7.1,3z"/>
	</g>
	<g>
		<path class="st5" d="M45.8,13.8c-1.1,0-2.1-0.9-2.1-2.1s0.9-2.1,2.1-2.1c1.1,0,2.1,0.9,2.1,2.1S47,13.8,45.8,13.8z M45.8,10
			c-1,0-1.7,0.8-1.7,1.7s0.8,1.7,1.7,1.7c1,0,1.7-0.8,1.7-1.7S46.8,10,45.8,10z"/>
	</g>
	<g>
		<path class="st5" d="M68.9,8C68.9,8,68.9,8,68.9,8c-0.1-0.1-0.2-0.1-0.1-0.2l0.6-1.4c0-0.1,0.1-0.1,0.2-0.1c0.1,0,0.1,0.1,0.1,0.2
			l-0.6,1.4C69.1,8,69,8,68.9,8z"/>
	</g>
	<g>
		<path class="st5" d="M71.3,3C71.2,3,71.2,3,71.3,3c-0.1-0.1-0.2-0.1-0.1-0.2l0.6-1.4c0-0.1,0.1-0.1,0.2-0.1c0.1,0,0.1,0.1,0.1,0.2
			l-0.6,1.4C71.4,3,71.3,3,71.3,3z"/>
	</g>
	<g>
		<path class="st5" d="M68.6,4C68.6,4,68.6,4,68.6,4l-1.6-0.7C67,3.2,66.9,3.1,67,3C67,3,67.1,2.9,67.2,3l1.5,0.7
			c0.1,0,0.1,0.1,0.1,0.2C68.7,3.9,68.7,4,68.6,4z"/>
	</g>
	<g>
		<path class="st5" d="M73.7,6.3C73.7,6.3,73.7,6.3,73.7,6.3l-1.5-0.7c-0.1,0-0.1-0.1-0.1-0.2c0-0.1,0.1-0.1,0.2-0.1L73.8,6
			c0.1,0,0.1,0.1,0.1,0.2C73.8,6.3,73.8,6.3,73.7,6.3z"/>
	</g>
	<g>
		<path class="st5" d="M7.1,7c-1.3,0-2.3-1-2.3-2.3c0-1.3,1-2.3,2.3-2.3c1.3,0,2.3,1,2.3,2.3C9.4,5.9,8.4,7,7.1,7z M7.1,2.6
			c-1.1,0-2,0.9-2,2c0,1.1,0.9,2,2,2c1.1,0,2-0.9,2-2C9.1,3.5,8.2,2.6,7.1,2.6z"/>
	</g>
	<g>
		<path class="st6" d="M59.2,31.9L59.2,31.9c-4.1,0-7.2-4-9.2-6.7c-0.4-0.6-0.8-1.1-1.2-1.5c-2-2.3-3.1-2.9-4.6-2.6
			c-1.1,0.2-3.8,0.8-6.6,0.8c-2.8,0-5.5-0.6-6.6-0.8c-1.5-0.3-2.6,0.3-4.6,2.6c-0.4,0.4-0.8,0.9-1.2,1.5c-2,2.7-5,6.7-9.2,6.7
			c-1.3,0-2.3-0.4-3-1.2c-1.8-2-1.3-5.9-1-8.7l0-0.4c0.3-2.5,1.5-8.9,3.3-13l0.1-0.2c1.1-2.5,3.3-7.6,9.6-8c3.5-0.2,5.7,0.3,7.8,0.8
			c1.7,0.4,3,0.7,4.7,0.7c1.7,0,3-0.3,4.6-0.6c2.2-0.5,4.4-1,7.9-0.8c6.3,0.4,8.5,5.5,9.6,8l0.1,0.2c1.8,4.1,3,10.5,3.3,13l0,0.4
			c0.3,2.9,0.7,6.8-1,8.7C61.5,31.5,60.5,31.9,59.2,31.9z M44.9,20c1.7,0,3.1,1.2,4.7,3c0.4,0.4,0.8,1,1.2,1.6
			c1.9,2.5,4.7,6.3,8.4,6.3h0c1,0,1.7-0.3,2.2-0.9c1.5-1.6,1.1-5.3,0.8-8l0-0.4c-0.3-2.5-1.5-8.7-3.2-12.7l-0.1-0.2
			c-1.1-2.5-3.1-7.1-8.8-7.4c-3.4-0.2-5.5,0.3-7.6,0.7c-1.7,0.4-3.1,0.7-4.9,0.7c-1.8,0-3.2-0.3-4.8-0.7c-2.2-0.5-4.3-1-7.7-0.8
			c-5.7,0.3-7.7,4.9-8.8,7.4l-0.1,0.2c-1.7,4-2.9,10.2-3.2,12.7l0,0.4c-0.3,2.7-0.7,6.3,0.8,8c0.5,0.6,1.3,0.9,2.2,0.9
			c3.6,0,6.5-3.8,8.4-6.3c0.5-0.6,0.9-1.2,1.2-1.6c1.8-2.1,3.4-3.4,5.6-2.9c1,0.2,3.7,0.8,6.4,0.8c2.7,0,5.3-0.5,6.4-0.8
			C44.3,20,44.6,20,44.9,20z"/>
	</g>
	<g>
		<path class="st6" d="M41.1,8.1h-7.1c-0.9,0-1.7-0.8-1.7-1.7V1.6c0-0.1,0.1-0.3,0.2-0.4c0.1-0.1,0.3-0.1,0.4-0.1
			c1.6,0.4,2.9,0.6,4.6,0.6c1.7,0,3-0.3,4.6-0.6c0.1,0,0.3,0,0.4,0.1c0.1,0.1,0.2,0.2,0.2,0.4v4.8C42.8,7.4,42.1,8.1,41.1,8.1z
			 M33.4,2.2v4.2c0,0.4,0.3,0.7,0.7,0.7h7.1c0.4,0,0.7-0.3,0.7-0.7V2.2c-1.4,0.3-2.7,0.5-4.2,0.5C36,2.8,34.8,2.6,33.4,2.2z"/>
	</g>
	<g>
		<path class="st6" d="M24.5,38.2c-0.1,0-0.2,0-0.3-0.1c-0.2-0.2-0.2-0.5,0-0.7l1.1-1.1c0.2-0.2,0.5-0.2,0.7,0
			c0.2,0.2,0.2,0.5,0,0.7l-1.1,1.1C24.8,38.2,24.6,38.2,24.5,38.2z"/>
	</g>
	<g>
		<path class="st6" d="M28.4,34.3c-0.1,0-0.2,0-0.3-0.1c-0.2-0.2-0.2-0.5,0-0.7l1.1-1.1c0.2-0.2,0.5-0.2,0.7,0
			c0.2,0.2,0.2,0.5,0,0.7l-1.1,1.1C28.7,34.2,28.5,34.3,28.4,34.3z"/>
	</g>
	<g>
		<path class="st6" d="M25.6,34.3c-0.1,0-0.2,0-0.3-0.1L24.1,33c-0.2-0.2-0.2-0.5,0-0.7c0.2-0.2,0.5-0.2,0.7,0l1.2,1.2
			c0.2,0.2,0.2,0.5,0,0.7C25.8,34.3,25.7,34.3,25.6,34.3z"/>
	</g>
	<g>
		<path class="st6" d="M29.6,38.3c-0.1,0-0.2,0-0.3-0.1L28.1,37c-0.2-0.2-0.2-0.5,0-0.7c0.2-0.2,0.5-0.2,0.7,0l1.1,1.1
			c0.2,0.2,0.2,0.5,0,0.7C29.8,38.2,29.7,38.3,29.6,38.3z"/>
	</g>
	<g>
		<path class="st7" d="M59.2,31.6L59.2,31.6c-4,0-6.9-4-8.9-6.6c-0.5-0.6-0.9-1.1-1.2-1.6c-1.7-2-2.9-2.8-4.2-2.8
			c-0.2,0-0.5,0-0.8,0.1c-1.1,0.2-3.8,0.8-6.5,0.8c-2.7,0-5.5-0.5-6.5-0.8c-0.3-0.1-0.5-0.1-0.8-0.1c-1.3,0-2.4,0.8-4.2,2.8
			c-0.4,0.4-0.8,0.9-1.2,1.6c-2,2.6-4.9,6.6-8.9,6.6c-1.2,0-2.1-0.4-2.7-1.1c-1.7-1.9-1.3-5.7-1-8.5l0-0.4c0.3-2.5,1.5-8.9,3.3-12.9
			l0.1-0.2c1.1-2.6,3.2-7.4,9.3-7.8c0.5,0,1,0,1.5,0c2.6,0,4.4,0.4,6.2,0.8l0.1,0c1.6,0.4,3,0.7,4.7,0.7c1.7,0,3.1-0.3,4.7-0.7
			l0.1,0c1.8-0.4,3.6-0.8,6.2-0.8c0.5,0,1,0,1.5,0c6.1,0.4,8.2,5.2,9.3,7.8l0.1,0.2c1.8,4,3,10.4,3.3,12.9l0,0.4
			c0.3,2.8,0.7,6.6-1,8.5C61.3,31.2,60.4,31.6,59.2,31.6z M44.9,20.3c1.4,0,2.6,0.8,4.4,2.9c0.4,0.4,0.8,1,1.2,1.6
			c1.9,2.6,4.8,6.5,8.6,6.5h0c1.1,0,1.9-0.3,2.5-1c1.6-1.7,1.2-5.5,0.9-8.2l0-0.4c-0.3-2.5-1.5-8.8-3.2-12.8l-0.1-0.2
			C58.1,6.1,56,1.4,50.1,1c-0.5,0-1,0-1.5,0c-2.6,0-4.4,0.4-6.1,0.8l-0.1,0c-1.6,0.4-3,0.7-4.8,0.7c-1.8,0-3.1-0.3-4.8-0.7l-0.1,0
			C31,1.4,29.2,1,26.6,1c-0.5,0-1,0-1.5,0c-5.9,0.4-8,5.1-9.1,7.6L16,8.8c-1.8,4-3,10.3-3.2,12.8l0,0.4c-0.3,2.7-0.7,6.5,0.9,8.2
			c0.6,0.7,1.4,1,2.5,1c3.8,0,6.7-3.9,8.7-6.5c0.5-0.6,0.9-1.2,1.2-1.6c1.8-2.1,3-2.9,4.4-2.9c0.3,0,0.5,0,0.8,0.1
			c1,0.2,3.7,0.8,6.4,0.8c2.7,0,5.4-0.5,6.4-0.8C44.3,20.4,44.6,20.3,44.9,20.3z"/>
	</g>
	<g>
		<path class="st7" d="M41.1,7.8h-7.1c-0.8,0-1.4-0.6-1.4-1.4V1.6c0,0,0-0.1,0.1-0.1c0,0,0.1,0,0.1,0c1.6,0.4,3,0.7,4.7,0.7
			c1.7,0,3.1-0.3,4.7-0.7c0,0,0.1,0,0.1,0c0,0,0.1,0.1,0.1,0.1v4.8C42.5,7.2,41.9,7.8,41.1,7.8z M33.1,1.8v4.6c0,0.6,0.5,1,1,1h7.1
			c0.6,0,1-0.5,1-1V1.8c-1.5,0.4-2.9,0.6-4.6,0.6C35.9,2.5,34.6,2.2,33.1,1.8z"/>
	</g>
	<g>
		<path class="st7" d="M24.5,37.9c0,0-0.1,0-0.1,0c-0.1-0.1-0.1-0.2,0-0.2l1.1-1.1c0.1-0.1,0.2-0.1,0.2,0c0.1,0.1,0.1,0.2,0,0.2
			l-1.1,1.1C24.6,37.9,24.6,37.9,24.5,37.9z"/>
	</g>
	<g>
		<path class="st7" d="M28.4,34c0,0-0.1,0-0.1,0c-0.1-0.1-0.1-0.2,0-0.2l1.1-1.1c0.1-0.1,0.2-0.1,0.2,0c0.1,0.1,0.1,0.2,0,0.2
			l-1.1,1.1C28.5,34,28.5,34,28.4,34z"/>
	</g>
	<g>
		<path class="st7" d="M25.6,34c0,0-0.1,0-0.1,0l-1.2-1.2c-0.1-0.1-0.1-0.2,0-0.2c0.1-0.1,0.2-0.1,0.2,0l1.2,1.2
			c0.1,0.1,0.1,0.2,0,0.2C25.7,34,25.6,34,25.6,34z"/>
	</g>
	<g>
		<path class="st7" d="M29.6,37.9c0,0-0.1,0-0.1,0l-1.1-1.1c-0.1-0.1-0.1-0.2,0-0.2c0.1-0.1,0.2-0.1,0.2,0l1.1,1.1
			c0.1,0.1,0.1,0.2,0,0.2C29.7,37.9,29.6,37.9,29.6,37.9z"/>
	</g>
	<g>
		<path class="st8" d="M50.3,18.5c-1.3,0-2.4-1.1-2.4-2.4c0-1.3,1.1-2.4,2.4-2.4c1.3,0,2.4,1.1,2.4,2.4
			C52.7,17.5,51.6,18.5,50.3,18.5z M50.3,14.8c-0.8,0-1.4,0.6-1.4,1.4c0,0.8,0.6,1.4,1.4,1.4c0.8,0,1.4-0.6,1.4-1.4
			C51.7,15.4,51,14.8,50.3,14.8z"/>
	</g>
	<g>
		<path class="st8" d="M5.7,25.7c-0.2,0-0.3-0.1-0.4-0.2l-0.8-1.3c-0.1-0.2-0.1-0.5,0.2-0.7c0.2-0.1,0.5-0.1,0.7,0.2L6.1,25
			c0.1,0.2,0.1,0.5-0.2,0.7C5.9,25.7,5.8,25.7,5.7,25.7z"/>
	</g>
	<g>
		<path class="st8" d="M3,21c-0.2,0-0.3-0.1-0.4-0.2l-0.8-1.3c-0.1-0.2-0.1-0.5,0.2-0.7c0.2-0.1,0.5-0.1,0.7,0.2l0.8,1.3
			c0.1,0.2,0.1,0.5-0.2,0.7C3.1,20.9,3.1,21,3,21z"/>
	</g>
	<g>
		<path class="st8" d="M0.8,24.5c-0.2,0-0.3-0.1-0.4-0.2c-0.1-0.2-0.1-0.5,0.2-0.7L2,22.8c0.2-0.1,0.5-0.1,0.7,0.2
			c0.1,0.2,0.1,0.5-0.2,0.7l-1.4,0.8C1,24.5,0.9,24.5,0.8,24.5z"/>
	</g>
	<g>
		<path class="st8" d="M5.7,21.7c-0.2,0-0.3-0.1-0.4-0.2c-0.1-0.2-0.1-0.5,0.2-0.7L6.9,20c0.2-0.1,0.5-0.1,0.7,0.2
			c0.1,0.2,0.1,0.5-0.2,0.7l-1.4,0.8C5.9,21.7,5.8,21.7,5.7,21.7z"/>
	</g>
	<g>
		<path class="st8" d="M43.9,33.5c-1.9,0-3.4-1.5-3.4-3.4c0-1.9,1.5-3.4,3.4-3.4c1.9,0,3.4,1.5,3.4,3.4
			C47.4,31.9,45.8,33.5,43.9,33.5z M43.9,27.6c-1.3,0-2.4,1.1-2.4,2.4c0,1.3,1.1,2.4,2.4,2.4c1.3,0,2.4-1.1,2.4-2.4
			C46.4,28.7,45.3,27.6,43.9,27.6z"/>
	</g>
	<g>
		<path class="st9" d="M50.3,18.2c-1.1,0-2.1-0.9-2.1-2.1c0-1.1,0.9-2.1,2.1-2.1s2.1,0.9,2.1,2.1C52.3,17.3,51.4,18.2,50.3,18.2z
			 M50.3,14.4c-1,0-1.7,0.8-1.7,1.7c0,1,0.8,1.7,1.7,1.7c1,0,1.7-0.8,1.7-1.7C52,15.2,51.2,14.4,50.3,14.4z"/>
	</g>
	<g>
		<path class="st9" d="M5.7,25.4c-0.1,0-0.1,0-0.1-0.1L4.8,24c0-0.1,0-0.2,0.1-0.2c0.1,0,0.2,0,0.2,0.1l0.8,1.3
			C5.9,25.3,5.9,25.4,5.7,25.4C5.8,25.4,5.7,25.4,5.7,25.4z"/>
	</g>
	<g>
		<path class="st9" d="M3,20.6c-0.1,0-0.1,0-0.1-0.1l-0.8-1.3c0-0.1,0-0.2,0.1-0.2c0.1,0,0.2,0,0.2,0.1l0.8,1.3
			C3.2,20.5,3.1,20.6,3,20.6C3,20.6,3,20.6,3,20.6z"/>
	</g>
	<g>
		<path class="st9" d="M0.8,24.2c-0.1,0-0.1,0-0.1-0.1c0-0.1,0-0.2,0.1-0.2l1.4-0.8c0.1,0,0.2,0,0.2,0.1c0,0.1,0,0.2-0.1,0.2
			L0.8,24.2C0.9,24.2,0.8,24.2,0.8,24.2z"/>
	</g>
	<g>
		<path class="st9" d="M5.7,21.4c-0.1,0-0.1,0-0.1-0.1c0-0.1,0-0.2,0.1-0.2L7,20.3c0.1,0,0.2,0,0.2,0.1c0,0.1,0,0.2-0.1,0.2
			L5.7,21.4C5.8,21.4,5.7,21.4,5.7,21.4z"/>
	</g>
	<g>
		<path class="st9" d="M43.9,33.2c-1.7,0-3.1-1.4-3.1-3.1c0-1.7,1.4-3.1,3.1-3.1c1.7,0,3.1,1.4,3.1,3.1C47,31.8,45.6,33.2,43.9,33.2
			z M43.9,27.3c-1.5,0-2.8,1.2-2.8,2.8c0,1.5,1.2,2.8,2.8,2.8c1.5,0,2.8-1.2,2.8-2.8C46.7,28.5,45.5,27.3,43.9,27.3z"/>
	</g>
	<g>
		<path class="st10" d="M54.7,14.1c-1.3,0-2.4-1.1-2.4-2.4s1.1-2.4,2.4-2.4c1.3,0,2.4,1.1,2.4,2.4S56,14.1,54.7,14.1z M54.7,10.3
			c-0.8,0-1.4,0.6-1.4,1.4s0.6,1.4,1.4,1.4c0.8,0,1.4-0.6,1.4-1.4S55.5,10.3,54.7,10.3z"/>
	</g>
	<g>
		<path class="st10" d="M70,19.2c-1.7,0-3-1.4-3-3c0-1.7,1.4-3,3-3c1.7,0,3,1.4,3,3C73,17.8,71.6,19.2,70,19.2z M70,14.1
			c-1.1,0-2,0.9-2,2c0,1.1,0.9,2,2,2c1.1,0,2-0.9,2-2C72,15,71.1,14.1,70,14.1z"/>
	</g>
	<g>
		<path class="st11" d="M54.7,13.8c-1.1,0-2.1-0.9-2.1-2.1s0.9-2.1,2.1-2.1s2.1,0.9,2.1,2.1S55.8,13.8,54.7,13.8z M54.7,10
			c-1,0-1.7,0.8-1.7,1.7s0.8,1.7,1.7,1.7c1,0,1.7-0.8,1.7-1.7S55.7,10,54.7,10z"/>
	</g>
	<g>
		<path class="st11" d="M70,18.9c-1.5,0-2.7-1.2-2.7-2.7c0-1.5,1.2-2.7,2.7-2.7c1.5,0,2.7,1.2,2.7,2.7C72.6,17.7,71.4,18.9,70,18.9z
			 M70,13.8c-1.3,0-2.4,1.1-2.4,2.4c0,1.3,1.1,2.4,2.4,2.4c1.3,0,2.4-1.1,2.4-2.4C72.3,14.9,71.3,13.8,70,13.8z"/>
	</g>
	<g>
		<path class="st12" d="M26.3,17.9H26c-1.2,0-2.2-1-2.2-2.2v-1.6h-1.6c-1.2,0-2.2-1-2.2-2.2v-0.3c0-1.2,1-2.2,2.2-2.2h1.6V7.8
			c0-1.2,1-2.2,2.2-2.2h0.3c1.2,0,2.2,1,2.2,2.2v1.6h1.6c1.2,0,2.2,1,2.2,2.2v0.3c0,1.2-1,2.2-2.2,2.2h-1.6v1.6
			C28.5,16.9,27.5,17.9,26.3,17.9z M22.2,10.4c-0.7,0-1.2,0.5-1.2,1.2v0.3c0,0.7,0.5,1.2,1.2,1.2h2.1c0.3,0,0.5,0.2,0.5,0.5v2.1
			c0,0.7,0.5,1.2,1.2,1.2h0.3c0.7,0,1.2-0.5,1.2-1.2v-2.1c0-0.3,0.2-0.5,0.5-0.5h2.1c0.7,0,1.2-0.5,1.2-1.2v-0.3
			c0-0.7-0.5-1.2-1.2-1.2H28c-0.3,0-0.5-0.2-0.5-0.5V7.8c0-0.7-0.5-1.2-1.2-1.2H26c-0.7,0-1.2,0.5-1.2,1.2v2.1
			c0,0.3-0.2,0.5-0.5,0.5H22.2z"/>
	</g>
	<g>
		<path class="st12" d="M50.3,9.7c-1.3,0-2.4-1.1-2.4-2.4c0-1.3,1.1-2.4,2.4-2.4c1.3,0,2.4,1.1,2.4,2.4C52.7,8.6,51.6,9.7,50.3,9.7z
			 M50.3,5.9c-0.8,0-1.4,0.6-1.4,1.4c0,0.8,0.6,1.4,1.4,1.4c0.8,0,1.4-0.6,1.4-1.4C51.7,6.5,51,5.9,50.3,5.9z"/>
	</g>
	<g>
		<path class="st12" d="M63.8,40.8c0,0-0.1,0-0.2,0c-0.3-0.1-0.4-0.4-0.3-0.6l0.5-1.6c0.1-0.3,0.4-0.4,0.6-0.3
			c0.3,0.1,0.4,0.4,0.3,0.6l-0.5,1.6C64.2,40.7,64,40.8,63.8,40.8z"/>
	</g>
	<g>
		<path class="st12" d="M65.7,35c0,0-0.1,0-0.2,0c-0.3-0.1-0.4-0.4-0.3-0.6l0.5-1.6c0.1-0.3,0.4-0.4,0.6-0.3
			c0.3,0.1,0.4,0.4,0.3,0.6l-0.5,1.6C66.1,34.9,65.9,35,65.7,35z"/>
	</g>
	<g>
		<path class="st12" d="M63.1,36.5c0,0-0.1,0-0.1,0L61.4,36c-0.3-0.1-0.4-0.4-0.3-0.6c0.1-0.3,0.4-0.4,0.6-0.3l1.6,0.5
			c0.3,0.1,0.4,0.4,0.3,0.6C63.5,36.4,63.3,36.5,63.1,36.5z"/>
	</g>
	<g>
		<path class="st12" d="M68.5,38.2c0,0-0.1,0-0.2,0l-1.5-0.5c-0.3-0.1-0.4-0.4-0.3-0.6c0.1-0.3,0.4-0.4,0.6-0.3l1.5,0.5
			c0.3,0.1,0.4,0.4,0.3,0.6C68.9,38.1,68.7,38.2,68.5,38.2z"/>
	</g>
	<g>
		<path class="st13" d="M26.3,17.6H26c-1,0-1.9-0.8-1.9-1.9v-2h-2c-1,0-1.9-0.8-1.9-1.9v-0.3c0-1,0.8-1.9,1.9-1.9h2v-2
			c0-1,0.8-1.9,1.9-1.9h0.3c1,0,1.9,0.8,1.9,1.9v2h2c1,0,1.9,0.8,1.9,1.9v0.3c0,1-0.8,1.9-1.9,1.9h-2v2
			C28.2,16.7,27.3,17.6,26.3,17.6z M22.2,10.1c-0.9,0-1.5,0.7-1.5,1.5v0.3c0,0.9,0.7,1.5,1.5,1.5h2.1c0.1,0,0.2,0.1,0.2,0.2v2.1
			c0,0.8,0.7,1.5,1.5,1.5h0.3c0.8,0,1.5-0.7,1.5-1.5v-2.1c0-0.1,0.1-0.2,0.2-0.2h2.1c0.9,0,1.5-0.7,1.5-1.5v-0.3
			c0-0.8-0.7-1.5-1.5-1.5H28c-0.1,0-0.2-0.1-0.2-0.2V7.8c0-0.8-0.7-1.5-1.5-1.5H26c-0.8,0-1.5,0.7-1.5,1.5v2.1
			c0,0.1-0.1,0.2-0.2,0.2H22.2z"/>
	</g>
	<g>
		<path class="st13" d="M50.3,9.4c-1.1,0-2.1-0.9-2.1-2.1c0-1.1,0.9-2.1,2.1-2.1s2.1,0.9,2.1,2.1C52.3,8.4,51.4,9.4,50.3,9.4z
			 M50.3,5.6c-1,0-1.7,0.8-1.7,1.7c0,1,0.8,1.7,1.7,1.7c1,0,1.7-0.8,1.7-1.7C52,6.4,51.2,5.6,50.3,5.6z"/>
	</g>
	<g>
		<path class="st13" d="M63.8,40.5C63.8,40.5,63.8,40.5,63.8,40.5c-0.1,0-0.2-0.1-0.2-0.2l0.5-1.6c0-0.1,0.1-0.1,0.2-0.1
			c0.1,0,0.1,0.1,0.1,0.2L64,40.4C63.9,40.5,63.9,40.5,63.8,40.5z"/>
	</g>
	<g>
		<path class="st13" d="M65.7,34.7C65.7,34.7,65.7,34.7,65.7,34.7c-0.1,0-0.2-0.1-0.2-0.2l0.5-1.6c0-0.1,0.1-0.1,0.2-0.1
			c0.1,0,0.1,0.1,0.1,0.2l-0.5,1.6C65.8,34.6,65.8,34.7,65.7,34.7z"/>
	</g>
	<g>
		<path class="st13" d="M63.1,36.2C63.1,36.2,63.1,36.2,63.1,36.2l-1.6-0.5c-0.1,0-0.1-0.1-0.1-0.2c0-0.1,0.1-0.1,0.2-0.1l1.6,0.5
			c0.1,0,0.1,0.1,0.1,0.2C63.3,36.1,63.2,36.2,63.1,36.2z"/>
	</g>
	<g>
		<path class="st13" d="M68.5,37.9C68.5,37.9,68.4,37.9,68.5,37.9l-1.6-0.5c-0.1,0-0.1-0.1-0.1-0.2c0-0.1,0.1-0.1,0.2-0.1l1.5,0.5
			c0.1,0,0.1,0.1,0.1,0.2C68.6,37.9,68.5,37.9,68.5,37.9z"/>
	</g>
</g>
</svg>
