<?xml version="1.0" encoding="utf-8"?>
<!-- Generator: Adobe Illustrator 26.3.1, SVG Export Plug-In . SVG Version: 6.00 Build 0)  -->
<svg version="1.1" id="圖層_1" xmlns="http://www.w3.org/2000/svg" xmlns:xlink="http://www.w3.org/1999/xlink" x="0px" y="0px"
	 viewBox="0 0 100 100" style="enable-background:new 0 0 100 100;" xml:space="preserve">
<style type="text/css">
	.st0{fill:#D1D1D1;}
	.st1{fill:#FFFFFF;}
	.st2{fill:none;stroke:#FFFFFF;stroke-width:6.2365;stroke-linecap:round;stroke-miterlimit:10;}
	.st3{fill:#F9C41C;}
	.st4{fill:#FFD255;}
</style>
<g>
	<g>
		<path class="st3" d="M73.93,78.63c7.48-3.87,13.9-9,18.63-16.03c4.88-7.27,6.21-15.25,4.38-23.77
			c-1.8-8.38-6.44-14.83-13.61-19.43c-3.85-2.47-8.1-3.33-12.63-2.3c-3.05,0.69-5.79,2.09-8.3,3.92c-4.12,3-7.75,6.51-10.74,10.67
			c-2.54,3.53-6.1,5.27-10.4,5.64c-1.73,0.15-3.5,0.23-5.17,0.65c-3.11,0.77-5.67,2.58-7.86,4.89c-3.76,3.96-5.95,8.63-5.97,14.17
			c-0.01,4.03,1.28,7.71,3.35,11.12c2.72,4.49,6.27,8.18,10.82,10.85c4.14,2.43,8.65,3.7,13.4,4.14c6.89,0.64,13.6-0.25,20.09-2.66
			c0.53-0.2,1.06-0.39,1.58-0.63C72.31,79.45,73.12,79.04,73.93,78.63z"/>
	</g>
	<path class="st4" d="M18.38,48.88c0-9.04,7.07-16.1,16.1-16.1c-9.04,0-16.1-7.07-16.1-16.1c0,9.04-7.07,16.1-16.1,16.1
		C11.32,32.77,18.38,39.84,18.38,48.88z"/>
	<path class="st2" d="M59.74,35.92c0,0-3.38,8.4-15.67,9.95"/>
</g>
</svg>
