<?xml version="1.0" encoding="utf-8"?>
<!-- Generator: Adobe Illustrator 24.3.0, SVG Export Plug-In . SVG Version: 6.00 Build 0)  -->
<svg version="1.0" id="分離模式" xmlns="http://www.w3.org/2000/svg" xmlns:xlink="http://www.w3.org/1999/xlink" x="0px"
	 y="0px" viewBox="0 0 100 100" style="enable-background:new 0 0 100 100;" xml:space="preserve">
<style type="text/css">
	.st0{fill:#FFFFFF;}
</style>
<path class="st0" d="M31.1,7.5c6,1,10.4,2.4,15,5.1c6.9,3.9,13.6,4,21.1,1.2c13.6-4.9,26.8,2.7,30.9,16.5c1.9,6.3,0.6,16.3,0.4,17.1
	c-4.6,17.6-16.1,28-33.8,30.9c-6.9,1.1-11.7,3.6-14.8,9.8c-1.1,2.2-2.7,5.4-5.6,4.6c-2.6-0.7-2.3-7-2.3-7.4c0-3.3-1.8-5.3-4.6-6.5
	c-1.7-0.7-3.6-1-5.5-1.5c-17-4.6-27.6-15.2-30.4-32.9c-2.6-16.3,4.6-34,20.2-36.6C21.7,7.8,25.6,6.6,31.1,7.5z"/>
</svg>
