<?xml version="1.0" encoding="utf-8"?>
<!-- Generator: Adobe Illustrator 24.3.0, SVG Export Plug-In . SVG Version: 6.00 Build 0)  -->
<svg version="1.1" id="圖層_1" xmlns="http://www.w3.org/2000/svg" xmlns:xlink="http://www.w3.org/1999/xlink" x="0px" y="0px"
	 viewBox="0 0 185.6 123.5" style="enable-background:new 0 0 185.6 123.5;" xml:space="preserve">
<style type="text/css">
	.st0{fill:#FFFFFF;}
</style>
<g>
	<path class="st0" d="M29.6,24l-0.1,22.4l7.9,0c-1.2-0.9-2.3-1.8-3-2.5c-0.3-0.3-0.5-0.6-0.8-0.9c-1.2-1.9-0.6-4.4,1.3-5.5
		c1.7-1,3.9-0.5,5,1.1c0.3,0.4,0.5,0.9,0.6,1.3c0.3,1,0.8,2.9,1.2,4.7l4.9-7.5l5,3.3l-3.9,5.9l7.3,0l0,6l-7.5,0l4,6.3l-5,3.2
		l-4.4-6.8l-4.4,6.8l-5-3.3l4.1-6.3l-7.4,0L29.4,75l44.3-25.2L29.6,24z"/>
	<path class="st0" d="M106.9,33.5l-0.7,0l-3.3,0l0-3.3l1.9,0c-0.3,0.6-0.7,1.2-1,1.7l2,0.8c0.9-1.1,1.8-2.7,2.3-4.1l0.2-0.5l-5.4,0
		l1.8-2.5l0-2l-7.5,0l0,2l4.7,0l-1.8,2.5l-4.9,0l0,2.1l1.8,0l-2,3.3l-1.5,0l0,0.8l-2.3-2.6l0-1.1l2.3,0l0-2.7l-2.3,0l0-5l-2.6,0l0,5
		l-2.8,0l0,2.7l2.6,0c-0.6,2.9-1.9,6.2-3.2,8.1c0.4,0.7,1,1.8,1.3,2.6c0.8-1.1,1.5-2.8,2.1-4.6l-0.1,8.9l2.6,0L91.3,35l1.3,1.6
		l1-1.2l0,0.5l-0.1,9.5l2.6,0l0.1-9.5l10,0.1l-0.1,9.5l2.6,0l0.1-12l-0.9,0L106.9,33.5z M100.2,33.4l-2.5,0l2-3.3l0.5,0L100.2,33.4z
		"/>
	<path class="st0" d="M119.6,42.2c0,0.4-0.2,0.6-0.7,0.5c-0.6,0-4.1,0-4.1,0l0,2.8c0,0,0.8,0,1.8,0c0.8,0,1.7,0,2.2,0
		c2.7-0.2,3.8-1.3,3.9-3.2l0-5.8l9,0.1l0-2.9l-9-0.1l0-1.6l5.1-3.8l0-3.7l-15.2-0.1l0,2.8l12,0.1l-5,3.4l0,2.8l-9-0.1l0,2.9l9,0.1
		L119.6,42.2z"/>
	<path class="st0" d="M97.6,72.3l8.7,0l0-6.2l-8.7,0L97.6,72.3z M100.2,68.1l3.5,0l0,2.3l-3.5,0L100.2,68.1z"/>
	<polygon class="st0" points="98.1,49.6 95.2,49.6 95.2,51.3 86.1,51.2 86.1,53.3 95.2,53.4 95.2,54.3 88,54.2 88,56.2 105.6,56.3 
		105.6,54.3 98.1,54.3 98.1,53.4 107.5,53.5 107.5,51.4 98.1,51.3 	"/>
	<path class="st0" d="M123.8,60.9l6.4,0l0-2.7l-6.4,0l0-2.9l6.9,0l0-2.8l-14.2-0.1l0.9-1.1l-2.6-1.7l-5.5,7.9l2.5,1.7l2.8-4l6.1,0
		l0,2.9l-7.1,0l0,6.3l-3.8,0l0,2.8l10.9,0.1l0,5.1l3,0l0-5.1l8.3,0l0-2.8l-8.3,0L123.8,60.9z M120.8,64.5l-4.2,0l0-3.7l4.2,0
		L120.8,64.5z"/>
	<polygon class="st0" points="139.6,55.2 142.4,55.2 142.4,54.3 148,54.3 148,55.2 150.8,55.2 150.8,54.3 156.1,54.3 156.1,51.8 
		150.8,51.7 150.8,49.9 148,49.9 148,51.7 142.4,51.7 142.5,49.9 139.6,49.9 139.6,51.7 134.6,51.6 134.6,54.2 139.6,54.2 	"/>
	<path class="st0" d="M156.2,62.1l0-2.4l-4.4,0l0-1.4l2.6,0l0-2.4l-18.4-0.1l0,2.4l2.5,0l0,1.4l-4.3,0l0,2.4l4.3,0l0,1.5l-2.7,0
		l0,2.4l7.9,0l0,1.3l-9.1-0.1l0,2.5l9.1,0.1l0,3l2.9,0l0-3l9.4,0.1l0-2.5l-9.4-0.1l0-1.3l8.2,0l0-2.4l-3,0l0-1.5L156.2,62.1z
		 M143.7,63.5l-2.5,0l0-1.5l2.5,0L143.7,63.5z M143.7,59.6l-2.5,0l0-1.4l2.5,0L143.7,59.6z M149.2,63.5l-2.6,0l0-1.5l2.6,0
		L149.2,63.5z M149.2,59.6l-2.6,0l0-1.4l2.6,0L149.2,59.6z"/>
	<path class="st0" d="M104.7,37.4l-6.9,0l0,6.3l6.9,0L104.7,37.4z M102.5,41.4l-2.5,0l0-1.9l2.5,0L102.5,41.4z"/>
	<path class="st0" d="M56.9,82.9l-3.6,3.5c5.9,6,13.3,10.3,21.4,12.6c4.2,1.2,8.6,1.8,13,1.8c3.7,0,7.5-0.4,11.1-1.3l-1.2-4.9
		C82.8,98,67.6,93.7,56.9,82.9"/>
	<path class="st0" d="M103.3,61.9l1.1,0l0-4.9L89,57l0,4.9l1.2,0L90,63.2l-4,0l0,2.1l3.8,0c0,0.4-0.1,0.7-0.2,1.1l-3.3,0l0,2l2.5,0
		c-0.7,0.9-3.6,2-3.6,2l1.5,2c0,0,4-2.4,4.9-4l2.3,0c-0.2,1.4-0.3,1.9-1.2,1.9c-0.3,0-1.8-0.1-1.8-0.1l0.6,2.1c0,0,1,0,1.5,0
		c3.9,0,3.7-5.8,3.7-5.8l-4.5,0c0-0.2,0.1-0.7,0.1-0.7l0.1-0.4l15,0.1l0-2.1l-4,0V61.9z M91.6,60l0-1.2l10,0.1l0,1.2L91.6,60z
		 M94.3,63.2l-1.8,0l0.1-1.3l1.6,0l5.3,0l1.7,0v1.3l-2,0L94.3,63.2z"/>
</g>
</svg>
