<?xml version="1.0" encoding="utf-8"?>
<!-- Generator: Adobe Illustrator 24.3.0, SVG Export Plug-In . SVG Version: 6.00 Build 0)  -->
<svg version="1.0" id="圖層_1" xmlns="http://www.w3.org/2000/svg" xmlns:xlink="http://www.w3.org/1999/xlink" x="0px" y="0px"
	 viewBox="0 0 480 122" style="enable-background:new 0 0 480 122;" xml:space="preserve">
<style type="text/css">
	.st0{fill:#FFFFFF;}
</style>
<g>
	<path class="st0" d="M29,14.5l-0.1,27.1h9.6c-1.5-1.1-2.8-2.2-3.6-3c-0.4-0.4-0.6-0.7-1-1.1c-1.5-2.3-0.7-5.3,1.6-6.7
		c2.1-1.2,4.7-0.6,6.1,1.3c0.4,0.5,0.6,1.1,0.7,1.6c0.4,1.2,1,3.5,1.5,5.7l5.9-9.1l6.1,4l-4.7,7.1h8.8v7.3h-9.1l4.8,7.6l-6.1,3.9
		l-5.3-8.2l-5.3,8.2l-6.1-4l5-7.6h-9l0,27.6l53.6-30.5L29,14.5z"/>
	<path class="st0" d="M62,85.8l-4.4,4.2c7.1,7.3,16.1,12.5,25.9,15.2c5.1,1.5,10.4,2.2,15.7,2.2c4.5,0,9.1-0.5,13.4-1.6l-1.5-5.9
		C93.4,104.1,75,98.9,62,85.8"/>
	<g>
		<path class="st0" d="M229.7,76.3c0,1.1-0.5,1.6-1.9,1.3c-1.6,0-10.9,0-10.9,0V85c0,0,2.1,0,4.8,0c2.1,0,4.5,0,5.8,0
			c7.2-0.5,10.1-3.5,10.4-8.5V61.1l23.9,0.3v-7.7l-23.9-0.3v-4.3l13.6-10.1v-9.8L211.1,29v7.4l31.9,0.3l-13.3,9v7.4l-23.9-0.3v7.7
			l23.9,0.3L229.7,76.3z"/>
		<path class="st0" d="M365.2,54.5h17v-7.2h-17v-7.7h18.3v-7.4l-37.7-0.3l2.4-2.9l-6.9-4.5l-14.6,21l6.6,4.5l7.4-10.6h16.2V47h-18.9
			v16.7H328v7.4l29,0.3V85h8V71.5H387V64h-22.1L365.2,54.5z M357.2,64H346v-9.8h11.2V64z"/>
		<g>
			<polygon class="st0" points="407.2,39.3 414.6,39.3 414.6,36.9 429.5,36.9 429.5,39.3 436.9,39.3 436.9,36.9 451,36.9 451,30.3 
				436.9,30 436.9,25.2 429.5,25.2 429.5,30 414.6,30 414.9,25.2 407.2,25.2 407.2,30 393.9,29.8 393.9,36.7 407.2,36.7 			"/>
			<path class="st0" d="M451.3,57.7v-6.4h-11.7v-3.7h6.9v-6.4l-48.9-0.3v6.4h6.6V51h-11.4v6.4h11.4v4h-7.2v6.4h21v3.5l-24.2-0.3v6.6
				l24.2,0.3v8h7.7v-8l25,0.3v-6.6l-25-0.3v-3.5h21.8v-6.4h-8v-4L451.3,57.7z M418,61.4h-6.6v-4h6.6V61.4z M418,51h-6.6v-3.7h6.6V51
				z M432.7,61.4h-6.9v-4h6.9V61.4z M432.7,51h-6.9v-3.7h6.9V51z"/>
		</g>
		<g>
			<path class="st0" d="M195.9,53.1h-1.9h-8.8v-8.8h5c-0.8,1.6-1.9,3.2-2.7,4.5L193,51c2.4-2.9,4.8-7.2,6.1-10.9l0.5-1.3h-14.3
				l4.8-6.6v-5.3h-19.9v5.3h12.5l-4.8,6.6h-13v5.6h4.8l-5.3,8.8h-4v2.1l-6.1-6.9v-2.9h6.1v-7.2h-6.1V25h-6.9v13.3h-7.4v7.2h6.9
				c-1.6,7.7-5,16.5-8.5,21.5c1.1,1.9,2.7,4.8,3.5,6.9c2.1-2.9,4-7.4,5.6-12.2L147,85.3h6.9l0.5-28.2l3.5,4.3l2.7-3.2v1.3l-0.3,25.2
				h6.9l0.3-25.2l26.6,0.3L193.8,85h6.9l0.3-31.9h-2.4L195.9,53.1z M178.1,52.9h-6.6l5.3-8.8h1.3V52.9z"/>
			<path class="st0" d="M190.1,63.5h-18.3v16.7h18.3V63.5z M184.2,74.1h-6.6v-5h6.6V74.1z"/>
		</g>
		<g>
			<path class="st0" d="M295.6,84.8h23.1V68.3h-23.1V84.8z M302.5,73.6h9.3v6.1h-9.3V73.6z"/>
			<polygon class="st0" points="296.9,24.4 289.2,24.4 289.2,29 265,28.7 265,34.3 289.2,34.5 289.2,36.9 270.1,36.7 270.1,42 
				316.8,42.2 316.8,36.9 296.9,36.9 296.9,34.5 321.9,34.8 321.9,29.2 296.9,29 			"/>
			<path class="st0" d="M310.7,57.1h2.9v-13h-40.9v13h3.2l-0.5,3.5h-10.6v5.6h10.1c0,1.1-0.3,1.9-0.5,2.9h-8.8v5.3h6.6
				c-1.9,2.4-9.6,5.3-9.6,5.3l4,5.3c0,0,10.6-6.4,13-10.6h6.1c-0.5,3.7-0.8,5-3.2,5c-0.8,0-4.8-0.3-4.8-0.3l1.6,5.6c0,0,2.7,0,4,0
				c10.4,0,9.8-15.4,9.8-15.4h-12c0-0.5,0.3-1.9,0.3-1.9l0.3-1.1l39.9,0.3v-5.6H311v-4H310.7z M279.6,52.1v-3.2l26.6,0.3v3.2
				L279.6,52.1z M286.8,60.6H282l0.3-3.5h4.3h14.1h4.5v3.5h-5.3H286.8z"/>
		</g>
	</g>
</g>
</svg>
