<?xml version="1.0" encoding="utf-8"?>
<!-- Generator: Adobe Illustrator 24.3.0, SVG Export Plug-In . SVG Version: 6.00 Build 0)  -->
<svg version="1.0" id="圖層_1" xmlns="http://www.w3.org/2000/svg" xmlns:xlink="http://www.w3.org/1999/xlink" x="0px" y="0px"
	 viewBox="0 0 40 40" style="enable-background:new 0 0 40 40;" xml:space="preserve">
<style type="text/css">
	.st0{fill:#FFFFFF;}
</style>
<g>
	<path class="st0" d="M20,4.4c5.1,0,5.7,0,7.7,0.1c1.9,0.1,2.9,0.4,3.5,0.7c0.9,0.3,1.5,0.8,2.2,1.4c0.7,0.7,1.1,1.3,1.4,2.2
		c0.3,0.7,0.6,1.7,0.7,3.5c0.1,2,0.1,2.6,0.1,7.7s0,5.7-0.1,7.7c-0.1,1.9-0.4,2.9-0.7,3.5c-0.3,0.9-0.8,1.5-1.4,2.2
		c-0.7,0.7-1.3,1.1-2.2,1.4c-0.7,0.3-1.7,0.6-3.5,0.7c-2,0.1-2.6,0.1-7.7,0.1s-5.7,0-7.7-0.1c-1.9-0.1-2.9-0.4-3.5-0.7
		c-0.9-0.3-1.5-0.8-2.2-1.4c-0.7-0.7-1.1-1.3-1.4-2.2c-0.3-0.7-0.6-1.7-0.7-3.5c-0.1-2-0.1-2.6-0.1-7.7s0-5.7,0.1-7.7
		c0.1-1.9,0.4-2.9,0.7-3.5c0.3-0.9,0.8-1.5,1.4-2.2c0.7-0.7,1.3-1.1,2.2-1.4c0.7-0.3,1.7-0.6,3.5-0.7C14.3,4.4,14.9,4.4,20,4.4
		 M20,1c-5.2,0-5.8,0-7.8,0.1c-2,0.1-3.4,0.4-4.6,0.9C6.3,2.5,5.2,3.1,4.2,4.2C3.1,5.2,2.5,6.3,2,7.6c-0.5,1.2-0.8,2.6-0.9,4.6
		C1,14.2,1,14.8,1,20c0,5.2,0,5.8,0.1,7.8c0.1,2,0.4,3.4,0.9,4.6c0.5,1.2,1.1,2.3,2.2,3.4c1.1,1.1,2.1,1.7,3.4,2.2
		c1.2,0.5,2.6,0.8,4.6,0.9c2,0.1,2.7,0.1,7.8,0.1s5.8,0,7.8-0.1c2-0.1,3.4-0.4,4.6-0.9c1.2-0.5,2.3-1.1,3.4-2.2
		c1.1-1.1,1.7-2.1,2.2-3.4c0.5-1.2,0.8-2.6,0.9-4.6c0.1-2,0.1-2.7,0.1-7.8s0-5.8-0.1-7.8c-0.1-2-0.4-3.4-0.9-4.6
		c-0.5-1.2-1.1-2.3-2.2-3.4c-1.1-1.1-2.1-1.7-3.4-2.2c-1.2-0.5-2.6-0.8-4.6-0.9C25.8,1,25.2,1,20,1L20,1z"/>
	<path class="st0" d="M20,10.2c-5.4,0-9.8,4.4-9.8,9.8s4.4,9.8,9.8,9.8s9.8-4.4,9.8-9.8S25.4,10.2,20,10.2z M20,26.3
		c-3.5,0-6.3-2.8-6.3-6.3c0-3.5,2.8-6.3,6.3-6.3c3.5,0,6.3,2.8,6.3,6.3C26.3,23.5,23.5,26.3,20,26.3z"/>
	<circle class="st0" cx="30.1" cy="9.9" r="2.3"/>
</g>
</svg>
