<?xml version="1.0" encoding="utf-8"?>
<!-- Generator: Adobe Illustrator 24.3.0, SVG Export Plug-In . SVG Version: 6.00 Build 0)  -->
<svg version="1.0" id="圖層_1" xmlns="http://www.w3.org/2000/svg" xmlns:xlink="http://www.w3.org/1999/xlink" x="0px" y="0px"
	 viewBox="0 0 40 40" style="enable-background:new 0 0 40 40;" xml:space="preserve">
<style type="text/css">
	.st0{fill:#FFFFFF;}
</style>
<path class="st0" d="M39,17.3c0-8.5-8.5-15.4-19-15.4C9.5,1.9,1,8.8,1,17.3c0,7.6,6.8,14,15.9,15.2c0.6,0.1,1.5,0.4,1.7,0.9
	c0.2,0.5,0.1,1.2,0.1,1.7c0,0-0.2,1.3-0.3,1.6c-0.1,0.5-0.4,1.9,1.6,1c2-0.9,10.9-6.4,14.9-11h0C37.7,23.8,39,20.7,39,17.3z
	 M13.3,21.9c0,0.2-0.2,0.4-0.4,0.4H7.6h0c-0.1,0-0.2,0-0.3-0.1c0,0,0,0,0,0c0,0,0,0,0,0C7.3,22,7.2,22,7.2,21.9v0v-8.3
	c0-0.2,0.2-0.4,0.4-0.4h1.3c0.2,0,0.4,0.2,0.4,0.4v6.6h3.6c0.2,0,0.4,0.2,0.4,0.4V21.9z M16.5,21.9c0,0.2-0.2,0.4-0.4,0.4h-1.3
	c-0.2,0-0.4-0.2-0.4-0.4v-8.3c0-0.2,0.2-0.4,0.4-0.4h1.3c0.2,0,0.4,0.2,0.4,0.4V21.9z M25.7,21.9c0,0.2-0.2,0.4-0.4,0.4H24
	c0,0-0.1,0-0.1,0c0,0,0,0,0,0c0,0,0,0,0,0c0,0,0,0,0,0c0,0,0,0,0,0c0,0,0,0,0,0c0,0,0,0,0,0c0,0,0,0,0,0c0,0,0,0,0,0
	c0,0-0.1-0.1-0.1-0.1l-3.8-5.1v4.9c0,0.2-0.2,0.4-0.4,0.4h-1.3c-0.2,0-0.4-0.2-0.4-0.4v-8.3c0-0.2,0.2-0.4,0.4-0.4h1.3c0,0,0,0,0,0
	c0,0,0,0,0,0c0,0,0,0,0,0c0,0,0,0,0,0c0,0,0,0,0,0c0,0,0,0,0,0c0,0,0,0,0,0c0,0,0,0,0,0c0,0,0,0,0,0c0,0,0,0,0,0c0,0,0,0,0,0
	c0,0,0,0,0,0c0,0,0,0,0,0c0,0,0,0,0,0c0,0,0,0,0,0c0,0,0,0,0,0c0,0,0,0,0,0c0,0,0,0,0,0c0,0,0,0,0,0l3.8,5.1v-4.9
	c0-0.2,0.2-0.4,0.4-0.4h1.3c0.2,0,0.4,0.2,0.4,0.4V21.9z M33,14.9c0,0.2-0.2,0.4-0.4,0.4h-3.6v1.4h3.6c0.2,0,0.4,0.2,0.4,0.4v1.3
	c0,0.2-0.2,0.4-0.4,0.4h-3.6v1.4h3.6c0.2,0,0.4,0.2,0.4,0.4v1.3c0,0.2-0.2,0.4-0.4,0.4h-5.3h0c-0.1,0-0.2,0-0.3-0.1c0,0,0,0,0,0
	c0,0,0,0,0,0C27,22,27,22,27,21.9v0v-8.3v0c0-0.1,0-0.2,0.1-0.3c0,0,0,0,0,0c0,0,0,0,0,0c0.1-0.1,0.2-0.1,0.3-0.1h0h5.3
	c0.2,0,0.4,0.2,0.4,0.4V14.9z"/>
</svg>
