<?xml version="1.0" encoding="utf-8"?>
<!-- Generator: Adobe Illustrator 24.3.0, SVG Export Plug-In . SVG Version: 6.00 Build 0)  -->
<svg version="1.1" id="Layer_1" xmlns="http://www.w3.org/2000/svg" xmlns:xlink="http://www.w3.org/1999/xlink" x="0px" y="0px"
	 viewBox="0 0 118.4 132.3" style="enable-background:new 0 0 118.4 132.3;" xml:space="preserve">
<style type="text/css">
	.st0{opacity:0.6;fill:#C4C6C8;}
	.st1{fill:none;}
	.st2{fill:#CFD1D2;}
	.st3{fill:#95979A;}
	.st4{fill:#A3A5A8;}
	.st5{clip-path:url(#SVGID_2_);}
	.st6{fill:#707376;}
</style>
<g>
	<path class="st0" d="M103.4,120.5c0,6.5-19.8,11.8-44.2,11.8c-24.4,0-44.2-5.3-44.2-11.8c0-6.5,19.8-11.8,44.2-11.8
		C83.6,108.6,103.4,113.9,103.4,120.5z"/>
	<g>
		<g>
			<path class="st1" d="M1,11.3c0,0,14.7,96.9,15.7,102.6c1,5.7,13.7,13,40.9,13c0.6,0,1.1,0,1.6,0c0.5,0,1.1,0,1.6,0
				c27.2,0,39.9-7.3,40.9-13c1-5.7,15.7-102.6,15.7-102.6H1z"/>
			<g>
				<path class="st2" d="M59.6,114.5c-18.3,0-33.9,1.8-39.5,4.2c4.1,3.4,9.6,4.9,14.7,6.1c2.1,0.5,4.3,1,6.4,1.4
					c5.6,0.4,11.8,0.6,18.4,0.6c2.5,0,4.8,0,7.2-0.1c2.5-0.2,5-0.3,7.5-0.5c3.4-0.3,6.7-1,10-1.9c4.9-1.3,10.3-2.7,14.3-5.9
					C92.5,116.1,77.4,114.5,59.6,114.5z"/>
				<path class="st3" d="M59.6,127.2c-6.5,0-12.7-0.2-18.4-0.6c-2.1-0.4-4.3-0.9-6.5-1.4c-4.7-1.2-10.6-2.7-14.8-6.2
					c-0.1-0.1-0.2-0.2-0.1-0.3c0-0.1,0.1-0.2,0.2-0.3c5.8-2.5,21.7-4.2,39.6-4.2c17.4,0,32.8,1.6,39.1,4c0.1,0,0.2,0.2,0.2,0.3
					c0,0.1,0,0.3-0.1,0.4c-4,3.2-9,4.6-14,5.9l-0.5,0.1c-3.6,1-6.9,1.6-10,1.9c-1.3,0.1-2.6,0.2-3.9,0.3c-1.2,0.1-2.4,0.1-3.6,0.2
					C64.4,127.2,62,127.2,59.6,127.2z M20.9,118.8c4.1,3.1,9.6,4.5,14,5.7c2.2,0.5,4.3,1,6.4,1.4c5.7,0.4,11.9,0.6,18.3,0.6
					c2.4,0,4.8,0,7.2-0.1c1.2-0.1,2.4-0.2,3.6-0.2c1.3-0.1,2.6-0.2,3.9-0.3c3.1-0.3,6.3-0.9,9.9-1.8l0.5-0.1
					c4.6-1.2,9.4-2.5,13.1-5.3c-6.5-2.2-21.6-3.7-38.1-3.7C42.4,114.9,27.1,116.4,20.9,118.8z"/>
			</g>
			<g>
				<g>
					<path class="st4" d="M117.2,10.7c-0.2,0.4-0.5,0.7-0.8,1h0.4c-1.2,8.2-14.6,96.6-15.6,102c-0.9,5-12.4,12.6-40.4,12.6
						c-0.5,0-1.1,0-1.7,0c-0.5,0-1.1,0-1.6,0c-28,0-39.5-7.5-40.4-12.6c-1-5.4-14.3-93.8-15.6-102h0.2c-0.4-0.3-0.8-0.6-1.1-1H0.4
						l0.1,0.6c0.1,1,14.7,97,15.7,102.6c0.6,3.3,4.6,6.6,10.9,9c7.6,2.9,18.1,4.4,30.4,4.4c0.5,0,1.1,0,1.6,0c0.5,0,1.1,0,1.6,0
						c12.3,0,22.9-1.5,30.4-4.4c6.4-2.4,10.4-5.7,11-9c1-5.7,15.5-101.7,15.7-102.6l0.1-0.6H117.2z"/>
				</g>
				<g>
					<path class="st1" d="M117.4,11.3c0,5.6-26,10.2-58.2,10.2C27.1,21.5,1,16.9,1,11.3C1,5.6,27.1,1,59.2,1
						C91.3,1,117.4,5.6,117.4,11.3z"/>
				</g>
			</g>
		</g>
		<g>
			<defs>
				<path id="SVGID_1_" d="M117.4,11.3c0-5.6-26-10.2-58.2-10.2C27.1,1,1,5.6,1,11.3c0,0.2,0,0.4,0.1,0.5
					c1.2,7.7,14.6,96.6,15.6,102.1c1,5.7,13.7,13,40.9,13c0.6,0,1.1,0,1.6,0c0.5,0,1.1,0,1.6,0c27.2,0,39.9-7.3,40.9-13
					c1-5.5,14.4-94.4,15.6-102.1C117.3,11.6,117.4,11.4,117.4,11.3z"/>
			</defs>
			<clipPath id="SVGID_2_">
				<use xlink:href="#SVGID_1_"  style="overflow:visible;"/>
			</clipPath>
			<g class="st5">
				<path class="st4" d="M119.3,22.7c-1.6,3.8-3.4,7.9-5.3,12.2c-1.5-3.3-2.9-6.4-4.1-9.4c3.8-9,6.8-16.7,9-22.5c0,0,0,0-0.1,0
					c-0.2-0.1-0.5-0.1-0.7-0.1c-2.1,5.6-5,13-8.7,21.7c-1.5-3.6-2.9-6.9-4.1-10c2.1-5.2,3.8-9.7,5.1-13.3c-0.3-0.1-0.5-0.1-0.8-0.2
					c-1.3,3.4-2.8,7.6-4.8,12.4c-1.6-4.1-3-7.7-4.1-10.7c0.4-1.1,0.8-2.2,1.2-3.1c-0.3,0-0.5-0.1-0.8-0.1c-0.2,0.7-0.5,1.4-0.8,2.2
					C100,0.8,99.7,0,99.4-0.7c-0.3,0-0.6-0.1-0.9-0.1c0.4,1.1,0.9,2.3,1.3,3.7c-1.1,3.1-2.5,6.7-4.1,10.7c-1.6-4.1-3-7.7-4.1-10.7
					c0.6-1.6,1.1-3.1,1.6-4.4c-0.3,0-0.5-0.1-0.8-0.1c-0.4,1-0.8,2.1-1.2,3.3c-0.5-1.3-0.9-2.5-1.3-3.6C89.6-1.9,89.3-2,89-2
					c0.5,1.4,1.1,3,1.7,4.8c-1.1,3.1-2.5,6.7-4.1,10.7c-1.7-4.2-3.1-7.9-4.2-11c0.7-1.9,1.3-3.5,1.8-4.9c-0.3,0-0.5,0-0.8-0.1
					C83-1.3,82.5,0,82,1.4c-0.6-1.5-1-2.9-1.5-4c-0.3,0-0.6,0-0.8,0c0.5,1.5,1.2,3.2,1.9,5.2c-1.1,3.1-2.5,6.7-4.1,10.7
					c-1.6-4.1-3-7.7-4.1-10.7c0.8-2.1,1.4-3.9,2-5.4c-0.3,0-0.5,0-0.8,0c-0.4,1.3-1,2.7-1.6,4.3c-0.6-1.7-1.1-3.1-1.6-4.4
					c-0.3,0-0.5,0-0.8,0c0.6,1.6,1.2,3.4,2,5.6c-1.1,3.1-2.5,6.7-4.1,10.7c-1.6-4.1-3-7.7-4.1-10.7c0.8-2.2,1.5-4.1,2-5.6
					c-0.3,0-0.5,0-0.8,0c-0.5,1.3-1,2.8-1.6,4.5c-0.6-1.7-1.2-3.3-1.7-4.6c-0.3,0-0.5,0-0.8,0c0.6,1.6,1.3,3.5,2.1,5.7
					c-1.1,3.1-2.5,6.7-4.1,10.7c-1.6-4.1-3-7.7-4.1-10.7c0.8-2.2,1.5-4.1,2.1-5.7c-0.3,0-0.5,0-0.8,0c-0.5,1.3-1,2.9-1.7,4.6
					C54-0.3,53.4-1.9,53-3.2c-0.3,0-0.5,0-0.8,0c0.6,1.6,1.3,3.6,2.1,5.8c-1.1,3.1-2.5,6.7-4.1,10.7c-1.6-4.1-3-7.7-4.1-10.7
					c0.8-2.3,1.6-4.2,2.1-5.9c-0.3,0-0.5,0-0.8,0c-0.5,1.4-1.1,2.9-1.7,4.8c-0.7-1.8-1.2-3.4-1.7-4.8c-0.3,0-0.5,0-0.8,0
					c0.6,1.6,1.3,3.6,2.1,5.9C44,5.6,42.6,9.2,41,13.3c-1.6-4.1-3-7.7-4.1-10.7c0.8-2.3,1.6-4.2,2.1-5.9c-0.3,0-0.5,0-0.8,0
					c-0.5,1.4-1.1,2.9-1.7,4.7c-0.7-1.8-1.2-3.3-1.7-4.7c-0.3,0-0.5,0-0.8,0c0.6,1.6,1.3,3.5,2.1,5.8c-1.2,3.1-2.6,6.8-4.2,11
					c-1.6-4.1-3-7.7-4.1-10.7c0.8-2.3,1.5-4.2,2.1-5.8c-0.3,0-0.6,0-0.8,0c-0.5,1.4-1,2.9-1.7,4.7c-0.6-1.7-1.2-3.2-1.6-4.5
					c-0.3,0-0.5,0-0.8,0.1c0.6,1.6,1.2,3.4,2,5.5c-1.1,3.1-2.5,6.7-4.1,10.7c-1.6-4.1-3-7.7-4.1-10.7c0.7-1.9,1.3-3.6,1.9-5.1
					c-0.3,0-0.6,0.1-0.9,0.1c-0.4,1.2-0.9,2.5-1.4,3.9c-0.5-1.3-0.9-2.5-1.3-3.5c-0.3,0-0.5,0.1-0.8,0.1c0.5,1.3,1,2.8,1.7,4.5
					c-1.1,3.1-2.5,6.7-4.1,10.7C11.4,8,9.6,3.4,8.3-0.2C8.1-0.2,7.8-0.1,7.6,0c1.4,3.8,3.3,8.8,5.6,14.6c-1.2,3.1-2.6,6.5-4.1,10
					c-3.8-9-6.8-16.6-8.9-22.3c-0.2,0.1-0.5,0.2-0.7,0.3c2.2,5.8,5.2,13.7,9.2,23c-1.3,3-2.7,6.2-4.1,9.4c-2.2-4.9-4.2-9.5-5.9-13.7
					c0,0.8,0.1,1.5,0.1,2.3c1.6,3.9,3.4,8,5.4,12.3c-1.1,2.4-2.3,5-3.5,7.5c0.1,0.5,0.1,0.9,0.2,1.4c1.3-2.7,2.5-5.4,3.7-8
					c1.3,2.9,2.7,5.9,4.1,8.9c-1.3,2.8-2.7,5.6-4.1,8.5c-1.2-2.3-2.3-4.6-3.4-6.9c0.1,0.8,0.2,1.7,0.4,2.5c0.8,1.7,1.7,3.5,2.6,5.3
					c-0.1,0.2-0.2,0.4-0.3,0.6c-0.3,0.7-0.7,1.4-1.1,2.1c0.1,0.4,0.1,0.9,0.2,1.3c0.5-1,1.1-2.1,1.6-3.1c0,0,0-0.1,0-0.1
					c0,0,0,0.1,0,0.1c1.3,2.6,2.7,5.3,4.1,8c-1.2,2.4-2.5,4.8-3.9,7.3c0.1,0.4,0.1,0.8,0.2,1.3C6.3,70,7.7,67.4,9,64.9
					c1.3,2.5,2.7,5.1,4.1,7.7c-1.3,2.4-2.7,4.9-4.1,7.4c-1.4-2.5-2.8-5-4.1-7.4c0.1,0.7,0.2,1.4,0.3,2.2c1.1,2,2.2,4,3.3,6
					c-0.6,1.1-1.3,2.3-2,3.4c0.1,0.4,0.1,0.8,0.2,1.2c0.7-1.3,1.5-2.6,2.2-3.8c1.3,2.3,2.7,4.7,4.1,7.1c-1.3,2.2-2.7,4.5-4.1,6.8
					c-0.3-0.5-0.6-0.9-0.8-1.4c0.1,0.7,0.2,1.4,0.4,2c0,0,0,0,0,0.1c0,0,0,0,0,0c0.1,0.4,0.1,0.8,0.2,1.1c0.1-0.1,0.2-0.3,0.3-0.4
					c1.3,2.2,2.7,4.3,4.1,6.5c-0.8,1.3-1.6,2.5-2.5,3.8c0.1,0.4,0.1,0.7,0.2,1.1c0.9-1.4,1.8-2.8,2.7-4.1c1.3,2.1,2.7,4.1,4.1,6.2
					c-1.5,2.3-3.1,4.5-4.7,6.8c0.1,0.3,0.2,0.6,0.3,1c1.7-2.4,3.3-4.7,4.9-7.1c1.3,2,2.7,4,4.1,6c-1.5,2.1-3,4.3-4.6,6.4
					c0.2,0.1,0.5,0.2,0.7,0.3c1.5-2,2.9-4.1,4.4-6.1c1.4,1.9,2.8,3.9,4.2,5.8c-0.7,0.9-1.4,1.9-2.1,2.8c0.3,0.1,0.5,0.2,0.8,0.2
					c0.6-0.8,1.2-1.6,1.8-2.4c0.9,1.2,1.8,2.4,2.7,3.6c0.4,0.1,0.8,0.2,1.1,0.3c-1.1-1.5-2.3-3-3.4-4.5c1.4-1.9,2.7-3.8,4.1-5.7
					c1.3,1.9,2.7,3.8,4.1,5.7c-1.2,1.6-2.4,3.2-3.6,4.8c0.3,0.1,0.5,0.1,0.8,0.2c1.1-1.4,2.2-2.9,3.2-4.3c1.3,1.8,2.7,3.6,4.1,5.4
					c0.4,0,0.7,0.1,1.1,0.1c0,0-0.1-0.1-0.1-0.1c1.4-1.8,2.7-3.6,4.1-5.5c1.3,1.8,2.7,3.6,4.1,5.5c-0.2,0.2-0.4,0.5-0.5,0.7
					c0.3,0,0.6,0,0.9,0c0,0,0.1-0.1,0.1-0.1c0,0,0.1,0.1,0.1,0.1c0.3,0,0.7,0,1,0c-0.2-0.3-0.4-0.5-0.6-0.8c1.4-1.8,2.7-3.6,4.1-5.5
					c1.3,1.8,2.7,3.6,4.1,5.5c-0.2,0.3-0.5,0.6-0.7,0.9c0.3,0,0.6,0,1,0c0.1-0.1,0.2-0.2,0.2-0.3c0.1,0.1,0.2,0.2,0.3,0.3
					c0.1,0,0.2,0,0.3,0c0.2,0,0.4,0,0.6,0c-0.2-0.3-0.5-0.6-0.7-1c1.4-1.8,2.7-3.6,4.1-5.5c1.3,1.8,2.7,3.6,4.1,5.5
					c-0.2,0.3-0.4,0.6-0.7,0.9c0.3,0,0.7,0,1,0c0-0.1,0.1-0.1,0.1-0.2c0,0.1,0.1,0.1,0.1,0.2c0.3,0,0.6,0,0.9,0
					c-0.2-0.3-0.4-0.5-0.6-0.8c1.4-1.8,2.7-3.6,4.1-5.5c1.3,1.8,2.7,3.6,4.1,5.5c-0.1,0.1-0.1,0.2-0.2,0.3c0.4,0,0.9-0.1,1.3-0.1
					c0-0.1-0.1-0.1-0.1-0.2c1.4-1.8,2.7-3.6,4.1-5.5c1.1,1.6,2.3,3.1,3.5,4.7c0.3,0,0.6-0.1,0.8-0.1c-1.3-1.7-2.6-3.5-3.9-5.2
					c1.4-1.9,2.7-3.8,4.1-5.7c1.3,1.9,2.7,3.8,4.1,5.7c-1.2,1.7-2.5,3.4-3.8,5.1c0.4-0.1,0.7-0.1,1.1-0.2c1.1-1.4,2.1-2.8,3.2-4.3
					c0.8,1.1,1.6,2.1,2.3,3.2c0.3-0.1,0.6-0.1,0.8-0.2c-0.9-1.2-1.8-2.4-2.7-3.6c1.4-1.9,2.8-3.9,4.2-5.8c1.8,2.5,3.6,5,5.5,7.6
					c0.3-0.1,0.5-0.2,0.8-0.2c-2-2.7-3.9-5.3-5.8-8c1.4-2,2.7-4,4.1-6c1.7,2.5,3.5,5.1,5.3,7.6c0.1-0.3,0.1-0.7,0.2-1
					c-1.7-2.4-3.4-4.8-5-7.3c1.4-2.1,2.8-4.1,4.1-6.2c0.8,1.3,1.7,2.6,2.6,3.9c0.1-0.4,0.1-0.8,0.2-1.1c-0.8-1.2-1.5-2.3-2.3-3.5
					c1.2-1.9,2.4-3.8,3.6-5.6c0.1-0.9,0.2-1.8,0.3-2.6c-1.3-2.2-2.6-4.3-3.9-6.5c1.4-2.4,2.8-4.7,4.1-7.1c0.4,0.7,0.8,1.4,1.2,2.1
					c0.1-0.4,0.1-0.9,0.2-1.3c-0.3-0.5-0.6-1-0.9-1.6c0.5-0.8,0.9-1.6,1.4-2.4c0.1-0.7,0.2-1.3,0.2-2c-0.7,1.2-1.4,2.4-2,3.6
					c-1.4-2.5-2.8-5-4.1-7.4c1.4-2.6,2.8-5.2,4.1-7.7c0.9,1.7,1.9,3.5,2.8,5.3c0.1-0.4,0.1-0.9,0.2-1.3c-0.9-1.6-1.7-3.2-2.6-4.8
					c1.4-2.7,2.8-5.4,4.1-8c0,0,0-0.1,0-0.1c0,0,0,0.1,0,0.1c0.1,0.2,0.2,0.3,0.2,0.5c0.1-0.4,0.1-0.9,0.2-1.3c0,0,0-0.1-0.1-0.1
					c0-0.1,0.1-0.2,0.1-0.3c0.1-0.9,0.3-1.7,0.4-2.6c-0.3,0.7-0.6,1.3-1,2c-1.4-2.9-2.8-5.7-4.1-8.5c1.4-3.1,2.8-6,4.1-8.9
					c0.8,1.8,1.7,3.6,2.5,5.5c0.1-0.5,0.1-0.9,0.2-1.4c-0.8-1.7-1.6-3.4-2.3-5.1c1.6-3.5,3.1-6.9,4.4-10.1
					C118.9,24.8,119.1,23.8,119.3,22.7z M109,25.5c-1.3,3-2.7,6.2-4.1,9.4c-1.5-3.3-2.9-6.4-4.1-9.4c1.5-3.5,2.9-6.9,4.1-10
					C106.1,18.7,107.5,22,109,25.5z M99.9,45.8c-1.3,2.8-2.7,5.6-4.1,8.5c-1.4-2.9-2.8-5.7-4.1-8.5c1.4-3.1,2.8-6,4.1-8.9
					C97,39.7,98.4,42.7,99.9,45.8z M96.1,35.9c1.5-3.3,2.8-6.4,4.1-9.4c1.3,3,2.7,6.1,4.1,9.4c-1.3,2.9-2.7,5.9-4.1,9
					C98.8,41.8,97.5,38.8,96.1,35.9z M87.4,55.8c-0.1-0.2-0.2-0.4-0.3-0.6c1.4-2.9,2.8-5.7,4.1-8.5c1.3,2.8,2.7,5.6,4.1,8.5
					c-0.1,0.2-0.2,0.4-0.3,0.6c-1.2,2.4-2.5,4.9-3.8,7.5C89.8,60.7,88.6,58.2,87.4,55.8z M95.3,72.7c-1.3,2.4-2.7,4.9-4.1,7.4
					c-1.4-2.5-2.8-5-4.1-7.4c1.4-2.6,2.8-5.2,4.1-7.7C92.5,67.5,93.9,70,95.3,72.7z M90.7,64.1c-1.3,2.5-2.7,5.1-4.1,7.7
					c-1.4-2.6-2.8-5.2-4.1-7.7c1.4-2.7,2.8-5.4,4.1-8c0,0,0-0.1,0-0.1c0,0,0,0.1,0,0.1C88,58.7,89.3,61.4,90.7,64.1z M40.9,73.4
					c1.3,2.4,2.7,4.9,4.1,7.4c-1.3,2.3-2.7,4.7-4.1,7.1c-1.4-2.4-2.8-4.8-4.1-7.1C38.2,78.3,39.6,75.9,40.9,73.4z M36.3,80.1
					c-1.4-2.5-2.8-5-4.1-7.4c1.4-2.6,2.8-5.2,4.1-7.7c1.3,2.5,2.7,5.1,4.1,7.7C39.1,75.1,37.8,77.6,36.3,80.1z M41.3,72.7
					c1.4-2.6,2.8-5.2,4.1-7.7c1.3,2.5,2.7,5.1,4.1,7.7c-1.3,2.4-2.7,4.9-4.1,7.4C44,77.6,42.7,75.1,41.3,72.7z M50,73.4
					c1.4,2.5,2.8,5,4.2,7.5c-1.3,2.3-2.7,4.7-4.1,7.1c-1.4-2.4-2.8-4.9-4.2-7.2C47.3,78.3,48.7,75.9,50,73.4z M50.4,72.7
					c1.4-2.6,2.8-5.2,4.1-7.7c1.3,2.6,2.7,5.2,4.2,7.9c-1.3,2.4-2.7,4.9-4.1,7.4C53.2,77.7,51.8,75.1,50.4,72.7z M59.2,73.6
					c1.3,2.4,2.7,4.9,4.1,7.4c-1.3,2.3-2.7,4.7-4.1,7.1c-1.4-2.4-2.8-4.7-4.1-7.1C56.5,78.5,57.9,76,59.2,73.6z M59.6,72.8
					c1.5-2.7,2.9-5.3,4.2-7.9c1.3,2.5,2.7,5.1,4.1,7.7c-1.4,2.5-2.8,5-4.2,7.6C62.3,77.7,61,75.3,59.6,72.8z M68.4,73.4
					c1.3,2.4,2.7,4.9,4.1,7.4c-1.4,2.4-2.8,4.8-4.2,7.2c-1.4-2.4-2.8-4.7-4.1-7.1C65.7,78.4,67.1,75.9,68.4,73.4z M68.8,72.7
					c1.4-2.6,2.8-5.2,4.1-7.7c1.3,2.5,2.7,5.1,4.1,7.7c-1.3,2.4-2.7,4.9-4.1,7.4C71.5,77.6,70.2,75.1,68.8,72.7z M77.5,73.4
					c1.3,2.4,2.7,4.9,4.1,7.4c-1.3,2.3-2.7,4.7-4.1,7.1c-1.4-2.4-2.8-4.8-4.1-7.1C74.8,78.3,76.2,75.9,77.5,73.4z M77.9,72.7
					c1.4-2.6,2.8-5.2,4.1-7.7c1.3,2.5,2.7,5.1,4.1,7.7c-1.3,2.4-2.7,4.9-4.1,7.4C80.6,77.6,79.3,75.1,77.9,72.7z M85.9,55.8
					c-1.2,2.4-2.5,4.9-3.8,7.5c-1.3-2.6-2.6-5.1-3.8-7.5c-0.1-0.2-0.2-0.4-0.3-0.6c1.4-2.9,2.8-5.7,4.1-8.5c1.3,2.8,2.7,5.6,4.1,8.5
					C86.1,55.4,86,55.6,85.9,55.8z M81.6,64.1c-1.3,2.5-2.7,5.1-4.1,7.8c-1.4-2.6-2.8-5.2-4.1-7.8c1.4-2.7,2.8-5.4,4.1-8
					c0,0,0-0.1,0-0.1c0,0,0,0.1,0,0.1C78.8,58.7,80.2,61.4,81.6,64.1z M76.8,55.8c-1.2,2.4-2.5,4.9-3.8,7.5
					c-1.3-2.6-2.6-5.1-3.8-7.5c-0.1-0.2-0.2-0.4-0.3-0.6c1.4-2.9,2.8-5.7,4.1-8.5c1.3,2.8,2.7,5.6,4.1,8.5
					C77,55.4,76.9,55.6,76.8,55.8z M72.5,64.1c-1.3,2.5-2.7,5.1-4.1,7.7c-1.4-2.6-2.8-5.2-4.1-7.7c1.4-2.7,2.8-5.4,4.1-8
					c0,0,0-0.1,0-0.1c0,0,0,0.1,0,0.1C69.7,58.7,71.1,61.4,72.5,64.1z M67.7,55.8c-1.2,2.4-2.5,4.9-3.8,7.5
					c-1.3-2.6-2.6-5.1-3.8-7.5c-0.1-0.3-0.3-0.5-0.4-0.8c1.4-2.9,2.8-5.7,4.1-8.5c1.3,2.8,2.8,5.7,4.2,8.7
					C67.9,55.4,67.8,55.6,67.7,55.8z M63.4,64.1c-1.3,2.6-2.7,5.2-4.2,7.9c-1.5-2.7-2.9-5.3-4.2-7.9c1.4-2.7,2.8-5.4,4.1-8
					c0-0.1,0.1-0.2,0.1-0.3c0,0.1,0.1,0.2,0.1,0.3C60.6,58.7,62,61.4,63.4,64.1z M58.4,55.8c-1.2,2.4-2.5,4.9-3.8,7.5
					c-1.3-2.6-2.6-5.1-3.8-7.5c-0.1-0.2-0.2-0.4-0.3-0.6c1.5-3,2.9-5.9,4.2-8.7c1.3,2.8,2.7,5.6,4.1,8.5
					C58.6,55.2,58.5,55.5,58.4,55.8z M54.1,64.1c-1.3,2.5-2.7,5.1-4.1,7.7c-1.4-2.6-2.8-5.2-4.1-7.7c1.4-2.7,2.8-5.4,4.1-8
					c0,0,0-0.1,0-0.1c0,0,0,0.1,0,0.1C51.3,58.7,52.7,61.4,54.1,64.1z M49.3,55.8c-1.2,2.4-2.5,4.9-3.8,7.5
					c-1.3-2.6-2.6-5.1-3.8-7.5c-0.1-0.2-0.2-0.4-0.3-0.6c1.4-2.9,2.8-5.7,4.1-8.5c1.3,2.8,2.7,5.6,4.1,8.5
					C49.5,55.4,49.4,55.6,49.3,55.8z M45,64.1c-1.3,2.5-2.7,5.1-4.1,7.8c-1.4-2.6-2.8-5.2-4.1-7.8c1.4-2.7,2.8-5.4,4.1-8
					c0,0,0-0.1,0-0.1c0,0,0,0.1,0,0.1C42.2,58.7,43.6,61.4,45,64.1z M40.2,55.8c-1.2,2.4-2.5,4.9-3.8,7.5c-1.3-2.6-2.6-5.1-3.8-7.5
					c-0.1-0.2-0.2-0.4-0.3-0.6c1.4-2.9,2.8-5.7,4.1-8.5c1.3,2.8,2.7,5.6,4.1,8.5C40.4,55.4,40.3,55.6,40.2,55.8z M35.9,64.1
					c-1.3,2.5-2.7,5.1-4.1,7.7c-1.4-2.6-2.8-5.2-4.1-7.7c1.4-2.7,2.8-5.4,4.1-8c0,0,0-0.1,0-0.1c0,0,0,0.1,0,0.1
					C33.1,58.7,34.5,61.4,35.9,64.1z M31.4,72.7c-1.3,2.4-2.7,4.9-4.1,7.4c-1.4-2.5-2.8-5-4.1-7.4c1.4-2.6,2.8-5.2,4.1-7.7
					C28.6,67.5,29.9,70,31.4,72.7z M31.1,55.8c-1.2,2.4-2.5,4.9-3.8,7.5c-1.3-2.6-2.6-5.1-3.8-7.5c-0.1-0.2-0.2-0.4-0.3-0.6
					c1.4-2.9,2.8-5.7,4.1-8.5c1.3,2.8,2.7,5.6,4.1,8.5C31.3,55.4,31.2,55.6,31.1,55.8z M26.8,64.1c-1.3,2.5-2.7,5.1-4.1,7.8
					c-1.4-2.6-2.8-5.2-4.1-7.8c1.4-2.7,2.8-5.4,4.1-8c0,0,0-0.1,0-0.1c0,0,0,0.1,0,0.1C24,58.7,25.4,61.4,26.8,64.1z M26.8,80.8
					c-1.3,2.3-2.7,4.7-4.1,7.1c-1.4-2.4-2.8-4.8-4.1-7.1c1.4-2.5,2.8-5,4.1-7.4C24,75.9,25.4,78.3,26.8,80.8z M27.2,81.6
					c1.3,2.3,2.7,4.7,4.1,7.1c-1.3,2.2-2.7,4.5-4.1,6.8c-1.4-2.3-2.8-4.5-4.1-6.8C24.5,86.3,25.9,83.9,27.2,81.6z M27.7,80.8
					c1.4-2.5,2.8-5,4.1-7.4c1.3,2.4,2.7,4.9,4.1,7.4c-1.3,2.3-2.7,4.7-4.1,7.1C30.4,85.5,29,83.2,27.7,80.8z M36.3,81.6
					c1.3,2.3,2.7,4.7,4.1,7.1c-1.3,2.2-2.7,4.5-4.1,6.8c-1.4-2.3-2.8-4.5-4.1-6.8C33.6,86.3,35,83.9,36.3,81.6z M40.9,89.4
					c1.4,2.3,2.8,4.6,4.2,6.9c-1.3,2.2-2.7,4.3-4.1,6.5c-1.4-2.2-2.8-4.4-4.2-6.7C38.2,93.9,39.6,91.7,40.9,89.4z M41.3,88.7
					c1.4-2.4,2.8-4.7,4.1-7.1c1.4,2.4,2.8,4.8,4.2,7.2c-1.3,2.2-2.7,4.5-4.1,6.8C44.1,93.3,42.7,91,41.3,88.7z M50.1,89.6
					c1.3,2.2,2.7,4.5,4.1,6.8c-1.3,2.2-2.7,4.3-4.1,6.5c-1.4-2.2-2.8-4.3-4.1-6.5C47.4,94.1,48.8,91.8,50.1,89.6z M50.5,88.8
					c1.4-2.4,2.8-4.7,4.1-7.1c1.3,2.3,2.7,4.7,4.1,7.1c-1.3,2.2-2.7,4.5-4.1,6.8C53.2,93.3,51.9,91.1,50.5,88.8z M59.2,89.6
					c1.3,2.2,2.7,4.5,4.1,6.8c-1.3,2.2-2.7,4.3-4.1,6.5c-1.4-2.2-2.8-4.3-4.1-6.5C56.5,94.1,57.9,91.8,59.2,89.6z M59.7,88.8
					c1.4-2.4,2.8-4.7,4.1-7.1c1.3,2.3,2.7,4.7,4.1,7.1c-1.3,2.2-2.7,4.5-4.1,6.8C62.4,93.3,61,91.1,59.7,88.8z M68.3,89.6
					c1.3,2.2,2.7,4.5,4.1,6.8c-1.3,2.2-2.7,4.3-4.1,6.5c-1.4-2.2-2.8-4.3-4.1-6.5C65.6,94.1,67,91.8,68.3,89.6z M68.8,88.8
					c1.4-2.4,2.8-4.8,4.2-7.2c1.3,2.3,2.7,4.7,4.1,7.1c-1.4,2.3-2.8,4.6-4.2,6.9C71.5,93.3,70.1,91.1,68.8,88.8z M77.5,89.4
					c1.3,2.2,2.7,4.5,4.1,6.8c-1.4,2.2-2.8,4.4-4.2,6.7c-1.4-2.2-2.8-4.3-4.1-6.5C74.8,94,76.2,91.7,77.5,89.4z M78,88.7
					c1.4-2.4,2.8-4.7,4.1-7.1c1.3,2.3,2.7,4.7,4.1,7.1c-1.3,2.2-2.7,4.5-4.1,6.8C80.7,93.2,79.3,90.9,78,88.7z M82.5,80.8
					c1.4-2.5,2.8-5,4.1-7.4c1.3,2.4,2.7,4.9,4.1,7.4c-1.3,2.3-2.7,4.7-4.1,7.1C85.2,85.5,83.8,83.2,82.5,80.8z M91.2,81.6
					c1.3,2.3,2.7,4.7,4.1,7.1c-1.3,2.2-2.7,4.5-4.1,6.8c-1.4-2.3-2.8-4.5-4.1-6.8C88.5,86.3,89.8,83.9,91.2,81.6z M91.6,80.8
					c1.4-2.5,2.8-5,4.1-7.4c1.3,2.4,2.7,4.9,4.1,7.4c-1.3,2.3-2.7,4.7-4.1,7.1C94.3,85.5,92.9,83.2,91.6,80.8z M91.6,64.1
					c1.4-2.7,2.8-5.4,4.1-8c0,0,0-0.1,0-0.1c0,0,0,0.1,0,0.1c1.3,2.6,2.7,5.3,4.1,8c-1.3,2.5-2.7,5.1-4.1,7.8
					C94.3,69.2,92.9,66.6,91.6,64.1z M91.2,44.9c-1.4-3.1-2.8-6.1-4.1-9c1.5-3.3,2.8-6.4,4.1-9.4c1.3,3,2.7,6.1,4.1,9.4
					C94,38.8,92.6,41.8,91.2,44.9z M90.7,45.8c-1.3,2.8-2.7,5.6-4.1,8.5c-1.4-2.9-2.8-5.7-4.1-8.5c1.4-3.1,2.8-6,4.1-8.9
					C87.9,39.7,89.3,42.7,90.7,45.8z M82.1,44.9c-1.4-3.1-2.8-6.1-4.1-9c1.5-3.3,2.8-6.4,4.1-9.4c1.3,3,2.7,6.1,4.1,9.4
					C84.9,38.8,83.5,41.8,82.1,44.9z M81.6,45.8c-1.3,2.8-2.7,5.6-4.1,8.5c-1.4-2.9-2.8-5.7-4.1-8.5c1.4-3.1,2.8-6,4.1-8.9
					C78.8,39.7,80.2,42.7,81.6,45.8z M73,44.9c-1.5-3.1-2.9-6.2-4.2-9.2c1.5-3.3,2.8-6.4,4.1-9.4c1.3,3.1,2.7,6.3,4.2,9.6
					C75.8,38.8,74.4,41.8,73,44.9z M72.5,45.8c-1.3,2.8-2.7,5.6-4.1,8.5c-1.5-3-2.9-5.9-4.2-8.7c1.4-3.1,2.8-6,4.1-8.9
					C69.6,39.6,71.1,42.6,72.5,45.8z M63.8,44.7c-1.4-3.1-2.8-6.1-4.1-9c1.5-3.3,2.8-6.4,4.1-9.4c1.3,3,2.7,6.1,4.1,9.4
					C66.6,38.6,65.2,41.6,63.8,44.7z M63.3,45.6c-1.3,2.8-2.7,5.6-4.1,8.5c-1.4-2.9-2.8-5.7-4.1-8.5c1.4-3.1,2.8-6,4.1-8.9
					C60.5,39.5,61.9,42.5,63.3,45.6z M54.7,44.7c-1.4-3.1-2.8-6.1-4.1-9c1.5-3.3,2.8-6.4,4.1-9.4c1.3,3,2.7,6.1,4.1,9.4
					C57.5,38.6,56.1,41.6,54.7,44.7z M54.2,45.6c-1.3,2.8-2.8,5.8-4.2,8.7c-1.4-2.9-2.8-5.7-4.1-8.5c1.5-3.1,2.9-6.2,4.2-9.1
					C51.4,39.5,52.8,42.5,54.2,45.6z M45.5,44.9c-1.4-3.1-2.8-6.1-4.1-9c1.5-3.3,2.9-6.6,4.2-9.6c1.3,3,2.7,6.1,4.1,9.4
					C48.3,38.7,46.9,41.7,45.5,44.9z M45,45.8c-1.3,2.8-2.7,5.6-4.1,8.5c-1.4-2.9-2.8-5.7-4.1-8.5c1.4-3.1,2.8-6,4.1-8.9
					C42.2,39.7,43.6,42.7,45,45.8z M36.3,44.9c-1.4-3.1-2.8-6.1-4.1-9c1.5-3.3,2.8-6.4,4.1-9.4c1.3,3,2.7,6.1,4.1,9.4
					C39.2,38.8,37.8,41.8,36.3,44.9z M35.9,45.8c-1.3,2.8-2.7,5.6-4.1,8.5c-1.4-2.9-2.8-5.7-4.1-8.5c1.4-3.1,2.8-6,4.1-8.9
					C33.1,39.7,34.5,42.7,35.9,45.8z M27.2,44.9c-1.4-3.1-2.8-6.1-4.1-9c1.5-3.3,2.8-6.4,4.1-9.4c1.3,3,2.7,6.1,4.1,9.4
					C30.1,38.8,28.7,41.8,27.2,44.9z M26.8,45.8c-1.3,2.8-2.7,5.6-4.1,8.5c-1.4-2.9-2.8-5.7-4.1-8.5c1.4-3.1,2.8-6,4.1-8.9
					C24,39.7,25.4,42.7,26.8,45.8z M18.1,44.9c-1.4-3.1-2.8-6.1-4.1-9c1.5-3.3,2.8-6.4,4.1-9.4c1.3,3,2.7,6.1,4.1,9.4
					C21,38.8,19.6,41.8,18.1,44.9z M17.7,45.8c-1.3,2.8-2.7,5.6-4.1,8.5c-1.4-2.9-2.8-5.7-4.1-8.5c1.4-3.1,2.8-6,4.1-8.9
					C14.9,39.7,16.3,42.7,17.7,45.8z M18.1,46.7c1.3,2.8,2.7,5.6,4.1,8.5c-0.1,0.2-0.2,0.4-0.3,0.6c-1.2,2.4-2.5,4.9-3.8,7.5
					c-1.3-2.6-2.6-5.1-3.8-7.5c-0.1-0.2-0.2-0.4-0.3-0.6C15.4,52.3,16.8,49.4,18.1,46.7z M22.2,72.7c-1.3,2.4-2.7,4.9-4.1,7.4
					c-1.4-2.5-2.8-5-4.1-7.4c1.4-2.6,2.8-5.2,4.1-7.7C19.5,67.5,20.8,70,22.2,72.7z M22.2,88.7c-1.3,2.2-2.7,4.5-4.1,6.8
					c-1.4-2.3-2.8-4.5-4.1-6.8c1.4-2.4,2.8-4.7,4.1-7.1C19.5,83.9,20.8,86.3,22.2,88.7z M22.7,89.4c1.3,2.2,2.7,4.5,4.1,6.8
					c-1.3,2.2-2.7,4.3-4.1,6.5c-1.4-2.2-2.8-4.3-4.1-6.5C20,93.9,21.4,91.7,22.7,89.4z M27.2,96.9c1.3,2.2,2.7,4.3,4.1,6.5
					c-1.3,2.1-2.7,4.2-4.1,6.2c-1.4-2.1-2.8-4.2-4.1-6.2C24.5,101.2,25.9,99.1,27.2,96.9z M27.7,96.2c1.4-2.3,2.8-4.5,4.1-6.8
					c1.3,2.2,2.7,4.5,4.1,6.8c-1.3,2.2-2.7,4.3-4.1,6.5C30.4,100.5,29,98.3,27.7,96.2z M36.3,96.9c1.4,2.2,2.8,4.4,4.2,6.6
					c-1.3,2.1-2.7,4.1-4.1,6.2c-1.4-2.1-2.8-4.3-4.2-6.4C33.6,101.2,35,99.1,36.3,96.9z M41,104.3c1.3,2.1,2.7,4.1,4.1,6.2
					c-1.3,2-2.7,4-4.1,6c-1.4-2-2.8-4-4.1-6C38.3,108.4,39.7,106.3,41,104.3z M41.4,103.5c1.4-2.2,2.8-4.3,4.1-6.5
					c1.3,2.1,2.7,4.3,4.1,6.5c-1.3,2.1-2.7,4.1-4.1,6.2C44.2,107.7,42.8,105.6,41.4,103.5z M50.1,104.3c1.3,2.1,2.7,4.1,4.1,6.2
					c-1.3,2-2.7,4-4.1,6c-1.4-2-2.8-4-4.1-6C47.4,108.4,48.8,106.3,50.1,104.3z M50.6,103.5c1.4-2.2,2.8-4.3,4.1-6.5
					c1.3,2.1,2.7,4.3,4.1,6.5c-1.3,2.1-2.7,4.1-4.1,6.2C53.3,107.7,51.9,105.6,50.6,103.5z M59.2,104.3c1.3,2.1,2.7,4.1,4.1,6.2
					c-1.3,2-2.7,4-4.1,6c-1.4-2-2.8-4-4.1-6C56.5,108.4,57.9,106.3,59.2,104.3z M59.7,103.5c1.4-2.2,2.8-4.3,4.1-6.5
					c1.3,2.1,2.7,4.3,4.1,6.5c-1.3,2.1-2.7,4.1-4.1,6.2C62.4,107.7,61,105.6,59.7,103.5z M68.3,104.3c1.3,2.1,2.7,4.1,4.1,6.2
					c-1.3,2-2.7,4-4.1,6c-1.4-2-2.8-4-4.1-6C65.6,108.4,67,106.3,68.3,104.3z M68.8,103.5c1.4-2.2,2.8-4.3,4.1-6.5
					c1.3,2.1,2.7,4.3,4.1,6.5c-1.3,2.1-2.7,4.1-4.1,6.2C71.5,107.7,70.1,105.6,68.8,103.5z M77.4,104.3c1.3,2.1,2.7,4.1,4.1,6.2
					c-1.3,2-2.7,4-4.1,6c-1.4-2-2.8-4-4.1-6C74.7,108.4,76.1,106.3,77.4,104.3z M77.9,103.5c1.4-2.2,2.8-4.4,4.2-6.6
					c1.3,2.2,2.7,4.3,4.1,6.5c-1.4,2.1-2.8,4.2-4.2,6.4C80.6,107.7,79.2,105.6,77.9,103.5z M82.5,96.2c1.4-2.3,2.8-4.5,4.1-6.8
					c1.3,2.2,2.7,4.5,4.1,6.8c-1.3,2.2-2.7,4.3-4.1,6.5C85.2,100.5,83.9,98.3,82.5,96.2z M91.2,96.9c1.3,2.2,2.7,4.3,4.1,6.5
					c-1.3,2.1-2.7,4.2-4.1,6.2c-1.4-2.1-2.8-4.2-4.1-6.2C88.5,101.2,89.8,99.1,91.2,96.9z M91.6,96.2c1.4-2.3,2.8-4.5,4.1-6.8
					c1.3,2.2,2.7,4.5,4.1,6.8c-1.3,2.2-2.7,4.3-4.1,6.5C94.3,100.5,93,98.3,91.6,96.2z M96.2,88.7c1.4-2.4,2.8-4.7,4.1-7.1
					c1.3,2.3,2.7,4.7,4.1,7.1c-1.3,2.2-2.7,4.5-4.1,6.8C98.9,93.2,97.5,90.9,96.2,88.7z M96.2,72.7c1.4-2.6,2.8-5.2,4.1-7.7
					c1.3,2.5,2.7,5.1,4.1,7.7c-1.3,2.4-2.7,4.9-4.1,7.4C98.9,77.6,97.5,75.1,96.2,72.7z M96.5,55.8c-0.1-0.2-0.2-0.4-0.3-0.6
					c1.4-2.9,2.8-5.7,4.1-8.5c1.3,2.8,2.7,5.6,4.1,8.5c-0.1,0.2-0.2,0.4-0.3,0.6c-1.2,2.4-2.5,4.9-3.8,7.5
					C98.9,60.7,97.7,58.2,96.5,55.8z M100.7,45.8c1.4-3.1,2.8-6,4.1-8.9c1.3,2.9,2.7,5.9,4.1,8.9c-1.3,2.8-2.7,5.6-4.1,8.5
					C103.4,51.4,102,48.6,100.7,45.8z M100.3,3.9c1.2,3.1,2.5,6.7,4.1,10.7c-1.2,3.1-2.6,6.5-4.1,10c-1.5-3.6-2.9-6.9-4.1-10
					C97.7,10.6,99.1,7,100.3,3.9z M99.9,25.5c-1.3,3-2.7,6.2-4.1,9.4c-1.5-3.3-2.9-6.4-4.1-9.4c1.5-3.5,2.9-6.9,4.1-10
					C97,18.7,98.4,22,99.9,25.5z M91.2,3.9c1.2,3.1,2.5,6.7,4.1,10.7c-1.2,3.1-2.6,6.5-4.1,10c-1.5-3.6-2.9-6.9-4.1-10
					C88.6,10.6,90,7,91.2,3.9z M90.8,25.5c-1.3,3-2.7,6.2-4.1,9.4c-1.5-3.3-2.9-6.4-4.1-9.4c1.5-3.5,2.9-6.9,4.1-10
					C87.9,18.7,89.2,22,90.8,25.5z M82,3.6c1.2,3.1,2.6,6.8,4.2,10.9c-1.2,3.1-2.6,6.5-4.1,10c-1.6-3.7-3-7.1-4.2-10.3
					C79.4,10.3,80.8,6.7,82,3.6z M81.6,25.5c-1.3,3-2.7,6.2-4.1,9.4c-1.5-3.4-2.9-6.6-4.2-9.7c1.5-3.5,2.9-6.9,4.1-10
					C78.7,18.5,80.1,21.9,81.6,25.5z M72.9,3.6c1.2,3.1,2.5,6.7,4.1,10.7c-1.2,3.1-2.6,6.5-4.1,10c-1.5-3.6-2.9-6.9-4.1-10
					C70.3,10.3,71.7,6.7,72.9,3.6z M72.4,25.3c-1.3,3-2.7,6.2-4.1,9.5c-1.5-3.3-2.9-6.4-4.1-9.5c1.5-3.5,2.9-6.9,4.1-10
					C69.6,18.4,70.9,21.8,72.4,25.3z M63.8,3.6c1.2,3.1,2.5,6.7,4.1,10.7c-1.2,3.1-2.6,6.5-4.1,10c-1.5-3.6-2.9-6.9-4.1-10
					C61.2,10.3,62.6,6.7,63.8,3.6z M63.3,25.3c-1.3,3-2.7,6.2-4.1,9.5c-1.5-3.3-2.9-6.4-4.1-9.5c1.5-3.5,2.9-6.9,4.1-10
					C60.5,18.4,61.8,21.8,63.3,25.3z M54.7,3.6c1.2,3.1,2.5,6.7,4.1,10.7c-1.2,3.1-2.6,6.5-4.1,10c-1.5-3.6-2.9-6.9-4.1-10
					C52.1,10.3,53.5,6.7,54.7,3.6z M54.2,25.3c-1.3,3-2.7,6.2-4.1,9.5c-1.5-3.3-2.9-6.4-4.1-9.5c1.5-3.5,2.9-6.9,4.1-10
					C51.3,18.4,52.7,21.8,54.2,25.3z M45.5,3.6c1.2,3.1,2.5,6.7,4.1,10.7c-1.2,3.1-2.6,6.5-4.1,10c-1.5-3.6-2.9-6.9-4.1-10
					C43,10.3,44.4,6.7,45.5,3.6z M45.1,25.3c-1.3,3.1-2.7,6.3-4.2,9.7c-1.5-3.3-2.9-6.4-4.1-9.4c1.5-3.6,3-7,4.2-10.2
					C42.2,18.4,43.6,21.8,45.1,25.3z M36.4,3.6c1.2,3.1,2.5,6.7,4.1,10.7c-1.3,3.2-2.7,6.6-4.2,10.3c-1.5-3.6-2.9-6.9-4.1-10
					C33.9,10.4,35.3,6.8,36.4,3.6z M35.9,25.5c-1.3,3-2.7,6.2-4.1,9.4c-1.5-3.3-2.9-6.4-4.1-9.4c1.5-3.5,2.9-6.9,4.1-10
					C33,18.7,34.4,22,35.9,25.5z M27.2,3.9c1.2,3.1,2.5,6.7,4.1,10.7c-1.2,3.1-2.6,6.5-4.1,10c-1.5-3.6-2.9-6.9-4.1-10
					C24.7,10.6,26.1,7,27.2,3.9z M26.8,25.5c-1.3,3-2.7,6.2-4.1,9.4c-1.5-3.3-2.9-6.4-4.1-9.4c1.5-3.5,2.9-6.9,4.1-10
					C23.9,18.7,25.3,22,26.8,25.5z M18.1,3.9c1.2,3.1,2.5,6.7,4.1,10.7c-1.2,3.1-2.6,6.5-4.1,10c-1.5-3.6-2.9-6.9-4.1-10
					C15.6,10.6,17,7,18.1,3.9z M13.6,15.6c1.2,3.1,2.6,6.4,4.1,10c-1.3,3-2.7,6.2-4.1,9.4c-1.5-3.3-2.9-6.4-4.1-9.4
					C11,22,12.3,18.7,13.6,15.6z M4.9,35.9c1.5-3.3,2.8-6.4,4.1-9.4c1.3,3,2.7,6.1,4.1,9.4c-1.3,2.9-2.7,5.9-4.1,9
					C7.6,41.8,6.2,38.8,4.9,35.9z M5.2,55.8c-0.1-0.2-0.2-0.4-0.3-0.6c1.4-2.9,2.8-5.7,4.1-8.5c1.3,2.8,2.7,5.6,4.1,8.5
					c-0.1,0.2-0.2,0.4-0.3,0.6c-1.2,2.4-2.5,4.9-3.8,7.5C7.7,60.7,6.4,58.2,5.2,55.8z M9.5,64.1c1.4-2.7,2.8-5.4,4.1-8
					c0,0,0-0.1,0-0.1c0,0,0,0.1,0,0.1c1.3,2.6,2.7,5.3,4.1,8c-1.3,2.5-2.7,5.1-4.1,7.7C12.1,69.2,10.8,66.6,9.5,64.1z M9.5,80.8
					c1.4-2.5,2.8-5,4.1-7.4c1.3,2.4,2.7,4.9,4.1,7.4c-1.3,2.3-2.7,4.7-4.1,7.1C12.2,85.5,10.8,83.2,9.5,80.8z M9.5,96.2
					c1.4-2.3,2.8-4.5,4.1-6.8c1.3,2.2,2.7,4.5,4.1,6.8c-1.3,2.2-2.7,4.3-4.1,6.5C12.2,100.5,10.8,98.3,9.5,96.2z M14,103.4
					c1.4-2.2,2.8-4.3,4.1-6.5c1.3,2.2,2.7,4.3,4.1,6.5c-1.3,2.1-2.7,4.2-4.1,6.2C16.7,107.5,15.4,105.5,14,103.4z M18.6,110.3
					c1.4-2.1,2.8-4.1,4.1-6.2c1.3,2.1,2.7,4.1,4.1,6.2c-1.3,2-2.7,4-4.1,6C21.3,114.3,19.9,112.3,18.6,110.3z M27.3,122.8
					c-1.4-1.9-2.8-3.9-4.2-5.8c1.4-2,2.7-4,4.1-6c1.4,2,2.8,4.1,4.2,6.1C30.1,119,28.7,120.9,27.3,122.8z M27.7,110.3
					c1.4-2.1,2.8-4.1,4.1-6.2c1.4,2.1,2.8,4.2,4.2,6.4c-1.3,2-2.7,4-4.1,6C30.5,114.4,29.1,112.4,27.7,110.3z M32.4,117.1
					c1.4-2,2.7-4,4.1-6c1.3,2,2.7,4,4.1,6c-1.3,1.9-2.7,3.8-4.1,5.7C35.1,120.9,33.7,119,32.4,117.1z M41,128.9
					c-1.4-1.8-2.7-3.6-4.1-5.5c1.4-1.9,2.7-3.8,4.1-5.7c1.3,1.9,2.7,3.8,4.1,5.7C43.7,125.3,42.4,127.1,41,128.9z M41.5,117.1
					c1.4-2,2.7-4,4.1-6c1.3,2,2.7,4,4.1,6c-1.3,1.9-2.7,3.8-4.1,5.7C44.2,120.9,42.8,119,41.5,117.1z M50.1,128.9
					c-1.4-1.8-2.7-3.6-4.1-5.5c1.4-1.9,2.7-3.8,4.1-5.7c1.3,1.9,2.7,3.8,4.1,5.7C52.8,125.3,51.5,127.1,50.1,128.9z M50.6,117.1
					c1.4-2,2.7-4,4.1-6c1.3,2,2.7,4,4.1,6c-1.3,1.9-2.7,3.8-4.1,5.7C53.3,120.9,51.9,119,50.6,117.1z M59.2,128.9
					c-1.4-1.8-2.7-3.6-4.1-5.5c1.4-1.9,2.7-3.8,4.1-5.7c1.3,1.9,2.7,3.8,4.1,5.7C61.9,125.3,60.6,127.1,59.2,128.9z M59.7,117.1
					c1.4-2,2.7-4,4.1-6c1.3,2,2.7,4,4.1,6c-1.3,1.9-2.7,3.8-4.1,5.7C62.4,120.9,61,119,59.7,117.1z M68.3,128.9
					c-1.4-1.8-2.7-3.6-4.1-5.5c1.4-1.9,2.7-3.8,4.1-5.7c1.3,1.9,2.7,3.8,4.1,5.7C71.1,125.3,69.7,127.1,68.3,128.9z M68.8,117.1
					c1.4-2,2.7-4,4.1-6c1.3,2,2.7,4,4.1,6c-1.3,1.9-2.7,3.8-4.1,5.7C71.5,120.9,70.1,119,68.8,117.1z M77.4,128.9
					c-1.4-1.8-2.7-3.6-4.1-5.5c1.4-1.9,2.7-3.8,4.1-5.7c1.3,1.9,2.7,3.8,4.1,5.7C80.2,125.3,78.8,127.1,77.4,128.9z M82,122.8
					c-1.4-1.9-2.7-3.8-4.1-5.7c1.4-2,2.7-4,4.1-6c1.3,2,2.7,4,4.1,6C84.7,119,83.4,120.9,82,122.8z M82.4,110.5
					c1.4-2.1,2.8-4.2,4.2-6.4c1.3,2.1,2.7,4.1,4.1,6.2c-1.4,2-2.8,4.1-4.2,6.1C85.1,114.4,83.8,112.5,82.4,110.5z M91.1,122.8
					c-1.4-1.9-2.7-3.8-4.1-5.7c1.4-2,2.8-4.1,4.2-6.1c1.3,2,2.7,4,4.1,6C93.9,118.9,92.5,120.9,91.1,122.8z M95.7,116.3
					c-1.4-2-2.8-4-4.1-6c1.4-2.1,2.8-4.1,4.1-6.2c1.3,2.1,2.7,4.1,4.1,6.2C98.5,112.3,97.1,114.3,95.7,116.3z M100.3,109.6
					c-1.4-2.1-2.8-4.2-4.1-6.2c1.4-2.2,2.8-4.3,4.1-6.5c1.3,2.2,2.7,4.3,4.1,6.5C103,105.5,101.7,107.5,100.3,109.6z M108.9,96.2
					c-1.3,2.2-2.7,4.3-4.1,6.5c-1.4-2.2-2.8-4.3-4.1-6.5c1.4-2.3,2.8-4.5,4.1-6.8C106.2,91.7,107.5,93.9,108.9,96.2z M108.9,80.8
					c-1.3,2.3-2.7,4.7-4.1,7.1c-1.4-2.4-2.8-4.8-4.1-7.1c1.4-2.5,2.8-5,4.1-7.4C106.2,75.9,107.5,78.3,108.9,80.8z M104.8,71.8
					c-1.4-2.6-2.8-5.2-4.1-7.7c1.4-2.7,2.8-5.4,4.1-8c0,0,0-0.1,0-0.1c0,0,0,0.1,0,0.1c1.3,2.6,2.7,5.3,4.1,8
					C107.6,66.6,106.3,69.2,104.8,71.8z M113.5,55.2c-0.1,0.2-0.2,0.4-0.3,0.6c-1.2,2.4-2.5,4.9-3.8,7.5c-1.3-2.6-2.6-5.1-3.8-7.5
					c-0.1-0.2-0.2-0.4-0.3-0.6c1.4-2.9,2.8-5.7,4.1-8.5C110.7,49.4,112.1,52.3,113.5,55.2z M109.4,44.9c-1.4-3.1-2.8-6.1-4.1-9
					c1.5-3.3,2.8-6.4,4.1-9.4c1.3,3,2.7,6.1,4.1,9.4C112.2,38.8,110.8,41.8,109.4,44.9z"/>
				<path class="st4" d="M103.4,128.2c0.1-0.3,0.2-0.6,0.2-1c-0.4-0.6-0.8-1.1-1.2-1.7c-0.3,0.1-0.5,0.2-0.8,0.2
					C102.2,126.6,102.8,127.4,103.4,128.2z"/>
				<path class="st4" d="M15.9,127c0.7-0.9,1.3-1.8,2-2.7c-0.2-0.1-0.5-0.2-0.7-0.3c-0.5,0.7-1,1.4-1.6,2.1
					C15.7,126.4,15.8,126.7,15.9,127z"/>
				<path class="st4" d="M109.1,122.3c-0.9-1.3-1.8-2.6-2.8-3.8c-0.1,0.3-0.1,0.7-0.2,1c0.7,1,1.5,2.1,2.2,3.1
					C108.6,122.5,108.9,122.4,109.1,122.3z"/>
			</g>
		</g>
		<path class="st6" d="M59.2,22.5c-15.6,0-30.3-1.1-41.3-3C6,17.4,0,14.6,0,11.3C0,7.9,6,5.1,17.9,3c11-1.9,25.7-3,41.3-3
			s30.3,1.1,41.3,3c11.9,2.1,17.9,4.9,17.9,8.2c0,3.4-6,6.2-17.9,8.2C89.5,21.4,74.8,22.5,59.2,22.5z M59.2,2.1
			c-35.4,0-57.1,5.3-57.1,9.2c0,3.8,21.7,9.2,57.1,9.2s57.1-5.3,57.1-9.2C116.3,7.4,94.6,2.1,59.2,2.1z"/>
	</g>
</g>
</svg>
