<?xml version="1.0" encoding="utf-8"?>
<!-- Generator: Adobe Illustrator 24.3.0, SVG Export Plug-In . SVG Version: 6.00 Build 0)  -->
<svg version="1.1" id="Layer_1" xmlns="http://www.w3.org/2000/svg" xmlns:xlink="http://www.w3.org/1999/xlink" x="0px" y="0px"
	 viewBox="0 0 334.4 199" style="enable-background:new 0 0 334.4 199;" xml:space="preserve">
<style type="text/css">
	.st0{opacity:0.6;fill:#C4C6C8;enable-background:new    ;}
	.st1{fill:none;}
	.st2{fill:#CFD1D2;}
	.st3{fill:#95979A;}
	.st4{fill:#A3A5A8;}
	.st5{clip-path:url(#SVGID_2_);}
	.st6{fill:#707376;}
	.st7{fill:#FFFFFF;stroke:#000000;stroke-width:2;stroke-linejoin:round;stroke-miterlimit:10;}
	.st8{fill:#FFFFFF;stroke:#FFFFFF;stroke-linecap:round;stroke-linejoin:round;stroke-miterlimit:10;}
</style>
<g>
	<path class="st0" d="M209.6,134.5c0,6.5-19.8,11.8-44.2,11.8s-44.2-5.3-44.2-11.8s19.8-11.8,44.2-11.8
		C189.8,122.6,209.6,127.9,209.6,134.5z"/>
	<g>
		<g>
			<path class="st1" d="M107.2,25.3c0,0,14.7,96.9,15.7,102.6c1,5.7,13.7,13,40.9,13c0.6,0,1.1,0,1.6,0s1.1,0,1.6,0
				c27.2,0,39.9-7.3,40.9-13c1-5.7,15.7-102.6,15.7-102.6S107.2,25.3,107.2,25.3z"/>
			<g>
				<path class="st2" d="M165.8,128.5c-18.3,0-33.9,1.8-39.5,4.2c4.1,3.4,9.6,4.9,14.7,6.1c2.1,0.5,4.3,1,6.4,1.4
					c5.6,0.4,11.8,0.6,18.4,0.6c2.5,0,4.8,0,7.2-0.1c2.5-0.2,5-0.3,7.5-0.5c3.4-0.3,6.7-1,10-1.9c4.9-1.3,10.3-2.7,14.3-5.9
					C198.7,130.1,183.6,128.5,165.8,128.5z"/>
				<path class="st3" d="M165.8,141.2c-6.5,0-12.7-0.2-18.4-0.6c-2.1-0.4-4.3-0.9-6.5-1.4c-4.7-1.2-10.6-2.7-14.8-6.2
					c-0.1-0.1-0.2-0.2-0.1-0.3c0-0.1,0.1-0.2,0.2-0.3c5.8-2.5,21.7-4.2,39.6-4.2c17.4,0,32.8,1.6,39.1,4c0.1,0,0.2,0.2,0.2,0.3
					s0,0.3-0.1,0.4c-4,3.2-9,4.6-14,5.9l-0.5,0.1c-3.6,1-6.9,1.6-10,1.9c-1.3,0.1-2.6,0.2-3.9,0.3c-1.2,0.1-2.4,0.1-3.6,0.2
					C170.6,141.2,168.2,141.2,165.8,141.2z M127.1,132.8c4.1,3.1,9.6,4.5,14,5.7c2.2,0.5,4.3,1,6.4,1.4c5.7,0.4,11.9,0.6,18.3,0.6
					c2.4,0,4.8,0,7.2-0.1c1.2-0.1,2.4-0.2,3.6-0.2c1.3-0.1,2.6-0.2,3.9-0.3c3.1-0.3,6.3-0.9,9.9-1.8l0.5-0.1
					c4.6-1.2,9.4-2.5,13.1-5.3c-6.5-2.2-21.6-3.7-38.1-3.7C148.6,128.9,133.3,130.4,127.1,132.8z"/>
			</g>
			<g>
				<g>
					<path class="st4" d="M223.4,24.7c-0.2,0.4-0.5,0.7-0.8,1h0.4c-1.2,8.2-14.6,96.6-15.6,102c-0.9,5-12.4,12.6-40.4,12.6
						c-0.5,0-1.1,0-1.7,0c-0.5,0-1.1,0-1.6,0c-28,0-39.5-7.5-40.4-12.6c-1-5.4-14.3-93.8-15.6-102h0.2c-0.4-0.3-0.8-0.6-1.1-1h-0.2
						l0.1,0.6c0.1,1,14.7,97,15.7,102.6c0.6,3.3,4.6,6.6,10.9,9c7.6,2.9,18.1,4.4,30.4,4.4c0.5,0,1.1,0,1.6,0s1.1,0,1.6,0
						c12.3,0,22.9-1.5,30.4-4.4c6.4-2.4,10.4-5.7,11-9c1-5.7,15.5-101.7,15.7-102.6l0.1-0.6C224.1,24.7,223.4,24.7,223.4,24.7z"/>
				</g>
				<g>
					<path class="st1" d="M223.6,25.3c0,5.6-26,10.2-58.2,10.2c-32.1,0-58.2-4.6-58.2-10.2c0-5.7,26.1-10.3,58.2-10.3
						S223.6,19.6,223.6,25.3z"/>
				</g>
			</g>
		</g>
		<g>
			<g>
				<defs>
					<path id="SVGID_1_" d="M223.6,25.3c0-5.6-26-10.2-58.2-10.2c-32.1-0.1-58.2,4.5-58.2,10.2c0,0.2,0,0.4,0.1,0.5
						c1.2,7.7,14.6,96.6,15.6,102.1c1,5.7,13.7,13,40.9,13c0.6,0,1.1,0,1.6,0s1.1,0,1.6,0c27.2,0,39.9-7.3,40.9-13
						c1-5.5,14.4-94.4,15.6-102.1C223.5,25.6,223.6,25.4,223.6,25.3z"/>
				</defs>
				<clipPath id="SVGID_2_">
					<use xlink:href="#SVGID_1_"  style="overflow:visible;"/>
				</clipPath>
				<g class="st5">
					<path class="st4" d="M225.5,36.7c-1.6,3.8-3.4,7.9-5.3,12.2c-1.5-3.3-2.9-6.4-4.1-9.4c3.8-9,6.8-16.7,9-22.5c0,0,0,0-0.1,0
						c-0.2-0.1-0.5-0.1-0.7-0.1c-2.1,5.6-5,13-8.7,21.7c-1.5-3.6-2.9-6.9-4.1-10c2.1-5.2,3.8-9.7,5.1-13.3c-0.3-0.1-0.5-0.1-0.8-0.2
						c-1.3,3.4-2.8,7.6-4.8,12.4c-1.6-4.1-3-7.7-4.1-10.7c0.4-1.1,0.8-2.2,1.2-3.1c-0.3,0-0.5-0.1-0.8-0.1c-0.2,0.7-0.5,1.4-0.8,2.2
						c-0.3-1-0.6-1.8-0.9-2.5c-0.3,0-0.6-0.1-0.9-0.1c0.4,1.1,0.9,2.3,1.3,3.7c-1.1,3.1-2.5,6.7-4.1,10.7c-1.6-4.1-3-7.7-4.1-10.7
						c0.6-1.6,1.1-3.1,1.6-4.4c-0.3,0-0.5-0.1-0.8-0.1c-0.4,1-0.8,2.1-1.2,3.3c-0.5-1.3-0.9-2.5-1.3-3.6c-0.3,0-0.6-0.1-0.9-0.1
						c0.5,1.4,1.1,3,1.7,4.8c-1.1,3.1-2.5,6.7-4.1,10.7c-1.7-4.2-3.1-7.9-4.2-11c0.7-1.9,1.3-3.5,1.8-4.9c-0.3,0-0.5,0-0.8-0.1
						c-0.4,1.2-0.9,2.5-1.4,3.9c-0.6-1.5-1-2.9-1.5-4c-0.3,0-0.6,0-0.8,0c0.5,1.5,1.2,3.2,1.9,5.2c-1.1,3.1-2.5,6.7-4.1,10.7
						c-1.6-4.1-3-7.7-4.1-10.7c0.8-2.1,1.4-3.9,2-5.4c-0.3,0-0.5,0-0.8,0c-0.4,1.3-1,2.7-1.6,4.3c-0.6-1.7-1.1-3.1-1.6-4.4
						c-0.3,0-0.5,0-0.8,0c0.6,1.6,1.2,3.4,2,5.6c-1.1,3.1-2.5,6.7-4.1,10.7c-1.6-4.1-3-7.7-4.1-10.7c0.8-2.2,1.5-4.1,2-5.6
						c-0.3,0-0.5,0-0.8,0c-0.5,1.3-1,2.8-1.6,4.5c-0.6-1.7-1.2-3.3-1.7-4.6c-0.3,0-0.5,0-0.8,0c0.6,1.6,1.3,3.5,2.1,5.7
						c-1.1,3.1-2.5,6.7-4.1,10.7c-1.6-4.1-3-7.7-4.1-10.7c0.8-2.2,1.5-4.1,2.1-5.7c-0.3,0-0.5,0-0.8,0c-0.5,1.3-1,2.9-1.7,4.6
						c-1-1.9-1.6-3.5-2-4.8c-0.3,0-0.5,0-0.8,0c0.6,1.6,1.3,3.6,2.1,5.8c-1.1,3.1-2.5,6.7-4.1,10.7c-1.6-4.1-3-7.7-4.1-10.7
						c0.8-2.3,1.6-4.2,2.1-5.9c-0.3,0-0.5,0-0.8,0c-0.5,1.4-1.1,2.9-1.7,4.8c-0.7-1.8-1.2-3.4-1.7-4.8c-0.3,0-0.5,0-0.8,0
						c0.6,1.6,1.3,3.6,2.1,5.9c-1.3,3-2.7,6.6-4.3,10.7c-1.6-4.1-3-7.7-4.1-10.7c0.8-2.3,1.6-4.2,2.1-5.9c-0.3,0-0.5,0-0.8,0
						c-0.5,1.4-1.1,2.9-1.7,4.7c-0.7-1.8-1.2-3.3-1.7-4.7c-0.3,0-0.5,0-0.8,0c0.6,1.6,1.3,3.5,2.1,5.8c-1.2,3.1-2.6,6.8-4.2,11
						c-1.6-4.1-3-7.7-4.1-10.7c0.8-2.3,1.5-4.2,2.1-5.8c-0.3,0-0.6,0-0.8,0c-0.5,1.4-1,2.9-1.7,4.7c-0.6-1.7-1.2-3.2-1.6-4.5
						c-0.3,0-0.5,0-0.8,0.1c0.6,1.6,1.2,3.4,2,5.5c-1.1,3.1-2.5,6.7-4.1,10.7c-1.6-4.1-3-7.7-4.1-10.7c0.7-1.9,1.3-3.6,1.9-5.1
						c-0.3,0-0.6,0.1-0.9,0.1c-0.4,1.2-0.9,2.5-1.4,3.9c-0.5-1.3-0.9-2.5-1.3-3.5c-0.3,0-0.5,0.1-0.8,0.1c0.5,1.3,1,2.8,1.7,4.5
						c-1.1,3.1-2.5,6.7-4.1,10.7c-2.5-5.5-4.3-10.1-5.6-13.7c-0.2,0-0.5,0.1-0.7,0.2c1.4,3.8,3.3,8.8,5.6,14.6
						c-1.2,3.1-2.6,6.5-4.1,10c-3.8-9-6.8-16.6-8.9-22.3c-0.2,0.1-0.5,0.2-0.7,0.3c2.2,5.8,5.2,13.7,9.2,23c-1.3,3-2.7,6.2-4.1,9.4
						c-2.2-4.9-4.2-9.5-5.9-13.7c0,0.8,0.1,1.5,0.1,2.3c1.6,3.9,3.4,8,5.4,12.3c-1.1,2.4-2.3,5-3.5,7.5c0.1,0.5,0.1,0.9,0.2,1.4
						c1.3-2.7,2.5-5.4,3.7-8c1.3,2.9,2.7,5.9,4.1,8.9c-1.3,2.8-2.7,5.6-4.1,8.5c-1.2-2.3-2.3-4.6-3.4-6.9c0.1,0.8,0.2,1.7,0.4,2.5
						c0.8,1.7,1.7,3.5,2.6,5.3c-0.1,0.2-0.2,0.4-0.3,0.6c-0.3,0.7-0.7,1.4-1.1,2.1c0.1,0.4,0.1,0.9,0.2,1.3c0.5-1,1.1-2.1,1.6-3.1
						v-0.1V70c1.3,2.6,2.7,5.3,4.1,8c-1.2,2.4-2.5,4.8-3.9,7.3c0.1,0.4,0.1,0.8,0.2,1.3c1.3-2.6,2.7-5.2,4-7.7
						c1.3,2.5,2.7,5.1,4.1,7.7c-1.3,2.4-2.7,4.9-4.1,7.4c-1.4-2.5-2.8-5-4.1-7.4c0.1,0.7,0.2,1.4,0.3,2.2c1.1,2,2.2,4,3.3,6
						c-0.6,1.1-1.3,2.3-2,3.4c0.1,0.4,0.1,0.8,0.2,1.2c0.7-1.3,1.5-2.6,2.2-3.8c1.3,2.3,2.7,4.7,4.1,7.1c-1.3,2.2-2.7,4.5-4.1,6.8
						c-0.3-0.5-0.6-0.9-0.8-1.4c0.1,0.7,0.2,1.4,0.4,2c0,0,0,0,0,0.1l0,0c0.1,0.4,0.1,0.8,0.2,1.1c0.1-0.1,0.2-0.3,0.3-0.4
						c1.3,2.2,2.7,4.3,4.1,6.5c-0.8,1.3-1.6,2.5-2.5,3.8c0.1,0.4,0.1,0.7,0.2,1.1c0.9-1.4,1.8-2.8,2.7-4.1c1.3,2.1,2.7,4.1,4.1,6.2
						c-1.5,2.3-3.1,4.5-4.7,6.8c0.1,0.3,0.2,0.6,0.3,1c1.7-2.4,3.3-4.7,4.9-7.1c1.3,2,2.7,4,4.1,6c-1.5,2.1-3,4.3-4.6,6.4
						c0.2,0.1,0.5,0.2,0.7,0.3c1.5-2,2.9-4.1,4.4-6.1c1.4,1.9,2.8,3.9,4.2,5.8c-0.7,0.9-1.4,1.9-2.1,2.8c0.3,0.1,0.5,0.2,0.8,0.2
						c0.6-0.8,1.2-1.6,1.8-2.4c0.9,1.2,1.8,2.4,2.7,3.6c0.4,0.1,0.8,0.2,1.1,0.3c-1.1-1.5-2.3-3-3.4-4.5c1.4-1.9,2.7-3.8,4.1-5.7
						c1.3,1.9,2.7,3.8,4.1,5.7c-1.2,1.6-2.4,3.2-3.6,4.8c0.3,0.1,0.5,0.1,0.8,0.2c1.1-1.4,2.2-2.9,3.2-4.3c1.3,1.8,2.7,3.6,4.1,5.4
						c0.4,0,0.7,0.1,1.1,0.1l-0.1-0.1c1.4-1.8,2.7-3.6,4.1-5.5c1.3,1.8,2.7,3.6,4.1,5.5c-0.2,0.2-0.4,0.5-0.5,0.7c0.3,0,0.6,0,0.9,0
						l0.1-0.1l0.1,0.1c0.3,0,0.7,0,1,0c-0.2-0.3-0.4-0.5-0.6-0.8c1.4-1.8,2.7-3.6,4.1-5.5c1.3,1.8,2.7,3.6,4.1,5.5
						c-0.2,0.3-0.5,0.6-0.7,0.9c0.3,0,0.6,0,1,0c0.1-0.1,0.2-0.2,0.2-0.3c0.1,0.1,0.2,0.2,0.3,0.3c0.1,0,0.2,0,0.3,0
						c0.2,0,0.4,0,0.6,0c-0.2-0.3-0.5-0.6-0.7-1c1.4-1.8,2.7-3.6,4.1-5.5c1.3,1.8,2.7,3.6,4.1,5.5c-0.2,0.3-0.4,0.6-0.7,0.9
						c0.3,0,0.7,0,1,0c0-0.1,0.1-0.1,0.1-0.2c0,0.1,0.1,0.1,0.1,0.2c0.3,0,0.6,0,0.9,0c-0.2-0.3-0.4-0.5-0.6-0.8
						c1.4-1.8,2.7-3.6,4.1-5.5c1.3,1.8,2.7,3.6,4.1,5.5c-0.1,0.1-0.1,0.2-0.2,0.3c0.4,0,0.9-0.1,1.3-0.1c0-0.1-0.1-0.1-0.1-0.2
						c1.4-1.8,2.7-3.6,4.1-5.5c1.1,1.6,2.3,3.1,3.5,4.7c0.3,0,0.6-0.1,0.8-0.1c-1.3-1.7-2.6-3.5-3.9-5.2c1.4-1.9,2.7-3.8,4.1-5.7
						c1.3,1.9,2.7,3.8,4.1,5.7c-1.2,1.7-2.5,3.4-3.8,5.1c0.4-0.1,0.7-0.1,1.1-0.2c1.1-1.4,2.1-2.8,3.2-4.3c0.8,1.1,1.6,2.1,2.3,3.2
						c0.3-0.1,0.6-0.1,0.8-0.2c-0.9-1.2-1.8-2.4-2.7-3.6c1.4-1.9,2.8-3.9,4.2-5.8c1.8,2.5,3.6,5,5.5,7.6c0.3-0.1,0.5-0.2,0.8-0.2
						c-2-2.7-3.9-5.3-5.8-8c1.4-2,2.7-4,4.1-6c1.7,2.5,3.5,5.1,5.3,7.6c0.1-0.3,0.1-0.7,0.2-1c-1.7-2.4-3.4-4.8-5-7.3
						c1.4-2.1,2.8-4.1,4.1-6.2c0.8,1.3,1.7,2.6,2.6,3.9c0.1-0.4,0.1-0.8,0.2-1.1c-0.8-1.2-1.5-2.3-2.3-3.5c1.2-1.9,2.4-3.8,3.6-5.6
						c0.1-0.9,0.2-1.8,0.3-2.6c-1.3-2.2-2.6-4.3-3.9-6.5c1.4-2.4,2.8-4.7,4.1-7.1c0.4,0.7,0.8,1.4,1.2,2.1c0.1-0.4,0.1-0.9,0.2-1.3
						c-0.3-0.5-0.6-1-0.9-1.6c0.5-0.8,0.9-1.6,1.4-2.4c0.1-0.7,0.2-1.3,0.2-2c-0.7,1.2-1.4,2.4-2,3.6c-1.4-2.5-2.8-5-4.1-7.4
						c1.4-2.6,2.8-5.2,4.1-7.7c0.9,1.7,1.9,3.5,2.8,5.3c0.1-0.4,0.1-0.9,0.2-1.3c-0.9-1.6-1.7-3.2-2.6-4.8c1.4-2.7,2.8-5.4,4.1-8V70
						v0.1c0.1,0.2,0.2,0.3,0.2,0.5c0.1-0.4,0.1-0.9,0.2-1.3c0,0,0-0.1-0.1-0.1c0-0.1,0.1-0.2,0.1-0.3c0.1-0.9,0.3-1.7,0.4-2.6
						c-0.3,0.7-0.6,1.3-1,2c-1.4-2.9-2.8-5.7-4.1-8.5c1.4-3.1,2.8-6,4.1-8.9c0.8,1.8,1.7,3.6,2.5,5.5c0.1-0.5,0.1-0.9,0.2-1.4
						c-0.8-1.7-1.6-3.4-2.3-5.1c1.6-3.5,3.1-6.9,4.4-10.1C225.1,38.8,225.3,37.8,225.5,36.7z M215.2,39.5c-1.3,3-2.7,6.2-4.1,9.4
						c-1.5-3.3-2.9-6.4-4.1-9.4c1.5-3.5,2.9-6.9,4.1-10C212.3,32.7,213.7,36,215.2,39.5z M206.1,59.8c-1.3,2.8-2.7,5.6-4.1,8.5
						c-1.4-2.9-2.8-5.7-4.1-8.5c1.4-3.1,2.8-6,4.1-8.9C203.2,53.7,204.6,56.7,206.1,59.8z M202.3,49.9c1.5-3.3,2.8-6.4,4.1-9.4
						c1.3,3,2.7,6.1,4.1,9.4c-1.3,2.9-2.7,5.9-4.1,9C205,55.8,203.7,52.8,202.3,49.9z M193.6,69.8c-0.1-0.2-0.2-0.4-0.3-0.6
						c1.4-2.9,2.8-5.7,4.1-8.5c1.3,2.8,2.7,5.6,4.1,8.5c-0.1,0.2-0.2,0.4-0.3,0.6c-1.2,2.4-2.5,4.9-3.8,7.5
						C196,74.7,194.8,72.2,193.6,69.8z M201.5,86.7c-1.3,2.4-2.7,4.9-4.1,7.4c-1.4-2.5-2.8-5-4.1-7.4c1.4-2.6,2.8-5.2,4.1-7.7
						C198.7,81.5,200.1,84,201.5,86.7z M196.9,78.1c-1.3,2.5-2.7,5.1-4.1,7.7c-1.4-2.6-2.8-5.2-4.1-7.7c1.4-2.7,2.8-5.4,4.1-8V70
						v0.1C194.2,72.7,195.5,75.4,196.9,78.1z M147.1,87.4c1.3,2.4,2.7,4.9,4.1,7.4c-1.3,2.3-2.7,4.7-4.1,7.1
						c-1.4-2.4-2.8-4.8-4.1-7.1C144.4,92.3,145.8,89.9,147.1,87.4z M142.5,94.1c-1.4-2.5-2.8-5-4.1-7.4c1.4-2.6,2.8-5.2,4.1-7.7
						c1.3,2.5,2.7,5.1,4.1,7.7C145.3,89.1,144,91.6,142.5,94.1z M147.5,86.7c1.4-2.6,2.8-5.2,4.1-7.7c1.3,2.5,2.7,5.1,4.1,7.7
						c-1.3,2.4-2.7,4.9-4.1,7.4C150.2,91.6,148.9,89.1,147.5,86.7z M156.2,87.4c1.4,2.5,2.8,5,4.2,7.5c-1.3,2.3-2.7,4.7-4.1,7.1
						c-1.4-2.4-2.8-4.9-4.2-7.2C153.5,92.3,154.9,89.9,156.2,87.4z M156.6,86.7c1.4-2.6,2.8-5.2,4.1-7.7c1.3,2.6,2.7,5.2,4.2,7.9
						c-1.3,2.4-2.7,4.9-4.1,7.4C159.4,91.7,158,89.1,156.6,86.7z M165.4,87.6c1.3,2.4,2.7,4.9,4.1,7.4c-1.3,2.3-2.7,4.7-4.1,7.1
						c-1.4-2.4-2.8-4.7-4.1-7.1C162.7,92.5,164.1,90,165.4,87.6z M165.8,86.8c1.5-2.7,2.9-5.3,4.2-7.9c1.3,2.5,2.7,5.1,4.1,7.7
						c-1.4,2.5-2.8,5-4.2,7.6C168.5,91.7,167.2,89.3,165.8,86.8z M174.6,87.4c1.3,2.4,2.7,4.9,4.1,7.4c-1.4,2.4-2.8,4.8-4.2,7.2
						c-1.4-2.4-2.8-4.7-4.1-7.1C171.9,92.4,173.3,89.9,174.6,87.4z M175,86.7c1.4-2.6,2.8-5.2,4.1-7.7c1.3,2.5,2.7,5.1,4.1,7.7
						c-1.3,2.4-2.7,4.9-4.1,7.4C177.7,91.6,176.4,89.1,175,86.7z M183.7,87.4c1.3,2.4,2.7,4.9,4.1,7.4c-1.3,2.3-2.7,4.7-4.1,7.1
						c-1.4-2.4-2.8-4.8-4.1-7.1C181,92.3,182.4,89.9,183.7,87.4z M184.1,86.7c1.4-2.6,2.8-5.2,4.1-7.7c1.3,2.5,2.7,5.1,4.1,7.7
						c-1.3,2.4-2.7,4.9-4.1,7.4C186.8,91.6,185.5,89.1,184.1,86.7z M192.1,69.8c-1.2,2.4-2.5,4.9-3.8,7.5c-1.3-2.6-2.6-5.1-3.8-7.5
						c-0.1-0.2-0.2-0.4-0.3-0.6c1.4-2.9,2.8-5.7,4.1-8.5c1.3,2.8,2.7,5.6,4.1,8.5C192.3,69.4,192.2,69.6,192.1,69.8z M187.8,78.1
						c-1.3,2.5-2.7,5.1-4.1,7.8c-1.4-2.6-2.8-5.2-4.1-7.8c1.4-2.7,2.8-5.4,4.1-8V70v0.1C185,72.7,186.4,75.4,187.8,78.1z M183,69.8
						c-1.2,2.4-2.5,4.9-3.8,7.5c-1.3-2.6-2.6-5.1-3.8-7.5c-0.1-0.2-0.2-0.4-0.3-0.6c1.4-2.9,2.8-5.7,4.1-8.5
						c1.3,2.8,2.7,5.6,4.1,8.5C183.2,69.4,183.1,69.6,183,69.8z M178.7,78.1c-1.3,2.5-2.7,5.1-4.1,7.7c-1.4-2.6-2.8-5.2-4.1-7.7
						c1.4-2.7,2.8-5.4,4.1-8V70v0.1C175.9,72.7,177.3,75.4,178.7,78.1z M173.9,69.8c-1.2,2.4-2.5,4.9-3.8,7.5
						c-1.3-2.6-2.6-5.1-3.8-7.5c-0.1-0.3-0.3-0.5-0.4-0.8c1.4-2.9,2.8-5.7,4.1-8.5c1.3,2.8,2.8,5.7,4.2,8.7
						C174.1,69.4,174,69.6,173.9,69.8z M169.6,78.1c-1.3,2.6-2.7,5.2-4.2,7.9c-1.5-2.7-2.9-5.3-4.2-7.9c1.4-2.7,2.8-5.4,4.1-8
						c0-0.1,0.1-0.2,0.1-0.3c0,0.1,0.1,0.2,0.1,0.3C166.8,72.7,168.2,75.4,169.6,78.1z M164.6,69.8c-1.2,2.4-2.5,4.9-3.8,7.5
						c-1.3-2.6-2.6-5.1-3.8-7.5c-0.1-0.2-0.2-0.4-0.3-0.6c1.5-3,2.9-5.9,4.2-8.7c1.3,2.8,2.7,5.6,4.1,8.5
						C164.8,69.2,164.7,69.5,164.6,69.8z M160.3,78.1c-1.3,2.5-2.7,5.1-4.1,7.7c-1.4-2.6-2.8-5.2-4.1-7.7c1.4-2.7,2.8-5.4,4.1-8V70
						v0.1C157.5,72.7,158.9,75.4,160.3,78.1z M155.5,69.8c-1.2,2.4-2.5,4.9-3.8,7.5c-1.3-2.6-2.6-5.1-3.8-7.5
						c-0.1-0.2-0.2-0.4-0.3-0.6c1.4-2.9,2.8-5.7,4.1-8.5c1.3,2.8,2.7,5.6,4.1,8.5C155.7,69.4,155.6,69.6,155.5,69.8z M151.2,78.1
						c-1.3,2.5-2.7,5.1-4.1,7.8c-1.4-2.6-2.8-5.2-4.1-7.8c1.4-2.7,2.8-5.4,4.1-8V70v0.1C148.4,72.7,149.8,75.4,151.2,78.1z
						 M146.4,69.8c-1.2,2.4-2.5,4.9-3.8,7.5c-1.3-2.6-2.6-5.1-3.8-7.5c-0.1-0.2-0.2-0.4-0.3-0.6c1.4-2.9,2.8-5.7,4.1-8.5
						c1.3,2.8,2.7,5.6,4.1,8.5C146.6,69.4,146.5,69.6,146.4,69.8z M142.1,78.1c-1.3,2.5-2.7,5.1-4.1,7.7c-1.4-2.6-2.8-5.2-4.1-7.7
						c1.4-2.7,2.8-5.4,4.1-8V70v0.1C139.3,72.7,140.7,75.4,142.1,78.1z M137.6,86.7c-1.3,2.4-2.7,4.9-4.1,7.4
						c-1.4-2.5-2.8-5-4.1-7.4c1.4-2.6,2.8-5.2,4.1-7.7C134.8,81.5,136.1,84,137.6,86.7z M137.3,69.8c-1.2,2.4-2.5,4.9-3.8,7.5
						c-1.3-2.6-2.6-5.1-3.8-7.5c-0.1-0.2-0.2-0.4-0.3-0.6c1.4-2.9,2.8-5.7,4.1-8.5c1.3,2.8,2.7,5.6,4.1,8.5
						C137.5,69.4,137.4,69.6,137.3,69.8z M133,78.1c-1.3,2.5-2.7,5.1-4.1,7.8c-1.4-2.6-2.8-5.2-4.1-7.8c1.4-2.7,2.8-5.4,4.1-8V70
						v0.1C130.2,72.7,131.6,75.4,133,78.1z M133,94.8c-1.3,2.3-2.7,4.7-4.1,7.1c-1.4-2.4-2.8-4.8-4.1-7.1c1.4-2.5,2.8-5,4.1-7.4
						C130.2,89.9,131.6,92.3,133,94.8z M133.4,95.6c1.3,2.3,2.7,4.7,4.1,7.1c-1.3,2.2-2.7,4.5-4.1,6.8c-1.4-2.3-2.8-4.5-4.1-6.8
						C130.7,100.3,132.1,97.9,133.4,95.6z M133.9,94.8c1.4-2.5,2.8-5,4.1-7.4c1.3,2.4,2.7,4.9,4.1,7.4c-1.3,2.3-2.7,4.7-4.1,7.1
						C136.6,99.5,135.2,97.2,133.9,94.8z M142.5,95.6c1.3,2.3,2.7,4.7,4.1,7.1c-1.3,2.2-2.7,4.5-4.1,6.8c-1.4-2.3-2.8-4.5-4.1-6.8
						C139.8,100.3,141.2,97.9,142.5,95.6z M147.1,103.4c1.4,2.3,2.8,4.6,4.2,6.9c-1.3,2.2-2.7,4.3-4.1,6.5c-1.4-2.2-2.8-4.4-4.2-6.7
						C144.4,107.9,145.8,105.7,147.1,103.4z M147.5,102.7c1.4-2.4,2.8-4.7,4.1-7.1c1.4,2.4,2.8,4.8,4.2,7.2
						c-1.3,2.2-2.7,4.5-4.1,6.8C150.3,107.3,148.9,105,147.5,102.7z M156.3,103.6c1.3,2.2,2.7,4.5,4.1,6.8c-1.3,2.2-2.7,4.3-4.1,6.5
						c-1.4-2.2-2.8-4.3-4.1-6.5C153.6,108.1,155,105.8,156.3,103.6z M156.7,102.8c1.4-2.4,2.8-4.7,4.1-7.1c1.3,2.3,2.7,4.7,4.1,7.1
						c-1.3,2.2-2.7,4.5-4.1,6.8C159.4,107.3,158.1,105.1,156.7,102.8z M165.4,103.6c1.3,2.2,2.7,4.5,4.1,6.8
						c-1.3,2.2-2.7,4.3-4.1,6.5c-1.4-2.2-2.8-4.3-4.1-6.5C162.7,108.1,164.1,105.8,165.4,103.6z M165.9,102.8
						c1.4-2.4,2.8-4.7,4.1-7.1c1.3,2.3,2.7,4.7,4.1,7.1c-1.3,2.2-2.7,4.5-4.1,6.8C168.6,107.3,167.2,105.1,165.9,102.8z
						 M174.5,103.6c1.3,2.2,2.7,4.5,4.1,6.8c-1.3,2.2-2.7,4.3-4.1,6.5c-1.4-2.2-2.8-4.3-4.1-6.5
						C171.8,108.1,173.2,105.8,174.5,103.6z M175,102.8c1.4-2.4,2.8-4.8,4.2-7.2c1.3,2.3,2.7,4.7,4.1,7.1c-1.4,2.3-2.8,4.6-4.2,6.9
						C177.7,107.3,176.3,105.1,175,102.8z M183.7,103.4c1.3,2.2,2.7,4.5,4.1,6.8c-1.4,2.2-2.8,4.4-4.2,6.7c-1.4-2.2-2.8-4.3-4.1-6.5
						C181,108,182.4,105.7,183.7,103.4z M184.2,102.7c1.4-2.4,2.8-4.7,4.1-7.1c1.3,2.3,2.7,4.7,4.1,7.1c-1.3,2.2-2.7,4.5-4.1,6.8
						C186.9,107.2,185.5,104.9,184.2,102.7z M188.7,94.8c1.4-2.5,2.8-5,4.1-7.4c1.3,2.4,2.7,4.9,4.1,7.4c-1.3,2.3-2.7,4.7-4.1,7.1
						C191.4,99.5,190,97.2,188.7,94.8z M197.4,95.6c1.3,2.3,2.7,4.7,4.1,7.1c-1.3,2.2-2.7,4.5-4.1,6.8c-1.4-2.3-2.8-4.5-4.1-6.8
						C194.7,100.3,196,97.9,197.4,95.6z M197.8,94.8c1.4-2.5,2.8-5,4.1-7.4c1.3,2.4,2.7,4.9,4.1,7.4c-1.3,2.3-2.7,4.7-4.1,7.1
						C200.5,99.5,199.1,97.2,197.8,94.8z M197.8,78.1c1.4-2.7,2.8-5.4,4.1-8V70v0.1c1.3,2.6,2.7,5.3,4.1,8c-1.3,2.5-2.7,5.1-4.1,7.8
						C200.5,83.2,199.1,80.6,197.8,78.1z M197.4,58.9c-1.4-3.1-2.8-6.1-4.1-9c1.5-3.3,2.8-6.4,4.1-9.4c1.3,3,2.7,6.1,4.1,9.4
						C200.2,52.8,198.8,55.8,197.4,58.9z M196.9,59.8c-1.3,2.8-2.7,5.6-4.1,8.5c-1.4-2.9-2.8-5.7-4.1-8.5c1.4-3.1,2.8-6,4.1-8.9
						C194.1,53.7,195.5,56.7,196.9,59.8z M188.3,58.9c-1.4-3.1-2.8-6.1-4.1-9c1.5-3.3,2.8-6.4,4.1-9.4c1.3,3,2.7,6.1,4.1,9.4
						C191.1,52.8,189.7,55.8,188.3,58.9z M187.8,59.8c-1.3,2.8-2.7,5.6-4.1,8.5c-1.4-2.9-2.8-5.7-4.1-8.5c1.4-3.1,2.8-6,4.1-8.9
						C185,53.7,186.4,56.7,187.8,59.8z M179.2,58.9c-1.5-3.1-2.9-6.2-4.2-9.2c1.5-3.3,2.8-6.4,4.1-9.4c1.3,3.1,2.7,6.3,4.2,9.6
						C182,52.8,180.6,55.8,179.2,58.9z M178.7,59.8c-1.3,2.8-2.7,5.6-4.1,8.5c-1.5-3-2.9-5.9-4.2-8.7c1.4-3.1,2.8-6,4.1-8.9
						C175.8,53.6,177.3,56.6,178.7,59.8z M170,58.7c-1.4-3.1-2.8-6.1-4.1-9c1.5-3.3,2.8-6.4,4.1-9.4c1.3,3,2.7,6.1,4.1,9.4
						C172.8,52.6,171.4,55.6,170,58.7z M169.5,59.6c-1.3,2.8-2.7,5.6-4.1,8.5c-1.4-2.9-2.8-5.7-4.1-8.5c1.4-3.1,2.8-6,4.1-8.9
						C166.7,53.5,168.1,56.5,169.5,59.6z M160.9,58.7c-1.4-3.1-2.8-6.1-4.1-9c1.5-3.3,2.8-6.4,4.1-9.4c1.3,3,2.7,6.1,4.1,9.4
						C163.7,52.6,162.3,55.6,160.9,58.7z M160.4,59.6c-1.3,2.8-2.8,5.8-4.2,8.7c-1.4-2.9-2.8-5.7-4.1-8.5c1.5-3.1,2.9-6.2,4.2-9.1
						C157.6,53.5,159,56.5,160.4,59.6z M151.7,58.9c-1.4-3.1-2.8-6.1-4.1-9c1.5-3.3,2.9-6.6,4.2-9.6c1.3,3,2.7,6.1,4.1,9.4
						C154.5,52.7,153.1,55.7,151.7,58.9z M151.2,59.8c-1.3,2.8-2.7,5.6-4.1,8.5c-1.4-2.9-2.8-5.7-4.1-8.5c1.4-3.1,2.8-6,4.1-8.9
						C148.4,53.7,149.8,56.7,151.2,59.8z M142.5,58.9c-1.4-3.1-2.8-6.1-4.1-9c1.5-3.3,2.8-6.4,4.1-9.4c1.3,3,2.7,6.1,4.1,9.4
						C145.4,52.8,144,55.8,142.5,58.9z M142.1,59.8c-1.3,2.8-2.7,5.6-4.1,8.5c-1.4-2.9-2.8-5.7-4.1-8.5c1.4-3.1,2.8-6,4.1-8.9
						C139.3,53.7,140.7,56.7,142.1,59.8z M133.4,58.9c-1.4-3.1-2.8-6.1-4.1-9c1.5-3.3,2.8-6.4,4.1-9.4c1.3,3,2.7,6.1,4.1,9.4
						C136.3,52.8,134.9,55.8,133.4,58.9z M133,59.8c-1.3,2.8-2.7,5.6-4.1,8.5c-1.4-2.9-2.8-5.7-4.1-8.5c1.4-3.1,2.8-6,4.1-8.9
						C130.2,53.7,131.6,56.7,133,59.8z M124.3,58.9c-1.4-3.1-2.8-6.1-4.1-9c1.5-3.3,2.8-6.4,4.1-9.4c1.3,3,2.7,6.1,4.1,9.4
						C127.2,52.8,125.8,55.8,124.3,58.9z M123.9,59.8c-1.3,2.8-2.7,5.6-4.1,8.5c-1.4-2.9-2.8-5.7-4.1-8.5c1.4-3.1,2.8-6,4.1-8.9
						C121.1,53.7,122.5,56.7,123.9,59.8z M124.3,60.7c1.3,2.8,2.7,5.6,4.1,8.5c-0.1,0.2-0.2,0.4-0.3,0.6c-1.2,2.4-2.5,4.9-3.8,7.5
						c-1.3-2.6-2.6-5.1-3.8-7.5c-0.1-0.2-0.2-0.4-0.3-0.6C121.6,66.3,123,63.4,124.3,60.7z M128.4,86.7c-1.3,2.4-2.7,4.9-4.1,7.4
						c-1.4-2.5-2.8-5-4.1-7.4c1.4-2.6,2.8-5.2,4.1-7.7C125.7,81.5,127,84,128.4,86.7z M128.4,102.7c-1.3,2.2-2.7,4.5-4.1,6.8
						c-1.4-2.3-2.8-4.5-4.1-6.8c1.4-2.4,2.8-4.7,4.1-7.1C125.7,97.9,127,100.3,128.4,102.7z M128.9,103.4c1.3,2.2,2.7,4.5,4.1,6.8
						c-1.3,2.2-2.7,4.3-4.1,6.5c-1.4-2.2-2.8-4.3-4.1-6.5C126.2,107.9,127.6,105.7,128.9,103.4z M133.4,110.9
						c1.3,2.2,2.7,4.3,4.1,6.5c-1.3,2.1-2.7,4.2-4.1,6.2c-1.4-2.1-2.8-4.2-4.1-6.2C130.7,115.2,132.1,113.1,133.4,110.9z
						 M133.9,110.2c1.4-2.3,2.8-4.5,4.1-6.8c1.3,2.2,2.7,4.5,4.1,6.8c-1.3,2.2-2.7,4.3-4.1,6.5C136.6,114.5,135.2,112.3,133.9,110.2
						z M142.5,110.9c1.4,2.2,2.8,4.4,4.2,6.6c-1.3,2.1-2.7,4.1-4.1,6.2c-1.4-2.1-2.8-4.3-4.2-6.4
						C139.8,115.2,141.2,113.1,142.5,110.9z M147.2,118.3c1.3,2.1,2.7,4.1,4.1,6.2c-1.3,2-2.7,4-4.1,6c-1.4-2-2.8-4-4.1-6
						C144.5,122.4,145.9,120.3,147.2,118.3z M147.6,117.5c1.4-2.2,2.8-4.3,4.1-6.5c1.3,2.1,2.7,4.3,4.1,6.5
						c-1.3,2.1-2.7,4.1-4.1,6.2C150.4,121.7,149,119.6,147.6,117.5z M156.3,118.3c1.3,2.1,2.7,4.1,4.1,6.2c-1.3,2-2.7,4-4.1,6
						c-1.4-2-2.8-4-4.1-6C153.6,122.4,155,120.3,156.3,118.3z M156.8,117.5c1.4-2.2,2.8-4.3,4.1-6.5c1.3,2.1,2.7,4.3,4.1,6.5
						c-1.3,2.1-2.7,4.1-4.1,6.2C159.5,121.7,158.1,119.6,156.8,117.5z M165.4,118.3c1.3,2.1,2.7,4.1,4.1,6.2c-1.3,2-2.7,4-4.1,6
						c-1.4-2-2.8-4-4.1-6C162.7,122.4,164.1,120.3,165.4,118.3z M165.9,117.5c1.4-2.2,2.8-4.3,4.1-6.5c1.3,2.1,2.7,4.3,4.1,6.5
						c-1.3,2.1-2.7,4.1-4.1,6.2C168.6,121.7,167.2,119.6,165.9,117.5z M174.5,118.3c1.3,2.1,2.7,4.1,4.1,6.2c-1.3,2-2.7,4-4.1,6
						c-1.4-2-2.8-4-4.1-6C171.8,122.4,173.2,120.3,174.5,118.3z M175,117.5c1.4-2.2,2.8-4.3,4.1-6.5c1.3,2.1,2.7,4.3,4.1,6.5
						c-1.3,2.1-2.7,4.1-4.1,6.2C177.7,121.7,176.3,119.6,175,117.5z M183.6,118.3c1.3,2.1,2.7,4.1,4.1,6.2c-1.3,2-2.7,4-4.1,6
						c-1.4-2-2.8-4-4.1-6C180.9,122.4,182.3,120.3,183.6,118.3z M184.1,117.5c1.4-2.2,2.8-4.4,4.2-6.6c1.3,2.2,2.7,4.3,4.1,6.5
						c-1.4,2.1-2.8,4.2-4.2,6.4C186.8,121.7,185.4,119.6,184.1,117.5z M188.7,110.2c1.4-2.3,2.8-4.5,4.1-6.8
						c1.3,2.2,2.7,4.5,4.1,6.8c-1.3,2.2-2.7,4.3-4.1,6.5C191.4,114.5,190.1,112.3,188.7,110.2z M197.4,110.9
						c1.3,2.2,2.7,4.3,4.1,6.5c-1.3,2.1-2.7,4.2-4.1,6.2c-1.4-2.1-2.8-4.2-4.1-6.2C194.7,115.2,196,113.1,197.4,110.9z M197.8,110.2
						c1.4-2.3,2.8-4.5,4.1-6.8c1.3,2.2,2.7,4.5,4.1,6.8c-1.3,2.2-2.7,4.3-4.1,6.5C200.5,114.5,199.2,112.3,197.8,110.2z
						 M202.4,102.7c1.4-2.4,2.8-4.7,4.1-7.1c1.3,2.3,2.7,4.7,4.1,7.1c-1.3,2.2-2.7,4.5-4.1,6.8C205.1,107.2,203.7,104.9,202.4,102.7
						z M202.4,86.7c1.4-2.6,2.8-5.2,4.1-7.7c1.3,2.5,2.7,5.1,4.1,7.7c-1.3,2.4-2.7,4.9-4.1,7.4C205.1,91.6,203.7,89.1,202.4,86.7z
						 M202.7,69.8c-0.1-0.2-0.2-0.4-0.3-0.6c1.4-2.9,2.8-5.7,4.1-8.5c1.3,2.8,2.7,5.6,4.1,8.5c-0.1,0.2-0.2,0.4-0.3,0.6
						c-1.2,2.4-2.5,4.9-3.8,7.5C205.1,74.7,203.9,72.2,202.7,69.8z M206.9,59.8c1.4-3.1,2.8-6,4.1-8.9c1.3,2.9,2.7,5.9,4.1,8.9
						c-1.3,2.8-2.7,5.6-4.1,8.5C209.6,65.4,208.2,62.6,206.9,59.8z M206.5,17.9c1.2,3.1,2.5,6.7,4.1,10.7c-1.2,3.1-2.6,6.5-4.1,10
						c-1.5-3.6-2.9-6.9-4.1-10C203.9,24.6,205.3,21,206.5,17.9z M206.1,39.5c-1.3,3-2.7,6.2-4.1,9.4c-1.5-3.3-2.9-6.4-4.1-9.4
						c1.5-3.5,2.9-6.9,4.1-10C203.2,32.7,204.6,36,206.1,39.5z M197.4,17.9c1.2,3.1,2.5,6.7,4.1,10.7c-1.2,3.1-2.6,6.5-4.1,10
						c-1.5-3.6-2.9-6.9-4.1-10C194.8,24.6,196.2,21,197.4,17.9z M197,39.5c-1.3,3-2.7,6.2-4.1,9.4c-1.5-3.3-2.9-6.4-4.1-9.4
						c1.5-3.5,2.9-6.9,4.1-10C194.1,32.7,195.4,36,197,39.5z M188.2,17.6c1.2,3.1,2.6,6.8,4.2,10.9c-1.2,3.1-2.6,6.5-4.1,10
						c-1.6-3.7-3-7.1-4.2-10.3C185.6,24.3,187,20.7,188.2,17.6z M187.8,39.5c-1.3,3-2.7,6.2-4.1,9.4c-1.5-3.4-2.9-6.6-4.2-9.7
						c1.5-3.5,2.9-6.9,4.1-10C184.9,32.5,186.3,35.9,187.8,39.5z M179.1,17.6c1.2,3.1,2.5,6.7,4.1,10.7c-1.2,3.1-2.6,6.5-4.1,10
						c-1.5-3.6-2.9-6.9-4.1-10C176.5,24.3,177.9,20.7,179.1,17.6z M178.6,39.3c-1.3,3-2.7,6.2-4.1,9.5c-1.5-3.3-2.9-6.4-4.1-9.5
						c1.5-3.5,2.9-6.9,4.1-10C175.8,32.4,177.1,35.8,178.6,39.3z M170,17.6c1.2,3.1,2.5,6.7,4.1,10.7c-1.2,3.1-2.6,6.5-4.1,10
						c-1.5-3.6-2.9-6.9-4.1-10C167.4,24.3,168.8,20.7,170,17.6z M169.5,39.3c-1.3,3-2.7,6.2-4.1,9.5c-1.5-3.3-2.9-6.4-4.1-9.5
						c1.5-3.5,2.9-6.9,4.1-10C166.7,32.4,168,35.8,169.5,39.3z M160.9,17.6c1.2,3.1,2.5,6.7,4.1,10.7c-1.2,3.1-2.6,6.5-4.1,10
						c-1.5-3.6-2.9-6.9-4.1-10C158.3,24.3,159.7,20.7,160.9,17.6z M160.4,39.3c-1.3,3-2.7,6.2-4.1,9.5c-1.5-3.3-2.9-6.4-4.1-9.5
						c1.5-3.5,2.9-6.9,4.1-10C157.5,32.4,158.9,35.8,160.4,39.3z M151.7,17.6c1.2,3.1,2.5,6.7,4.1,10.7c-1.2,3.1-2.6,6.5-4.1,10
						c-1.5-3.6-2.9-6.9-4.1-10C149.2,24.3,150.6,20.7,151.7,17.6z M151.3,39.3c-1.3,3.1-2.7,6.3-4.2,9.7c-1.5-3.3-2.9-6.4-4.1-9.4
						c1.5-3.6,3-7,4.2-10.2C148.4,32.4,149.8,35.8,151.3,39.3z M142.6,17.6c1.2,3.1,2.5,6.7,4.1,10.7c-1.3,3.2-2.7,6.6-4.2,10.3
						c-1.5-3.6-2.9-6.9-4.1-10C140.1,24.4,141.5,20.8,142.6,17.6z M142.1,39.5c-1.3,3-2.7,6.2-4.1,9.4c-1.5-3.3-2.9-6.4-4.1-9.4
						c1.5-3.5,2.9-6.9,4.1-10C139.2,32.7,140.6,36,142.1,39.5z M133.4,17.9c1.2,3.1,2.5,6.7,4.1,10.7c-1.2,3.1-2.6,6.5-4.1,10
						c-1.5-3.6-2.9-6.9-4.1-10C130.9,24.6,132.3,21,133.4,17.9z M133,39.5c-1.3,3-2.7,6.2-4.1,9.4c-1.5-3.3-2.9-6.4-4.1-9.4
						c1.5-3.5,2.9-6.9,4.1-10C130.1,32.7,131.5,36,133,39.5z M124.3,17.9c1.2,3.1,2.5,6.7,4.1,10.7c-1.2,3.1-2.6,6.5-4.1,10
						c-1.5-3.6-2.9-6.9-4.1-10C121.8,24.6,123.2,21,124.3,17.9z M119.8,29.6c1.2,3.1,2.6,6.4,4.1,10c-1.3,3-2.7,6.2-4.1,9.4
						c-1.5-3.3-2.9-6.4-4.1-9.4C117.2,36,118.5,32.7,119.8,29.6z M111.1,49.9c1.5-3.3,2.8-6.4,4.1-9.4c1.3,3,2.7,6.1,4.1,9.4
						c-1.3,2.9-2.7,5.9-4.1,9C113.8,55.8,112.4,52.8,111.1,49.9z M111.4,69.8c-0.1-0.2-0.2-0.4-0.3-0.6c1.4-2.9,2.8-5.7,4.1-8.5
						c1.3,2.8,2.7,5.6,4.1,8.5c-0.1,0.2-0.2,0.4-0.3,0.6c-1.2,2.4-2.5,4.9-3.8,7.5C113.9,74.7,112.6,72.2,111.4,69.8z M115.7,78.1
						c1.4-2.7,2.8-5.4,4.1-8V70v0.1c1.3,2.6,2.7,5.3,4.1,8c-1.3,2.5-2.7,5.1-4.1,7.7C118.3,83.2,117,80.6,115.7,78.1z M115.7,94.8
						c1.4-2.5,2.8-5,4.1-7.4c1.3,2.4,2.7,4.9,4.1,7.4c-1.3,2.3-2.7,4.7-4.1,7.1C118.4,99.5,117,97.2,115.7,94.8z M115.7,110.2
						c1.4-2.3,2.8-4.5,4.1-6.8c1.3,2.2,2.7,4.5,4.1,6.8c-1.3,2.2-2.7,4.3-4.1,6.5C118.4,114.5,117,112.3,115.7,110.2z M120.2,117.4
						c1.4-2.2,2.8-4.3,4.1-6.5c1.3,2.2,2.7,4.3,4.1,6.5c-1.3,2.1-2.7,4.2-4.1,6.2C122.9,121.5,121.6,119.5,120.2,117.4z
						 M124.8,124.3c1.4-2.1,2.8-4.1,4.1-6.2c1.3,2.1,2.7,4.1,4.1,6.2c-1.3,2-2.7,4-4.1,6C127.5,128.3,126.1,126.3,124.8,124.3z
						 M133.5,136.8c-1.4-1.9-2.8-3.9-4.2-5.8c1.4-2,2.7-4,4.1-6c1.4,2,2.8,4.1,4.2,6.1C136.3,133,134.9,134.9,133.5,136.8z
						 M133.9,124.3c1.4-2.1,2.8-4.1,4.1-6.2c1.4,2.1,2.8,4.2,4.2,6.4c-1.3,2-2.7,4-4.1,6C136.7,128.4,135.3,126.4,133.9,124.3z
						 M138.6,131.1c1.4-2,2.7-4,4.1-6c1.3,2,2.7,4,4.1,6c-1.3,1.9-2.7,3.8-4.1,5.7C141.3,134.9,139.9,133,138.6,131.1z M147.2,142.9
						c-1.4-1.8-2.7-3.6-4.1-5.5c1.4-1.9,2.7-3.8,4.1-5.7c1.3,1.9,2.7,3.8,4.1,5.7C149.9,139.3,148.6,141.1,147.2,142.9z
						 M147.7,131.1c1.4-2,2.7-4,4.1-6c1.3,2,2.7,4,4.1,6c-1.3,1.9-2.7,3.8-4.1,5.7C150.4,134.9,149,133,147.7,131.1z M156.3,142.9
						c-1.4-1.8-2.7-3.6-4.1-5.5c1.4-1.9,2.7-3.8,4.1-5.7c1.3,1.9,2.7,3.8,4.1,5.7C159,139.3,157.7,141.1,156.3,142.9z M156.8,131.1
						c1.4-2,2.7-4,4.1-6c1.3,2,2.7,4,4.1,6c-1.3,1.9-2.7,3.8-4.1,5.7C159.5,134.9,158.1,133,156.8,131.1z M165.4,142.9
						c-1.4-1.8-2.7-3.6-4.1-5.5c1.4-1.9,2.7-3.8,4.1-5.7c1.3,1.9,2.7,3.8,4.1,5.7C168.1,139.3,166.8,141.1,165.4,142.9z
						 M165.9,131.1c1.4-2,2.7-4,4.1-6c1.3,2,2.7,4,4.1,6c-1.3,1.9-2.7,3.8-4.1,5.7C168.6,134.9,167.2,133,165.9,131.1z M174.5,142.9
						c-1.4-1.8-2.7-3.6-4.1-5.5c1.4-1.9,2.7-3.8,4.1-5.7c1.3,1.9,2.7,3.8,4.1,5.7C177.3,139.3,175.9,141.1,174.5,142.9z M175,131.1
						c1.4-2,2.7-4,4.1-6c1.3,2,2.7,4,4.1,6c-1.3,1.9-2.7,3.8-4.1,5.7C177.7,134.9,176.3,133,175,131.1z M183.6,142.9
						c-1.4-1.8-2.7-3.6-4.1-5.5c1.4-1.9,2.7-3.8,4.1-5.7c1.3,1.9,2.7,3.8,4.1,5.7C186.4,139.3,185,141.1,183.6,142.9z M188.2,136.8
						c-1.4-1.9-2.7-3.8-4.1-5.7c1.4-2,2.7-4,4.1-6c1.3,2,2.7,4,4.1,6C190.9,133,189.6,134.9,188.2,136.8z M188.6,124.5
						c1.4-2.1,2.8-4.2,4.2-6.4c1.3,2.1,2.7,4.1,4.1,6.2c-1.4,2-2.8,4.1-4.2,6.1C191.3,128.4,190,126.5,188.6,124.5z M197.3,136.8
						c-1.4-1.9-2.7-3.8-4.1-5.7c1.4-2,2.8-4.1,4.2-6.1c1.3,2,2.7,4,4.1,6C200.1,132.9,198.7,134.9,197.3,136.8z M201.9,130.3
						c-1.4-2-2.8-4-4.1-6c1.4-2.1,2.8-4.1,4.1-6.2c1.3,2.1,2.7,4.1,4.1,6.2C204.7,126.3,203.3,128.3,201.9,130.3z M206.5,123.6
						c-1.4-2.1-2.8-4.2-4.1-6.2c1.4-2.2,2.8-4.3,4.1-6.5c1.3,2.2,2.7,4.3,4.1,6.5C209.2,119.5,207.9,121.5,206.5,123.6z
						 M215.1,110.2c-1.3,2.2-2.7,4.3-4.1,6.5c-1.4-2.2-2.8-4.3-4.1-6.5c1.4-2.3,2.8-4.5,4.1-6.8
						C212.4,105.7,213.7,107.9,215.1,110.2z M215.1,94.8c-1.3,2.3-2.7,4.7-4.1,7.1c-1.4-2.4-2.8-4.8-4.1-7.1c1.4-2.5,2.8-5,4.1-7.4
						C212.4,89.9,213.7,92.3,215.1,94.8z M211,85.8c-1.4-2.6-2.8-5.2-4.1-7.7c1.4-2.7,2.8-5.4,4.1-8V70v0.1c1.3,2.6,2.7,5.3,4.1,8
						C213.8,80.6,212.5,83.2,211,85.8z M219.7,69.2c-0.1,0.2-0.2,0.4-0.3,0.6c-1.2,2.4-2.5,4.9-3.8,7.5c-1.3-2.6-2.6-5.1-3.8-7.5
						c-0.1-0.2-0.2-0.4-0.3-0.6c1.4-2.9,2.8-5.7,4.1-8.5C216.9,63.4,218.3,66.3,219.7,69.2z M215.6,58.9c-1.4-3.1-2.8-6.1-4.1-9
						c1.5-3.3,2.8-6.4,4.1-9.4c1.3,3,2.7,6.1,4.1,9.4C218.4,52.8,217,55.8,215.6,58.9z"/>
					<path class="st4" d="M209.6,142.2c0.1-0.3,0.2-0.6,0.2-1c-0.4-0.6-0.8-1.1-1.2-1.7c-0.3,0.1-0.5,0.2-0.8,0.2
						C208.4,140.6,209,141.4,209.6,142.2z"/>
					<path class="st4" d="M122.1,141c0.7-0.9,1.3-1.8,2-2.7c-0.2-0.1-0.5-0.2-0.7-0.3c-0.5,0.7-1,1.4-1.6,2.1
						C121.9,140.4,122,140.7,122.1,141z"/>
					<path class="st4" d="M215.3,136.3c-0.9-1.3-1.8-2.6-2.8-3.8c-0.1,0.3-0.1,0.7-0.2,1c0.7,1,1.5,2.1,2.2,3.1
						C214.8,136.5,215.1,136.4,215.3,136.3z"/>
				</g>
			</g>
		</g>
		<path class="st6" d="M165.4,36.5c-15.6,0-30.3-1.1-41.3-3c-11.9-2.1-17.9-4.9-17.9-8.2c0-3.4,6-6.2,17.9-8.3c11-1.9,25.7-3,41.3-3
			s30.3,1.1,41.3,3c11.9,2.1,17.9,4.9,17.9,8.2c0,3.4-6,6.2-17.9,8.2C195.7,35.4,181,36.5,165.4,36.5z M165.4,16.1
			c-35.4,0-57.1,5.3-57.1,9.2c0,3.8,21.7,9.2,57.1,9.2s57.1-5.3,57.1-9.2S200.8,16.1,165.4,16.1z"/>
	</g>
</g>
<path class="st7" d="M162.8,189.7L134.6,162c0,0-2.3-4,1.1-6.7c3.4-2.7,7.1,0,8.2,0.9c1.1,0.8,14.3,10.7,14.3,10.7V128
	c0,0,0.8-5.3,6.3-5.3s6.1,5.7,6.1,5.7v26.9V142c0,0,0.1-3.8,4.3-3.8c4.2,0,4.7,3.8,4.7,3.8v13.2v-9c0,0,1.9-2.9,5.2-2.9
	c3.4,0,4.8,3.7,4.8,3.7v8.2v-4c0.6-2.1,2.6-3.3,5.7-3.3c3.3,0,4.5,2.7,5,4.8c0.3,1.4,0.3,2.6,0.3,2.6s-0.4,21.9-0.8,23.3
	c-0.4,1.5-5.9,12.4-12.2,13.2C181.2,192.7,172.6,195.6,162.8,189.7z"/>
<g>
	<polygon class="st8" points="26,75.9 51.8,58.1 47.5,55.1 14.2,78 47.5,100.9 51.8,97.9 26,80.1 80.8,80.1 80.8,75.9 	"/>
	<polygon class="st8" points="283.3,55.1 279,58.1 304.8,75.9 250,75.9 250,80.1 304.8,80.1 279,97.9 283.3,100.9 316.7,78 	"/>
</g>
</svg>
