<?xml version="1.0" encoding="utf-8"?>
<!-- Generator: Adobe Illustrator 16.0.3, SVG Export Plug-In . SVG Version: 6.00 Build 0)  -->
<!DOCTYPE svg PUBLIC "-//W3C//DTD SVG 1.1//EN" "http://www.w3.org/Graphics/SVG/1.1/DTD/svg11.dtd">
<svg version="1.1" id="Layer_1" xmlns="http://www.w3.org/2000/svg" xmlns:xlink="http://www.w3.org/1999/xlink" x="0px" y="0px"
	 width="468.836px" height="209.449px" viewBox="-111.418 1 468.836 209.449" enable-background="new -111.418 1 468.836 209.449"
	 xml:space="preserve">
<g>
	<g>
		<path opacity="0.6" fill="#C4C6C8" enable-background="new    " d="M166.021,198.963c0,6.326-19.27,11.486-43.019,11.486
			c-23.751,0-43.022-5.16-43.022-11.486c0-6.328,19.271-11.482,43.022-11.482C146.751,187.381,166.021,192.537,166.021,198.963z"/>
		<g>
			<g>
				<path fill="none" d="M66.352,92.676c0,0,14.31,94.316,15.282,99.861c0.973,5.551,13.335,12.654,39.809,12.654
					c0.585,0,1.071,0,1.558,0c0.488,0,1.071,0,1.559,0c26.474,0,38.835-7.104,39.808-12.654
					c0.973-5.545,15.282-99.861,15.282-99.861H66.352z"/>
				<g>
					<path fill="#CFD1D2" d="M123.39,193.127c-17.812,0-32.995,1.75-38.447,4.084c3.99,3.311,9.345,4.771,14.309,5.939
						c2.044,0.486,4.186,0.973,6.229,1.361c5.452,0.391,11.486,0.586,17.91,0.586c2.431,0,4.672,0,7.009-0.098
						c2.431-0.197,4.867-0.293,7.3-0.488c3.31-0.293,6.521-0.973,9.731-1.848c4.772-1.268,10.027-2.631,13.92-5.746
						C155.414,194.682,140.714,193.127,123.39,193.127z"/>
					<path fill="#95979A" d="M123.39,205.486c-6.326,0-12.362-0.197-17.91-0.584c-2.043-0.391-4.185-0.877-6.325-1.363
						c-4.576-1.17-10.318-2.629-14.405-6.035c-0.099-0.098-0.195-0.193-0.099-0.293c0-0.098,0.099-0.195,0.195-0.293
						c5.645-2.43,21.122-4.086,38.544-4.086c16.936,0,31.925,1.557,38.056,3.893c0.1,0,0.196,0.193,0.196,0.291s0,0.295-0.097,0.391
						c-3.895,3.115-8.761,4.479-13.628,5.744l-0.487,0.096c-3.5,0.973-6.716,1.557-9.731,1.852
						c-1.266,0.094-2.533,0.191-3.797,0.291c-1.166,0.098-2.335,0.098-3.503,0.191C128.062,205.486,125.727,205.486,123.39,205.486z
						 M85.722,197.311c3.991,3.018,9.343,4.379,13.626,5.545c2.143,0.486,4.186,0.975,6.23,1.363
						c5.546,0.391,11.584,0.584,17.812,0.584c2.337,0,4.672,0,7.009-0.096c1.168-0.098,2.337-0.195,3.503-0.195
						c1.264-0.096,2.531-0.195,3.797-0.293c3.016-0.291,6.132-0.877,9.635-1.752l0.487-0.098c4.476-1.168,9.149-2.432,12.752-5.158
						c-6.328-2.141-21.024-3.602-37.084-3.602C106.648,193.512,91.757,194.973,85.722,197.311z"/>
				</g>
				<g>
					<g>
						<path fill="#A3A5A8" d="M179.455,92.091c-0.196,0.391-0.488,0.684-0.781,0.974h0.39c-1.166,7.981-14.209,94.023-15.185,99.281
							c-0.877,4.865-12.067,12.264-39.32,12.264c-0.487,0-1.07,0-1.655,0c-0.488,0-1.071,0-1.558,0
							c-27.254,0-38.446-7.299-39.322-12.264c-0.975-5.258-13.92-91.3-15.184-99.281h0.193c-0.39-0.29-0.777-0.583-1.069-0.974
							h-0.195l0.097,0.585c0.099,0.973,14.31,94.412,15.282,99.861c0.583,3.213,4.478,6.426,10.609,8.764
							c7.396,2.822,17.617,4.279,29.589,4.279c0.486,0,1.069,0,1.558,0c0.486,0,1.071,0,1.556,0c11.974,0,22.292-1.457,29.593-4.279
							c6.228-2.338,10.12-5.551,10.706-8.764c0.973-5.545,15.085-98.986,15.278-99.861l0.097-0.585H179.455z"/>
					</g>
					<g>
						<path fill="none" d="M179.648,92.676c0,5.451-25.308,9.927-56.646,9.927c-31.245,0-56.65-4.476-56.65-9.927
							c0-5.549,25.405-10.025,56.65-10.025C154.244,82.651,179.648,87.127,179.648,92.676z"/>
					</g>
				</g>
			</g>
			<g>
				<g>
					<g>
						<defs>
							<path id="SVGID_1_" d="M179.648,92.676c0-5.452-25.308-9.931-56.646-9.931c-31.245-0.095-56.65,4.382-56.65,9.931
								c0,0.194,0,0.388,0.099,0.485c1.168,7.497,14.211,94.024,15.184,99.376c0.973,5.551,13.335,12.654,39.809,12.654
								c0.585,0,1.071,0,1.56,0c0.486,0,1.069,0,1.557,0c26.474,0,38.835-7.104,39.811-12.654
								c0.97-5.352,14.014-91.879,15.183-99.376C179.552,92.967,179.648,92.775,179.648,92.676z"/>
						</defs>
						<clipPath id="SVGID_2_">
							<use xlink:href="#SVGID_1_"  overflow="visible"/>
						</clipPath>
						<g clip-path="url(#SVGID_2_)">
							<path fill="#A3A5A8" d="M181.497,103.771c-1.558,3.699-3.31,7.691-5.158,11.876c-1.461-3.212-2.821-6.23-3.991-9.152
								c3.698-8.758,6.619-16.252,8.761-21.898c0,0,0,0-0.097,0c-0.196-0.097-0.49-0.097-0.681-0.097
								c-2.045,5.451-4.867,12.654-8.471,21.122c-1.458-3.506-2.822-6.718-3.988-9.734c2.042-5.061,3.698-9.44,4.961-12.946
								c-0.29-0.097-0.485-0.097-0.776-0.196c-1.263,3.312-2.724,7.4-4.672,12.07c-1.558-3.989-2.919-7.495-3.991-10.414
								c0.389-1.072,0.778-2.14,1.169-3.018c-0.293,0-0.487-0.097-0.78-0.097c-0.195,0.682-0.485,1.363-0.78,2.143
								c-0.289-0.973-0.584-1.752-0.876-2.434c-0.29,0-0.581-0.097-0.873-0.097c0.389,1.07,0.873,2.237,1.265,3.601
								c-1.072,3.016-2.434,6.521-3.989,10.415c-1.559-3.991-2.923-7.497-3.99-10.415c0.579-1.558,1.067-3.018,1.556-4.282
								c-0.292,0-0.488-0.097-0.779-0.097c-0.389,0.973-0.776,2.043-1.166,3.209c-0.488-1.264-0.877-2.431-1.268-3.503
								c-0.29,0-0.585-0.097-0.875-0.097c0.485,1.364,1.071,2.921,1.654,4.672c-1.069,3.016-2.434,6.521-3.991,10.414
								c-1.655-4.086-3.016-7.688-4.086-10.707c0.68-1.847,1.265-3.404,1.75-4.768c-0.292,0-0.485,0-0.78-0.097
								c-0.39,1.167-0.874,2.434-1.362,3.794c-0.583-1.46-0.971-2.821-1.459-3.891c-0.293,0-0.585,0-0.777,0
								c0.484,1.458,1.169,3.115,1.849,5.058c-1.071,3.018-2.434,6.524-3.989,10.416c-1.559-3.991-2.922-7.494-3.991-10.416
								c0.776-2.042,1.364-3.794,1.944-5.255c-0.292,0-0.483,0-0.779,0c-0.389,1.267-0.97,2.627-1.555,4.185
								c-0.586-1.654-1.07-3.016-1.561-4.282c-0.288,0-0.484,0-0.776,0c0.585,1.557,1.17,3.309,1.949,5.449
								c-1.072,3.018-2.434,6.524-3.994,10.415c-1.556-3.988-2.917-7.494-3.989-10.415c0.779-2.14,1.461-3.989,1.945-5.449
								c-0.29,0-0.484,0-0.777,0c-0.485,1.266-0.973,2.724-1.556,4.379c-0.587-1.655-1.17-3.212-1.654-4.476
								c-0.293,0-0.488,0-0.781,0c0.582,1.557,1.266,3.406,2.042,5.546c-1.067,3.018-2.429,6.524-3.987,10.415
								c-1.558-3.988-2.921-7.494-3.991-10.415c0.778-2.14,1.461-3.989,2.044-5.546c-0.293,0-0.486,0-0.78,0
								c-0.485,1.264-0.972,2.821-1.653,4.476c-0.973-1.849-1.557-3.406-1.946-4.673c-0.292,0-0.487,0-0.779,0
								c0.585,1.56,1.266,3.506,2.044,5.646c-1.068,3.018-2.433,6.524-3.991,10.416c-1.555-3.991-2.917-7.494-3.989-10.416
								c0.777-2.237,1.558-4.085,2.044-5.742c-0.292,0-0.486,0-0.779,0c-0.487,1.363-1.069,2.824-1.654,4.672
								c-0.681-1.751-1.168-3.309-1.656-4.672c-0.291,0-0.486,0-0.777,0c0.585,1.557,1.266,3.505,2.046,5.742
								c-1.269,2.921-2.63,6.425-4.187,10.416c-1.558-3.991-2.92-7.494-3.991-10.416c0.777-2.237,1.558-4.085,2.044-5.742
								c-0.291,0-0.486,0-0.777,0c-0.489,1.363-1.071,2.824-1.655,4.575c-0.683-1.751-1.169-3.212-1.655-4.575
								c-0.292,0-0.486,0-0.78,0c0.585,1.557,1.267,3.409,2.045,5.646c-1.168,3.018-2.531,6.621-4.089,10.707
								c-1.558-3.989-2.92-7.495-3.989-10.414c0.778-2.239,1.459-4.088,2.045-5.645c-0.294,0-0.586,0-0.78,0
								c-0.486,1.363-0.973,2.821-1.654,4.573c-0.585-1.652-1.168-3.112-1.558-4.379c-0.291,0-0.485,0-0.777,0.097
								c0.582,1.558,1.167,3.312,1.945,5.354c-1.069,3.016-2.432,6.521-3.989,10.414c-1.558-3.989-2.92-7.495-3.991-10.414
								c0.681-1.849,1.265-3.503,1.849-4.963c-0.291,0-0.584,0.097-0.876,0.097c-0.39,1.169-0.877,2.433-1.362,3.794
								c-0.487-1.264-0.877-2.431-1.265-3.406c-0.293,0-0.488,0.097-0.779,0.097c0.486,1.267,0.975,2.725,1.655,4.381
								c-1.07,3.016-2.434,6.521-3.99,10.414c-2.435-5.353-4.188-9.828-5.451-13.334c-0.195,0-0.486,0.097-0.682,0.196
								c1.363,3.698,3.212,8.564,5.451,14.21c-1.168,3.016-2.53,6.324-3.992,9.734c-3.697-8.761-6.617-16.159-8.661-21.705
								c-0.195,0.097-0.487,0.192-0.682,0.289c2.141,5.648,5.061,13.336,8.954,22.389c-1.265,2.918-2.628,6.036-3.99,9.148
								c-2.143-4.769-4.088-9.248-5.742-13.333c0,0.779,0.097,1.46,0.097,2.239c1.558,3.795,3.308,7.786,5.256,11.971
								c-1.071,2.339-2.239,4.867-3.406,7.3c0.096,0.487,0.096,0.876,0.195,1.362c1.263-2.627,2.432-5.256,3.601-7.784
								c1.264,2.821,2.627,5.739,3.99,8.66c-1.265,2.725-2.628,5.45-3.99,8.273c-1.169-2.237-2.238-4.479-3.31-6.716
								c0.097,0.779,0.194,1.657,0.39,2.432c0.777,1.657,1.654,3.408,2.53,5.163c-0.097,0.191-0.195,0.388-0.291,0.581
								c-0.293,0.682-0.682,1.364-1.072,2.044c0.097,0.392,0.097,0.876,0.195,1.266c0.486-0.974,1.071-2.042,1.558-3.018v-0.097
								v0.097c1.264,2.531,2.627,5.161,3.99,7.788c-1.169,2.333-2.433,4.669-3.795,7.107c0.097,0.389,0.097,0.777,0.194,1.262
								c1.265-2.529,2.627-5.059,3.894-7.492c1.264,2.434,2.627,4.963,3.989,7.492c-1.265,2.342-2.627,4.771-3.989,7.205
								c-1.363-2.434-2.726-4.863-3.991-7.205c0.098,0.684,0.194,1.363,0.291,2.141c1.071,1.949,2.143,3.895,3.214,5.844
								c-0.585,1.068-1.267,2.236-1.948,3.309c0.097,0.389,0.097,0.777,0.195,1.166c0.682-1.264,1.459-2.529,2.14-3.697
								c1.267,2.24,2.63,4.574,3.992,6.91c-1.266,2.143-2.629,4.381-3.992,6.617c-0.29-0.484-0.582-0.873-0.777-1.359
								c0.097,0.68,0.195,1.359,0.391,1.945c0,0,0,0,0,0.098l0,0c0.097,0.391,0.097,0.777,0.193,1.072
								c0.098-0.104,0.193-0.295,0.293-0.391c1.264,2.141,2.627,4.186,3.989,6.326c-0.777,1.262-1.556,2.432-2.432,3.699
								c0.096,0.389,0.096,0.678,0.195,1.068c0.874-1.361,1.75-2.725,2.626-3.99c1.265,2.045,2.629,3.99,3.991,6.035
								c-1.461,2.24-3.019,4.379-4.574,6.617c0.097,0.293,0.193,0.588,0.292,0.975c1.653-2.336,3.211-4.576,4.769-6.912
								c1.265,1.951,2.629,3.895,3.992,5.842c-1.462,2.045-2.921,4.182-4.479,6.23c0.195,0.098,0.486,0.191,0.682,0.291
								c1.459-1.947,2.821-3.99,4.282-5.938c1.362,1.85,2.726,3.795,4.088,5.646c-0.682,0.873-1.362,1.85-2.044,2.725
								c0.292,0.098,0.487,0.193,0.777,0.193c0.585-0.777,1.168-1.557,1.753-2.336c0.877,1.17,1.753,2.336,2.629,3.504
								c0.388,0.098,0.777,0.193,1.07,0.293c-1.07-1.461-2.24-2.922-3.31-4.379c1.363-1.852,2.627-3.699,3.989-5.547
								c1.267,1.848,2.629,3.695,3.992,5.547c-1.168,1.557-2.335,3.115-3.504,4.67c0.292,0.102,0.487,0.102,0.778,0.193
								c1.071-1.359,2.141-2.82,3.115-4.184c1.264,1.752,2.628,3.504,3.989,5.258c0.39,0,0.682,0.098,1.071,0.098l-0.097-0.098
								c1.362-1.754,2.627-3.506,3.989-5.355c1.266,1.752,2.629,3.504,3.991,5.355c-0.192,0.195-0.39,0.486-0.486,0.682
								c0.294,0,0.583,0,0.877,0l0.096-0.1l0.1,0.1c0.29,0,0.681,0,0.972,0c-0.194-0.295-0.388-0.486-0.585-0.779
								c1.363-1.754,2.63-3.506,3.992-5.355c1.266,1.754,2.628,3.506,3.99,5.355c-0.194,0.293-0.486,0.584-0.681,0.877
								c0.291,0,0.584,0,0.973,0c0.099-0.098,0.194-0.197,0.194-0.293c0.099,0.096,0.195,0.195,0.294,0.293c0.097,0,0.193,0,0.289,0
								c0.197,0,0.391,0,0.585,0c-0.194-0.293-0.486-0.584-0.681-0.973c1.362-1.754,2.629-3.506,3.992-5.355
								c1.263,1.752,2.625,3.506,3.989,5.355c-0.195,0.291-0.389,0.58-0.68,0.875c0.291,0,0.68,0,0.973,0
								c0-0.1,0.095-0.1,0.095-0.195c0,0.096,0.1,0.096,0.1,0.195c0.29,0,0.585,0,0.873,0c-0.194-0.295-0.388-0.486-0.583-0.779
								c1.364-1.754,2.63-3.506,3.992-5.355c1.266,1.754,2.627,3.506,3.992,5.355c-0.1,0.098-0.1,0.195-0.197,0.293
								c0.39,0,0.877-0.098,1.266-0.098c0-0.098-0.097-0.098-0.097-0.195c1.362-1.754,2.627-3.506,3.992-5.355
								c1.067,1.559,2.235,3.02,3.404,4.574c0.292,0,0.585-0.096,0.779-0.096c-1.264-1.656-2.531-3.406-3.796-5.059
								c1.363-1.852,2.626-3.701,3.989-5.551c1.267,1.85,2.629,3.699,3.991,5.551c-1.166,1.652-2.431,3.309-3.698,4.959
								c0.389-0.096,0.68-0.096,1.071-0.193c1.072-1.363,2.045-2.725,3.114-4.186c0.78,1.072,1.558,2.047,2.237,3.117
								c0.293-0.098,0.585-0.098,0.781-0.197c-0.878-1.166-1.754-2.336-2.627-3.5c1.361-1.852,2.724-3.799,4.084-5.648
								c1.756,2.436,3.505,4.867,5.355,7.398c0.294-0.098,0.487-0.197,0.779-0.197c-1.945-2.625-3.798-5.156-5.646-7.783
								c1.364-1.949,2.628-3.895,3.991-5.844c1.655,2.434,3.406,4.967,5.158,7.398c0.097-0.291,0.097-0.68,0.194-0.973
								c-1.655-2.336-3.31-4.67-4.866-7.104c1.362-2.045,2.727-3.99,3.992-6.037c0.776,1.268,1.655,2.533,2.528,3.801
								c0.1-0.393,0.1-0.781,0.196-1.074c-0.781-1.168-1.461-2.24-2.238-3.406c1.169-1.848,2.335-3.699,3.503-5.449
								c0.097-0.877,0.193-1.754,0.293-2.531c-1.265-2.143-2.53-4.186-3.796-6.328c1.362-2.336,2.724-4.572,3.99-6.91
								c0.389,0.68,0.776,1.361,1.166,2.043c0.101-0.391,0.101-0.875,0.197-1.264c-0.294-0.488-0.587-0.975-0.878-1.557
								c0.487-0.779,0.878-1.559,1.364-2.338c0.097-0.68,0.192-1.266,0.192-1.945c-0.679,1.166-1.36,2.334-1.945,3.504
								c-1.363-2.434-2.725-4.863-3.993-7.205c1.363-2.529,2.728-5.059,3.993-7.492c0.876,1.652,1.85,3.406,2.726,5.158
								c0.097-0.389,0.097-0.877,0.196-1.264c-0.88-1.559-1.655-3.115-2.533-4.674c1.364-2.63,2.727-5.257,3.993-7.789v-0.097v0.097
								c0.097,0.194,0.193,0.293,0.193,0.488c0.096-0.392,0.096-0.877,0.195-1.267c0,0,0-0.098-0.1-0.098
								c0-0.094,0.1-0.193,0.1-0.293c0.097-0.873,0.288-1.652,0.388-2.529c-0.291,0.68-0.583,1.265-0.973,1.947
								c-1.363-2.821-2.725-5.546-3.992-8.274c1.364-3.018,2.729-5.839,3.992-8.663c0.778,1.754,1.654,3.506,2.434,5.355
								c0.097-0.488,0.097-0.876,0.193-1.363c-0.777-1.655-1.554-3.31-2.237-4.964c1.557-3.406,3.017-6.716,4.282-9.831
								C181.108,105.816,181.304,104.842,181.497,103.771z M171.471,106.495c-1.265,2.921-2.626,6.036-3.989,9.152
								c-1.461-3.212-2.823-6.23-3.991-9.152c1.461-3.404,2.825-6.713,3.991-9.731C168.648,99.879,170.011,103.091,171.471,106.495z
								 M162.614,126.254c-1.265,2.729-2.627,5.453-3.991,8.274c-1.36-2.821-2.725-5.546-3.987-8.274
								c1.361-3.018,2.724-5.839,3.987-8.663C159.793,120.319,161.153,123.237,162.614,126.254z M158.917,116.619
								c1.46-3.212,2.725-6.228,3.992-9.149c1.263,2.921,2.625,5.937,3.987,9.149c-1.265,2.824-2.627,5.743-3.987,8.761
								C161.545,122.362,160.279,119.443,158.917,116.619z M150.447,135.988c-0.097-0.193-0.193-0.388-0.29-0.584
								c1.362-2.822,2.724-5.545,3.991-8.273c1.266,2.729,2.626,5.451,3.99,8.273c-0.097,0.196-0.196,0.391-0.293,0.584
								c-1.171,2.339-2.432,4.772-3.697,7.302C152.784,140.76,151.618,138.327,150.447,135.988z M158.139,152.439
								c-1.268,2.334-2.63,4.768-3.99,7.201c-1.364-2.434-2.726-4.867-3.991-7.201c1.362-2.531,2.724-5.063,3.991-7.498
								C155.414,147.377,156.774,149.811,158.139,152.439z M153.66,144.068c-1.266,2.432-2.628,4.965-3.991,7.496
								c-1.36-2.531-2.725-5.064-3.99-7.496c1.362-2.63,2.724-5.257,3.99-7.789v-0.097v0.097
								C151.032,138.811,152.296,141.438,153.66,144.068z M105.188,153.121c1.266,2.332,2.629,4.77,3.992,7.203
								c-1.267,2.236-2.63,4.572-3.992,6.906c-1.362-2.334-2.725-4.67-3.989-6.906C102.562,157.891,103.924,155.553,105.188,153.121
								z M100.71,159.641c-1.362-2.434-2.726-4.867-3.989-7.201c1.363-2.531,2.726-5.063,3.989-7.498
								c1.266,2.436,2.629,4.967,3.991,7.498C103.437,154.773,102.171,157.207,100.71,159.641z M105.578,152.439
								c1.362-2.531,2.725-5.063,3.991-7.498c1.265,2.436,2.627,4.967,3.991,7.498c-1.267,2.334-2.629,4.768-3.991,7.201
								C108.206,157.207,106.94,154.773,105.578,152.439z M114.047,153.121c1.362,2.432,2.725,4.865,4.087,7.297
								c-1.266,2.24-2.628,4.578-3.99,6.914c-1.363-2.336-2.726-4.771-4.089-7.008C111.418,157.891,112.78,155.553,114.047,153.121z
								 M114.437,152.439c1.361-2.531,2.726-5.063,3.989-7.498c1.266,2.533,2.627,5.064,4.088,7.691
								c-1.266,2.336-2.627,4.771-3.99,7.203C117.162,157.307,115.798,154.773,114.437,152.439z M123,153.316
								c1.266,2.334,2.628,4.768,3.992,7.201c-1.266,2.236-2.628,4.574-3.992,6.912c-1.362-2.338-2.725-4.576-3.989-6.912
								C120.372,158.084,121.735,155.65,123,153.316z M123.39,152.535c1.462-2.627,2.823-5.158,4.088-7.688
								c1.267,2.434,2.629,4.963,3.99,7.492c-1.361,2.434-2.724,4.867-4.087,7.4C126.02,157.307,124.752,154.969,123.39,152.535z
								 M131.956,153.121c1.267,2.332,2.628,4.77,3.989,7.203c-1.361,2.334-2.723,4.672-4.086,7.008
								c-1.364-2.336-2.726-4.578-3.991-6.914C129.329,157.986,130.689,155.553,131.956,153.121z M132.344,152.439
								c1.365-2.531,2.727-5.063,3.991-7.498c1.264,2.436,2.628,4.967,3.99,7.498c-1.266,2.334-2.627,4.768-3.99,7.201
								C134.973,157.207,133.709,154.773,132.344,152.439z M140.813,153.121c1.263,2.332,2.625,4.77,3.989,7.203
								c-1.268,2.236-2.629,4.572-3.989,6.906c-1.362-2.334-2.727-4.67-3.991-6.906
								C138.187,157.891,139.548,155.553,140.813,153.121z M141.201,152.439c1.364-2.531,2.729-5.063,3.989-7.498
								c1.266,2.436,2.63,4.967,3.991,7.498c-1.265,2.334-2.629,4.768-3.991,7.201C143.83,157.207,142.565,154.773,141.201,152.439z
								 M148.986,135.988c-1.166,2.339-2.434,4.772-3.696,7.302c-1.264-2.529-2.531-4.963-3.7-7.302
								c-0.097-0.193-0.193-0.388-0.29-0.584c1.362-2.822,2.727-5.545,3.99-8.273c1.263,2.729,2.627,5.451,3.988,8.273
								C149.182,135.6,149.085,135.794,148.986,135.988z M144.803,144.068c-1.268,2.432-2.629,4.965-3.989,7.592
								c-1.362-2.531-2.727-5.061-3.991-7.592c1.364-2.63,2.726-5.257,3.991-7.789v-0.097v0.097
								C142.076,138.811,143.438,141.438,144.803,144.068z M140.129,135.988c-1.166,2.339-2.431,4.772-3.696,7.302
								c-1.268-2.529-2.531-4.963-3.697-7.302c-0.1-0.193-0.196-0.388-0.295-0.584c1.364-2.822,2.725-5.545,3.992-8.273
								c1.266,2.729,2.627,5.451,3.992,8.273C140.325,135.6,140.228,135.794,140.129,135.988z M135.945,144.068
								c-1.265,2.432-2.629,4.965-3.989,7.496c-1.364-2.531-2.727-5.064-3.991-7.496c1.364-2.63,2.725-5.257,3.991-7.789v-0.097
								v0.097C133.223,138.811,134.584,141.438,135.945,144.068z M131.274,135.988c-1.168,2.339-2.434,4.772-3.701,7.302
								c-1.263-2.529-2.529-4.963-3.697-7.302c-0.099-0.29-0.291-0.486-0.388-0.777c1.363-2.825,2.725-5.548,3.989-8.273
								c1.267,2.726,2.725,5.548,4.089,8.467C131.468,135.6,131.371,135.794,131.274,135.988z M127.087,144.068
								c-1.267,2.531-2.628,5.061-4.085,7.688c-1.461-2.627-2.823-5.156-4.09-7.688c1.363-2.63,2.726-5.257,3.991-7.789
								c0-0.097,0.099-0.193,0.099-0.292c0,0.099,0.097,0.195,0.097,0.292C124.364,138.811,125.727,141.438,127.087,144.068z
								 M122.222,135.988c-1.169,2.339-2.434,4.772-3.698,7.302c-1.265-2.529-2.531-4.963-3.699-7.302
								c-0.099-0.193-0.195-0.388-0.291-0.584c1.459-2.919,2.822-5.741,4.088-8.467c1.266,2.726,2.627,5.448,3.99,8.273
								C122.415,135.404,122.318,135.698,122.222,135.988z M118.037,144.068c-1.266,2.432-2.628,4.965-3.99,7.496
								c-1.362-2.531-2.725-5.064-3.992-7.496c1.363-2.63,2.726-5.257,3.992-7.789v-0.097v0.097
								C115.311,138.811,116.674,141.438,118.037,144.068z M113.363,135.988c-1.167,2.339-2.432,4.772-3.698,7.302
								c-1.266-2.529-2.53-4.963-3.697-7.302c-0.099-0.193-0.195-0.388-0.294-0.584c1.364-2.822,2.726-5.545,3.991-8.273
								c1.267,2.729,2.629,5.451,3.992,8.273C113.561,135.6,113.462,135.794,113.363,135.988z M109.18,144.068
								c-1.267,2.432-2.63,4.965-3.992,7.592c-1.362-2.531-2.725-5.061-3.989-7.592c1.363-2.63,2.726-5.257,3.989-7.789v-0.097
								v0.097C106.453,138.811,107.816,141.438,109.18,144.068z M104.506,135.988c-1.167,2.339-2.434,4.772-3.697,7.302
								c-1.266-2.529-2.53-4.963-3.7-7.302c-0.097-0.193-0.193-0.388-0.291-0.584c1.362-2.822,2.726-5.545,3.991-8.273
								c1.264,2.729,2.628,5.451,3.989,8.273C104.701,135.6,104.605,135.794,104.506,135.988z M100.322,144.068
								c-1.267,2.432-2.629,4.965-3.991,7.496c-1.362-2.531-2.726-5.064-3.991-7.496c1.362-2.63,2.725-5.257,3.991-7.789v-0.097
								v0.097C97.597,138.811,98.959,141.438,100.322,144.068z M95.941,152.439c-1.265,2.334-2.627,4.768-3.989,7.201
								c-1.363-2.434-2.726-4.867-3.992-7.201c1.363-2.531,2.726-5.063,3.992-7.498C93.216,147.377,94.482,149.811,95.941,152.439z
								 M95.649,135.988c-1.167,2.339-2.434,4.772-3.697,7.302c-1.267-2.529-2.532-4.963-3.7-7.302
								c-0.097-0.193-0.195-0.388-0.292-0.584c1.363-2.822,2.726-5.545,3.992-8.273c1.264,2.729,2.626,5.451,3.989,8.273
								C95.845,135.6,95.747,135.794,95.649,135.988z M91.463,144.068c-1.264,2.432-2.627,4.965-3.989,7.592
								c-1.362-2.531-2.725-5.061-3.991-7.592c1.363-2.63,2.726-5.257,3.991-7.789v-0.097v0.097
								C88.738,138.811,90.101,141.438,91.463,144.068z M91.463,160.324c-1.264,2.236-2.627,4.572-3.989,6.906
								c-1.362-2.334-2.725-4.67-3.991-6.906c1.363-2.434,2.726-4.871,3.991-7.203C88.738,155.553,90.101,157.891,91.463,160.324z
								 M91.853,161.102c1.267,2.24,2.63,4.574,3.992,6.91c-1.267,2.143-2.629,4.381-3.992,6.617
								c-1.362-2.236-2.725-4.379-3.989-6.617C89.227,165.676,90.589,163.342,91.853,161.102z M92.34,160.324
								c1.362-2.434,2.725-4.871,3.991-7.203c1.266,2.332,2.628,4.77,3.991,7.203c-1.267,2.236-2.629,4.572-3.991,6.906
								C94.969,164.896,93.605,162.658,92.34,160.324z M100.71,161.102c1.266,2.24,2.629,4.574,3.991,6.91
								c-1.265,2.143-2.629,4.381-3.991,6.617c-1.362-2.236-2.726-4.379-3.989-6.617C98.084,165.676,99.446,163.342,100.71,161.102z
								 M105.188,168.693c1.362,2.236,2.726,4.475,4.088,6.715c-1.264,2.141-2.627,4.188-3.989,6.328
								c-1.362-2.141-2.725-4.285-4.088-6.521C102.562,173.072,103.924,170.93,105.188,168.693z M105.578,168.012
								c1.362-2.336,2.725-4.572,3.991-6.91c1.362,2.338,2.725,4.67,4.088,7.008c-1.267,2.141-2.63,4.381-3.992,6.619
								C108.303,172.49,106.94,170.25,105.578,168.012z M114.144,168.889c1.266,2.141,2.628,4.381,3.99,6.621
								c-1.266,2.137-2.628,4.184-3.99,6.324c-1.363-2.141-2.726-4.188-3.992-6.324C111.515,173.27,112.877,171.029,114.144,168.889
								z M114.533,168.109c1.362-2.338,2.726-4.574,3.99-6.912c1.265,2.242,2.626,4.574,3.99,6.912
								c-1.266,2.141-2.627,4.381-3.99,6.619C117.162,172.49,115.896,170.346,114.533,168.109z M123,168.889
								c1.266,2.141,2.628,4.381,3.992,6.621c-1.266,2.137-2.628,4.184-3.992,6.324c-1.362-2.141-2.725-4.188-3.989-6.324
								C120.372,173.27,121.735,171.029,123,168.889z M123.488,168.109c1.363-2.338,2.725-4.574,3.989-6.912
								c1.267,2.242,2.629,4.574,3.99,6.912c-1.266,2.141-2.627,4.381-3.99,6.619C126.114,172.49,124.752,170.346,123.488,168.109z
								 M131.859,168.889c1.264,2.141,2.625,4.381,3.987,6.621c-1.263,2.137-2.624,4.184-3.987,6.324
								c-1.364-2.141-2.726-4.188-3.991-6.324C129.229,173.27,130.592,171.029,131.859,168.889z M132.344,168.109
								c1.365-2.338,2.727-4.67,4.089-7.008c1.266,2.24,2.627,4.574,3.992,6.91c-1.365,2.238-2.727,4.479-4.09,6.717
								C134.973,172.49,133.611,170.346,132.344,168.109z M140.813,168.693c1.263,2.141,2.625,4.379,3.989,6.619
								c-1.364,2.139-2.727,4.283-4.089,6.521c-1.361-2.141-2.727-4.188-3.988-6.324
								C138.187,173.168,139.548,170.93,140.813,168.693z M141.3,168.012c1.362-2.336,2.727-4.572,3.99-6.91
								c1.263,2.24,2.627,4.574,3.988,6.91c-1.265,2.143-2.625,4.381-3.988,6.617C143.93,172.393,142.565,170.154,141.3,168.012z
								 M145.679,160.324c1.362-2.434,2.724-4.871,3.99-7.203c1.267,2.332,2.627,4.77,3.991,7.203
								c-1.266,2.236-2.628,4.572-3.991,6.906C148.309,164.896,146.944,162.658,145.679,160.324z M154.148,161.102
								c1.266,2.24,2.626,4.574,3.99,6.91c-1.268,2.143-2.63,4.381-3.99,6.617c-1.364-2.236-2.726-4.379-3.991-6.617
								C151.52,165.676,152.784,163.342,154.148,161.102z M154.538,160.324c1.36-2.434,2.725-4.871,3.99-7.203
								c1.265,2.332,2.625,4.77,3.989,7.203c-1.265,2.236-2.627,4.572-3.989,6.906C157.166,164.896,155.802,162.658,154.538,160.324
								z M154.538,144.068c1.36-2.63,2.725-5.257,3.99-7.789v-0.097v0.097c1.265,2.531,2.625,5.158,3.989,7.789
								c-1.265,2.432-2.627,4.965-3.989,7.592C157.166,149.033,155.802,146.5,154.538,144.068z M154.148,125.38
								c-1.364-3.019-2.726-5.938-3.991-8.761c1.461-3.212,2.724-6.228,3.991-9.149c1.266,2.921,2.626,5.937,3.99,9.149
								C156.871,119.443,155.509,122.362,154.148,125.38z M153.66,126.254c-1.266,2.729-2.628,5.453-3.991,8.274
								c-1.36-2.821-2.725-5.546-3.99-8.274c1.362-3.018,2.724-5.839,3.99-8.663C150.936,120.319,152.296,123.237,153.66,126.254z
								 M145.29,125.38c-1.36-3.019-2.725-5.938-3.99-8.761c1.459-3.212,2.727-6.228,3.99-9.149
								c1.263,2.921,2.627,5.937,3.988,9.149C148.014,119.443,146.653,122.362,145.29,125.38z M144.803,126.254
								c-1.268,2.729-2.629,5.453-3.989,8.274c-1.362-2.821-2.727-5.546-3.991-8.274c1.364-3.018,2.726-5.839,3.991-8.663
								C142.076,120.319,143.438,123.237,144.803,126.254z M136.433,125.38c-1.46-3.019-2.821-6.034-4.089-8.956
								c1.461-3.212,2.727-6.228,3.991-9.149c1.264,3.018,2.628,6.131,4.09,9.343C139.159,119.443,137.795,122.362,136.433,125.38z
								 M135.945,126.254c-1.265,2.729-2.629,5.453-3.989,8.274c-1.461-2.921-2.822-5.746-4.088-8.471
								c1.361-3.015,2.724-5.836,3.991-8.661C133.123,120.222,134.584,123.14,135.945,126.254z M127.478,125.185
								c-1.363-3.015-2.726-5.938-3.989-8.76c1.459-3.212,2.725-6.228,3.989-9.149c1.267,2.921,2.629,5.937,3.99,9.149
								C130.202,119.247,128.841,122.17,127.478,125.185z M126.992,126.058c-1.266,2.725-2.628,5.451-3.992,8.276
								c-1.362-2.825-2.725-5.552-3.989-8.276c1.361-3.015,2.725-5.836,3.989-8.661
								C124.266,120.123,125.628,123.043,126.992,126.058z M118.621,125.185c-1.362-3.015-2.726-5.938-3.992-8.76
								c1.46-3.212,2.727-6.228,3.992-9.149c1.266,2.921,2.627,5.937,3.99,9.149C121.346,119.247,119.983,122.17,118.621,125.185z
								 M118.134,126.058c-1.266,2.725-2.725,5.649-4.087,8.471c-1.362-2.821-2.725-5.546-3.992-8.274
								c1.46-3.018,2.822-6.033,4.089-8.857C115.409,120.123,116.771,123.043,118.134,126.058z M109.665,125.38
								c-1.362-3.019-2.725-5.938-3.991-8.761c1.461-3.212,2.824-6.422,4.088-9.343c1.266,2.921,2.629,5.937,3.991,9.149
								C112.391,119.346,111.027,122.267,109.665,125.38z M109.18,126.254c-1.267,2.729-2.63,5.453-3.992,8.274
								c-1.362-2.821-2.725-5.546-3.989-8.274c1.363-3.018,2.726-5.839,3.989-8.663C106.453,120.319,107.816,123.237,109.18,126.254
								z M100.71,125.38c-1.362-3.019-2.726-5.938-3.989-8.761c1.459-3.212,2.726-6.228,3.989-9.149
								c1.266,2.921,2.629,5.937,3.991,9.149C103.533,119.443,102.171,122.362,100.71,125.38z M100.322,126.254
								c-1.267,2.729-2.629,5.453-3.991,8.274c-1.362-2.821-2.726-5.546-3.991-8.274c1.362-3.018,2.725-5.839,3.991-8.663
								C97.597,120.319,98.959,123.237,100.322,126.254z M91.853,125.38c-1.362-3.019-2.725-5.938-3.989-8.761
								c1.46-3.212,2.726-6.228,3.989-9.149c1.267,2.921,2.63,5.937,3.992,9.149C94.677,119.443,93.314,122.362,91.853,125.38z
								 M91.463,126.254c-1.264,2.729-2.627,5.453-3.989,8.274c-1.362-2.821-2.725-5.546-3.991-8.274
								c1.363-3.018,2.726-5.839,3.991-8.663C88.738,120.319,90.101,123.237,91.463,126.254z M82.996,125.38
								c-1.362-3.019-2.725-5.938-3.991-8.761c1.461-3.212,2.726-6.228,3.991-9.149c1.265,2.921,2.629,5.937,3.992,9.149
								C85.819,119.443,84.455,122.362,82.996,125.38z M82.606,126.254c-1.265,2.729-2.627,5.453-3.989,8.274
								c-1.362-2.821-2.725-5.546-3.991-8.274c1.362-3.018,2.726-5.839,3.991-8.663C79.881,120.319,81.244,123.237,82.606,126.254z
								 M82.996,127.13c1.265,2.729,2.629,5.451,3.992,8.273c-0.1,0.196-0.195,0.391-0.294,0.584
								c-1.168,2.339-2.434,4.772-3.698,7.302c-1.266-2.529-2.53-4.963-3.699-7.302c-0.098-0.193-0.193-0.388-0.292-0.584
								C80.367,132.582,81.73,129.76,82.996,127.13z M86.988,152.439c-1.267,2.334-2.63,4.768-3.992,7.201
								c-1.362-2.434-2.725-4.867-3.991-7.201c1.362-2.531,2.726-5.063,3.991-7.498C84.358,147.377,85.625,149.811,86.988,152.439z
								 M86.988,168.012c-1.267,2.143-2.63,4.381-3.992,6.617c-1.362-2.236-2.725-4.379-3.991-6.617
								c1.362-2.336,2.726-4.572,3.991-6.91C84.358,163.342,85.625,165.676,86.988,168.012z M87.474,168.693
								c1.265,2.141,2.627,4.379,3.989,6.619c-1.264,2.139-2.627,4.182-3.989,6.328c-1.362-2.146-2.725-4.189-3.991-6.328
								C84.846,173.072,86.208,170.93,87.474,168.693z M91.853,175.994c1.267,2.141,2.63,4.186,3.992,6.326
								c-1.267,2.043-2.629,4.088-3.992,6.033c-1.362-2.041-2.725-4.086-3.989-6.033C89.227,180.18,90.589,178.135,91.853,175.994z
								 M92.34,175.313c1.362-2.24,2.725-4.383,3.991-6.619c1.266,2.141,2.628,4.379,3.991,6.619
								c-1.267,2.139-2.629,4.182-3.991,6.328C94.969,179.494,93.605,177.355,92.34,175.313z M100.71,175.994
								c1.362,2.141,2.727,4.281,4.088,6.424c-1.265,2.043-2.627,3.99-3.989,6.035c-1.362-2.045-2.725-4.186-4.088-6.232
								C98.084,180.18,99.446,178.135,100.71,175.994z M105.286,183.197c1.264,2.043,2.627,3.988,3.989,6.033
								c-1.264,1.945-2.627,3.896-3.989,5.84c-1.362-1.943-2.725-3.895-3.991-5.84C102.657,187.186,104.021,185.143,105.286,183.197
								z M105.674,182.418c1.364-2.143,2.726-4.186,3.991-6.328c1.267,2.045,2.629,4.186,3.992,6.328
								c-1.267,2.043-2.63,3.99-3.992,6.035C108.399,186.504,107.038,184.461,105.674,182.418z M114.144,183.197
								c1.266,2.043,2.628,3.988,3.99,6.033c-1.266,1.945-2.628,3.896-3.99,5.84c-1.363-1.943-2.726-3.895-3.992-5.84
								C111.515,187.186,112.877,185.143,114.144,183.197z M114.629,182.418c1.363-2.143,2.727-4.186,3.992-6.328
								c1.266,2.045,2.627,4.186,3.99,6.328c-1.266,2.043-2.628,3.99-3.99,6.035C117.259,186.504,115.896,184.461,114.629,182.418z
								 M123,183.197c1.266,2.043,2.628,3.988,3.992,6.033c-1.266,1.945-2.628,3.896-3.992,5.84
								c-1.362-1.943-2.725-3.895-3.989-5.84C120.372,187.186,121.735,185.143,123,183.197z M123.488,182.418
								c1.363-2.143,2.725-4.186,3.989-6.328c1.267,2.045,2.629,4.186,3.99,6.328c-1.266,2.043-2.627,3.99-3.99,6.035
								C126.114,186.504,124.752,184.461,123.488,182.418z M131.859,183.197c1.264,2.043,2.625,3.988,3.987,6.033
								c-1.263,1.945-2.624,3.896-3.987,5.84c-1.364-1.943-2.726-3.895-3.991-5.84C129.229,187.186,130.592,185.143,131.859,183.197
								z M132.344,182.418c1.365-2.143,2.727-4.186,3.991-6.328c1.264,2.045,2.628,4.186,3.99,6.328
								c-1.266,2.043-2.627,3.99-3.99,6.035C134.973,186.504,133.611,184.461,132.344,182.418z M140.714,183.197
								c1.267,2.043,2.628,3.988,3.989,6.033c-1.265,1.945-2.627,3.896-3.989,5.84c-1.361-1.943-2.727-3.895-3.988-5.84
								C138.087,187.186,139.451,185.143,140.714,183.197z M141.201,182.418c1.364-2.143,2.729-4.283,4.089-6.424
								c1.263,2.141,2.627,4.186,3.988,6.326c-1.361,2.043-2.726,4.088-4.088,6.229C143.83,186.504,142.469,184.461,141.201,182.418
								z M145.679,175.313c1.362-2.24,2.724-4.383,3.99-6.619c1.267,2.141,2.627,4.379,3.991,6.619
								c-1.266,2.139-2.628,4.182-3.991,6.328C148.309,179.494,147.041,177.355,145.679,175.313z M154.148,175.994
								c1.266,2.141,2.626,4.186,3.99,6.326c-1.268,2.043-2.63,4.088-3.99,6.033c-1.364-2.041-2.726-4.086-3.991-6.033
								C151.52,180.18,152.784,178.135,154.148,175.994z M154.538,175.313c1.36-2.24,2.725-4.383,3.99-6.619
								c1.265,2.141,2.625,4.379,3.989,6.619c-1.265,2.139-2.627,4.182-3.989,6.328
								C157.166,179.494,155.898,177.355,154.538,175.313z M159.015,168.012c1.362-2.336,2.727-4.572,3.987-6.91
								c1.268,2.24,2.63,4.574,3.991,6.91c-1.263,2.143-2.624,4.381-3.991,6.617C161.642,172.393,160.279,170.154,159.015,168.012z
								 M159.015,152.439c1.362-2.531,2.727-5.063,3.987-7.498c1.268,2.436,2.63,4.967,3.991,7.498
								c-1.263,2.334-2.624,4.768-3.991,7.201C161.642,157.207,160.279,154.773,159.015,152.439z M159.305,135.988
								c-0.097-0.193-0.193-0.388-0.29-0.584c1.362-2.822,2.727-5.545,3.987-8.273c1.268,2.729,2.63,5.451,3.991,8.273
								c-0.097,0.196-0.193,0.391-0.29,0.584c-1.169,2.339-2.434,4.772-3.701,7.302C161.642,140.76,160.476,138.327,159.305,135.988
								z M163.394,126.254c1.364-3.018,2.727-5.839,3.991-8.663c1.264,2.824,2.626,5.743,3.989,8.663
								c-1.265,2.729-2.629,5.453-3.989,8.274C166.021,131.708,164.658,128.983,163.394,126.254z M163.002,85.473
								c1.17,3.018,2.434,6.521,3.991,10.416c-1.166,3.016-2.527,6.324-3.991,9.734c-1.457-3.506-2.821-6.718-3.987-9.734
								C160.476,91.994,161.836,88.491,163.002,85.473z M162.614,106.495c-1.265,2.921-2.627,6.036-3.991,9.152
								c-1.457-3.212-2.821-6.23-3.987-9.152c1.458-3.404,2.821-6.713,3.987-9.731C159.793,99.879,161.153,103.091,162.614,106.495z
								 M154.148,85.473c1.166,3.018,2.433,6.521,3.99,10.416c-1.169,3.016-2.533,6.324-3.99,9.734
								c-1.461-3.506-2.822-6.718-3.991-9.734C151.618,91.994,152.98,88.491,154.148,85.473z M153.757,106.495
								c-1.266,2.921-2.627,6.036-3.991,9.152c-1.457-3.212-2.821-6.23-3.989-9.152c1.46-3.404,2.822-6.713,3.989-9.731
								C150.936,99.879,152.202,103.091,153.757,106.495z M145.19,85.182c1.169,3.018,2.533,6.619,4.088,10.609
								c-1.165,3.018-2.527,6.325-3.988,9.733c-1.559-3.603-2.921-6.91-4.089-10.024C142.662,91.7,144.026,88.2,145.19,85.182z
								 M144.803,106.495c-1.268,2.921-2.629,6.036-3.989,9.152c-1.461-3.31-2.826-6.424-4.088-9.44
								c1.461-3.409,2.822-6.718,3.988-9.734C141.98,99.685,143.342,102.995,144.803,106.495z M136.335,85.182
								c1.167,3.018,2.432,6.519,3.99,10.415c-1.166,3.018-2.53,6.325-3.99,9.731c-1.458-3.504-2.822-6.713-3.991-9.731
								C133.805,91.7,135.165,88.2,136.335,85.182z M135.847,106.303c-1.263,2.919-2.624,6.034-3.987,9.246
								c-1.461-3.212-2.825-6.23-3.991-9.246c1.461-3.406,2.821-6.718,3.991-9.734C133.123,99.585,134.388,102.897,135.847,106.303z
								 M127.478,85.182c1.167,3.018,2.433,6.519,3.99,10.415c-1.169,3.018-2.531,6.325-3.99,9.731
								c-1.458-3.504-2.823-6.713-3.989-9.731C124.947,91.7,126.311,88.2,127.478,85.182z M126.992,106.303
								c-1.266,2.919-2.628,6.034-3.992,9.246c-1.459-3.212-2.821-6.23-3.989-9.246c1.459-3.406,2.821-6.718,3.989-9.734
								C124.266,99.585,125.531,102.897,126.992,106.303z M118.621,85.182c1.167,3.018,2.432,6.519,3.99,10.415
								c-1.169,3.018-2.531,6.325-3.99,9.731c-1.459-3.504-2.823-6.713-3.992-9.731C116.089,91.7,117.452,88.2,118.621,85.182z
								 M118.134,106.303c-1.266,2.919-2.628,6.034-3.99,9.246c-1.459-3.212-2.821-6.23-3.992-9.246
								c1.461-3.406,2.824-6.718,3.992-9.734C115.311,99.585,116.674,102.897,118.134,106.303z M109.665,85.182
								c1.169,3.018,2.435,6.519,3.992,10.415c-1.171,3.018-2.533,6.325-3.992,9.731c-1.459-3.504-2.821-6.713-3.991-9.731
								C107.231,91.7,108.596,88.2,109.665,85.182z M109.275,106.303c-1.264,3.016-2.627,6.131-4.088,9.439
								c-1.459-3.212-2.821-6.23-3.989-9.148c1.459-3.504,2.92-6.813,4.088-9.928C106.453,99.585,107.816,102.897,109.275,106.303z
								 M100.809,85.182c1.167,3.018,2.435,6.519,3.989,10.415c-1.265,3.115-2.627,6.422-4.088,10.025
								c-1.459-3.506-2.821-6.718-3.989-9.734C98.374,91.8,99.737,88.296,100.809,85.182z M100.322,106.495
								c-1.267,2.921-2.629,6.036-3.991,9.152c-1.459-3.212-2.821-6.23-3.991-9.152c1.461-3.404,2.823-6.713,3.991-9.731
								C97.499,99.879,98.861,103.091,100.322,106.495z M91.853,85.473c1.17,3.018,2.435,6.521,3.992,10.416
								c-1.168,3.016-2.53,6.324-3.992,9.734c-1.458-3.506-2.821-6.718-3.989-9.734C89.42,91.994,90.783,88.491,91.853,85.473z
								 M91.463,106.495c-1.264,2.921-2.627,6.036-3.989,9.152c-1.461-3.212-2.823-6.23-3.991-9.152
								c1.46-3.404,2.824-6.713,3.991-9.731C88.642,99.879,90.005,103.091,91.463,106.495z M82.996,85.473
								c1.168,3.018,2.435,6.521,3.992,10.416c-1.169,3.016-2.533,6.324-3.992,9.734c-1.459-3.506-2.821-6.718-3.991-9.734
								C80.563,91.994,81.926,88.491,82.996,85.473z M78.617,96.861c1.166,3.018,2.53,6.23,3.989,9.734
								c-1.265,2.918-2.627,6.036-3.989,9.148c-1.461-3.212-2.824-6.23-3.991-9.148C76.085,103.091,77.352,99.879,78.617,96.861z
								 M70.148,116.619c1.461-3.212,2.725-6.228,3.991-9.149c1.264,2.921,2.627,5.937,3.989,9.149
								c-1.265,2.824-2.627,5.743-3.989,8.761C72.776,122.362,71.414,119.443,70.148,116.619z M70.439,135.988
								c-0.097-0.193-0.193-0.388-0.291-0.584c1.362-2.822,2.725-5.545,3.991-8.273c1.264,2.729,2.627,5.451,3.989,8.273
								c-0.097,0.196-0.193,0.391-0.292,0.584c-1.167,2.339-2.434,4.772-3.697,7.302C72.873,140.76,71.609,138.327,70.439,135.988z
								 M74.626,144.068c1.362-2.63,2.726-5.257,3.991-7.789v-0.097v0.097c1.264,2.531,2.627,5.158,3.989,7.789
								c-1.265,2.432-2.627,4.965-3.989,7.496C77.156,149.033,75.893,146.5,74.626,144.068z M74.626,160.324
								c1.362-2.434,2.726-4.871,3.991-7.203c1.264,2.332,2.627,4.77,3.989,7.203c-1.265,2.236-2.627,4.572-3.989,6.906
								C77.255,164.896,75.893,162.658,74.626,160.324z M74.626,175.313c1.362-2.24,2.726-4.383,3.991-6.619
								c1.264,2.141,2.627,4.379,3.989,6.619c-1.265,2.139-2.627,4.182-3.989,6.328C77.255,179.494,75.893,177.355,74.626,175.313z
								 M79.005,182.32c1.362-2.141,2.726-4.186,3.991-6.326c1.265,2.141,2.629,4.186,3.992,6.326
								c-1.267,2.043-2.63,4.088-3.992,6.033C81.634,186.313,80.367,184.363,79.005,182.32z M83.482,189.037
								c1.363-2.045,2.726-3.99,3.991-6.037c1.265,2.047,2.627,3.992,3.989,6.037c-1.264,1.945-2.627,3.891-3.989,5.84
								C86.111,192.928,84.749,190.982,83.482,189.037z M91.952,201.201c-1.363-1.85-2.726-3.795-4.089-5.643
								c1.363-1.949,2.627-3.895,3.989-5.844c1.363,1.949,2.726,3.992,4.089,5.939C94.677,197.504,93.314,199.352,91.952,201.201z
								 M92.34,189.037c1.362-2.045,2.725-3.99,3.991-6.037c1.362,2.047,2.725,4.088,4.088,6.23
								c-1.267,1.945-2.629,3.896-3.992,5.84C95.064,193.025,93.702,191.078,92.34,189.037z M96.915,195.654
								c1.363-1.947,2.628-3.891,3.991-5.842c1.265,1.951,2.627,3.895,3.99,5.842c-1.267,1.85-2.629,3.697-3.99,5.547
								C99.543,199.352,98.18,197.504,96.915,195.654z M105.286,207.141c-1.362-1.752-2.629-3.504-3.991-5.352
								c1.362-1.852,2.629-3.701,3.991-5.551c1.264,1.85,2.627,3.699,3.989,5.551C107.913,203.637,106.648,205.389,105.286,207.141z
								 M105.772,195.654c1.362-1.947,2.627-3.891,3.989-5.842c1.266,1.951,2.629,3.895,3.991,5.842
								c-1.267,1.85-2.629,3.697-3.991,5.547C108.399,199.352,107.038,197.504,105.772,195.654z M114.144,207.141
								c-1.363-1.752-2.629-3.504-3.992-5.352c1.363-1.852,2.629-3.701,3.992-5.551c1.266,1.85,2.628,3.699,3.99,5.551
								C116.771,203.637,115.506,205.389,114.144,207.141z M114.629,195.654c1.363-1.947,2.63-3.891,3.992-5.842
								c1.266,1.951,2.627,3.895,3.99,5.842c-1.266,1.85-2.628,3.697-3.99,5.547C117.259,199.352,115.896,197.504,114.629,195.654z
								 M123,207.141c-1.362-1.752-2.628-3.504-3.989-5.352c1.361-1.852,2.627-3.701,3.989-5.551
								c1.266,1.85,2.628,3.699,3.992,5.551C125.628,203.637,124.364,205.389,123,207.141z M123.488,195.654
								c1.363-1.947,2.626-3.891,3.989-5.842c1.267,1.951,2.629,3.895,3.99,5.842c-1.266,1.85-2.627,3.697-3.99,5.547
								C126.114,199.352,124.752,197.504,123.488,195.654z M131.859,207.141c-1.364-1.752-2.63-3.504-3.991-5.352
								c1.361-1.852,2.627-3.701,3.991-5.551c1.264,1.85,2.625,3.699,3.987,5.551C134.584,203.637,133.223,205.389,131.859,207.141z
								 M132.344,195.654c1.365-1.947,2.629-3.891,3.991-5.842c1.264,1.951,2.628,3.895,3.99,5.842
								c-1.266,1.85-2.627,3.697-3.99,5.547C134.973,199.352,133.611,197.504,132.344,195.654z M140.714,207.141
								c-1.361-1.752-2.627-3.504-3.988-5.352c1.361-1.852,2.627-3.701,3.988-5.551c1.267,1.85,2.628,3.699,3.989,5.551
								C143.438,203.637,142.076,205.389,140.714,207.141z M145.19,201.201c-1.36-1.85-2.625-3.697-3.989-5.547
								c1.364-1.947,2.629-3.891,3.989-5.842c1.266,1.951,2.63,3.895,3.991,5.842C147.82,197.504,146.553,199.352,145.19,201.201z
								 M145.583,189.23c1.361-2.045,2.726-4.088,4.086-6.23c1.267,2.047,2.627,3.992,3.991,6.037
								c-1.364,1.945-2.725,3.988-4.088,5.936C148.21,193.025,146.944,191.176,145.583,189.23z M154.052,201.201
								c-1.364-1.85-2.629-3.697-3.993-5.547c1.364-1.947,2.726-3.99,4.09-5.939c1.266,1.949,2.626,3.895,3.99,5.844
								C156.774,197.406,155.414,199.352,154.052,201.201z M158.528,194.877c-1.362-1.949-2.727-3.895-3.99-5.84
								c1.36-2.045,2.725-3.99,3.99-6.037c1.265,2.047,2.625,3.992,3.989,6.037C161.253,190.982,159.891,192.928,158.528,194.877z
								 M163.002,188.354c-1.36-2.041-2.723-4.086-3.987-6.033c1.362-2.141,2.727-4.186,3.987-6.326
								c1.268,2.141,2.63,4.186,3.991,6.326C165.632,184.363,164.366,186.313,163.002,188.354z M171.374,175.313
								c-1.265,2.139-2.629,4.182-3.989,6.328c-1.364-2.146-2.727-4.189-3.991-6.328c1.364-2.24,2.727-4.383,3.991-6.619
								C168.745,170.93,170.011,173.072,171.374,175.313z M171.374,160.324c-1.265,2.236-2.629,4.572-3.989,6.906
								c-1.364-2.334-2.727-4.67-3.991-6.906c1.364-2.434,2.727-4.871,3.991-7.203C168.745,155.553,170.011,157.891,171.374,160.324
								z M167.385,151.564c-1.364-2.531-2.727-5.064-3.991-7.496c1.364-2.63,2.727-5.257,3.991-7.789v-0.097v0.097
								c1.264,2.531,2.626,5.158,3.989,7.789C170.109,146.5,168.845,149.033,167.385,151.564z M175.853,135.404
								c-0.099,0.196-0.195,0.391-0.292,0.584c-1.167,2.339-2.434,4.772-3.7,7.302c-1.263-2.529-2.527-4.963-3.696-7.302
								c-0.099-0.193-0.195-0.388-0.292-0.584c1.362-2.822,2.726-5.545,3.988-8.273C173.127,129.76,174.488,132.582,175.853,135.404
								z M171.86,125.38c-1.361-3.019-2.724-5.938-3.988-8.761c1.461-3.212,2.726-6.228,3.988-9.149
								c1.267,2.921,2.628,5.937,3.992,9.149C174.585,119.443,173.224,122.362,171.86,125.38z"/>
							<path fill="#A3A5A8" d="M166.021,206.459c0.1-0.295,0.196-0.584,0.196-0.973c-0.39-0.584-0.781-1.07-1.169-1.656
								c-0.29,0.098-0.485,0.195-0.778,0.195C164.854,204.902,165.436,205.676,166.021,206.459z"/>
							<path fill="#A3A5A8" d="M80.856,205.289c0.681-0.873,1.264-1.75,1.944-2.625c-0.194-0.1-0.486-0.197-0.681-0.295
								c-0.486,0.684-0.973,1.365-1.558,2.047C80.661,204.707,80.757,205,80.856,205.289z"/>
							<path fill="#A3A5A8" d="M171.57,200.717c-0.875-1.266-1.752-2.531-2.726-3.701c-0.1,0.295-0.1,0.684-0.196,0.975
								c0.685,0.973,1.461,2.043,2.146,3.018C171.082,200.91,171.374,200.813,171.57,200.717z"/>
						</g>
					</g>
				</g>
			</g>
			<path fill="#707376" d="M123,103.577c-15.184,0-29.49-1.07-40.199-2.919c-11.582-2.043-17.422-4.77-17.422-7.981
				c0-3.31,5.84-6.035,17.422-8.08c10.709-1.851,25.016-2.918,40.199-2.918c15.187,0,29.491,1.067,40.199,2.918
				c11.585,2.045,17.422,4.77,17.422,7.982c0,3.31-5.837,6.036-17.422,7.979C152.491,102.506,138.187,103.577,123,103.577z
				 M123,83.721c-34.455,0-55.577,5.158-55.577,8.955c0,3.697,21.122,8.954,55.577,8.954c34.457,0,55.575-5.158,55.575-8.954
				C178.575,88.879,157.457,83.721,123,83.721z"/>
		</g>
	</g>
	<g>
		<g>
			<path fill="#FFFFFF" d="M-18.025,159.316c0,2.75-1.949,3.875-4.33,2.5l-22.957-13.252c-2.381-1.375-2.381-3.625,0-5
				l22.957-13.254c2.381-1.375,4.33-0.25,4.33,2.5V159.316z"/>
		</g>
		<g>
			<path fill="#FFFFFF" d="M264.025,132.813c0-2.75,1.948-3.875,4.33-2.5l22.957,13.253c2.382,1.375,2.382,3.625,0,5l-22.957,13.254
				c-2.382,1.375-4.33,0.25-4.33-2.5V132.813z"/>
		</g>
	</g>
	<g>
		<path fill="#FFFFFF" stroke="#000000" stroke-width="2" stroke-linejoin="round" stroke-miterlimit="10" d="M-35.208,198.609
			l-19.396-19.053c0,0-1.582-2.75,0.757-4.607c2.338-1.857,4.883,0,5.64,0.619c0.757,0.551,9.835,7.359,9.835,7.359v-26.756
			c0,0,0.551-3.645,4.334-3.645s4.195,3.92,4.195,3.92v18.502v-9.148c0,0,0.068-2.613,2.957-2.613c2.891,0,3.234,2.613,3.234,2.613
			v9.08v-6.191c0,0,1.307-1.994,3.576-1.994c2.338,0,3.301,2.545,3.301,2.545v5.641v-2.752c0.412-1.443,1.789-2.27,3.92-2.27
			c2.27,0,3.096,1.857,3.439,3.301c0.207,0.963,0.207,1.789,0.207,1.789s-0.275,15.063-0.551,16.025
			c-0.275,1.031-4.059,8.529-8.391,9.08C-22.551,200.674-28.465,202.668-35.208,198.609z"/>
		<path fill="#FFFFFF" stroke="#000000" stroke-width="2" stroke-linejoin="round" stroke-miterlimit="10" d="M275.126,198.609
			l-19.395-19.053c0,0-1.582-2.75,0.756-4.607c2.339-1.857,4.884,0,5.641,0.619c0.756,0.551,9.834,7.359,9.834,7.359v-26.756
			c0,0,0.551-3.645,4.334-3.645s4.195,3.92,4.195,3.92v18.502v-9.148c0,0,0.068-2.613,2.957-2.613c2.891,0,3.234,2.613,3.234,2.613
			v9.08v-6.191c0,0,1.307-1.994,3.576-1.994c2.338,0,3.301,2.545,3.301,2.545v5.641v-2.752c0.412-1.443,1.789-2.27,3.92-2.27
			c2.27,0,3.096,1.857,3.439,3.301c0.207,0.963,0.207,1.789,0.207,1.789s-0.275,15.063-0.551,16.025
			c-0.275,1.031-4.059,8.529-8.391,9.08C287.782,200.674,281.868,202.668,275.126,198.609z"/>
	</g>
	<g>
		<g>
			<path fill="#FFFFFF" d="M-111.418,20.959c0.857-0.925,1.309-2.525,1.512-4.014l1.443,0.383c-0.248,1.646-0.632,3.36-1.579,4.375
				L-111.418,20.959z M-111.012,14.396c1.15-0.045,2.571-0.09,4.127-0.158v-1.466h-3.608v-1.623h3.608V9.863h-3.518V1.744h9.065
				v8.119h-3.676v1.286h3.744v1.623h-3.744v1.376c1.354-0.067,2.751-0.136,4.127-0.203l-0.067,1.669
				c-3.586,0.248-7.33,0.429-9.969,0.587L-111.012,14.396z M-108.824,8.397h2.188V3.211h-2.188V8.397z M-107.696,4
				c0.36,1.037,0.677,2.436,0.722,3.293l-1.015,0.315c-0.046-0.902-0.294-2.301-0.654-3.36L-107.696,4z M-106.682,16.877
				c0.338,1.218,0.563,2.819,0.563,3.879l-1.397,0.181c0-1.06-0.203-2.661-0.474-3.924L-106.682,16.877z M-104.539,16.674
				c0.496,1.128,0.947,2.616,1.105,3.609l-1.354,0.315c-0.113-0.992-0.563-2.504-1.037-3.676L-104.539,16.674z M-102.983,3.211h-2.3
				v5.187h2.3V3.211z M-105.103,7.383c0.338-0.925,0.744-2.458,0.924-3.45l1.15,0.428c-0.429,1.128-0.856,2.504-1.24,3.338
				L-105.103,7.383z M-102.396,16.178c0.789,1.038,1.556,2.459,1.872,3.406l-1.376,0.586c-0.293-0.97-1.037-2.436-1.759-3.496
				L-102.396,16.178z M-95.112,7.721v3.856h3.744v10.014h-1.985v-0.88h-5.006v0.97h-1.917V11.577h3.135V1.022h2.029v4.759h4.601
				v1.939H-95.112z M-93.354,13.494h-5.006v5.3h5.006V13.494z"/>
			<path fill="#FFFFFF" d="M-77.296,17.103h9.382v1.421h-9.382v1.263c0,1.016-0.248,1.421-1.015,1.691
				c-0.789,0.249-1.939,0.249-3.721,0.249c-0.113-0.497-0.429-1.15-0.677-1.602c1.218,0.045,2.525,0.045,2.864,0.022
				c0.36-0.022,0.474-0.113,0.474-0.406v-1.218h-9.359v-1.421h9.359v-0.947h-7.42v-1.353h7.42v-0.947
				c-2.661,0.09-5.413,0.09-7.938,0.045c0-0.338-0.181-0.902-0.315-1.24c5.705,0.09,12.787-0.113,16.396-0.654l1.353,1.105
				c-2.029,0.293-4.646,0.519-7.42,0.653v1.038h6.992v1.353h-6.992V17.103z M-84.196,9.457h-4.375V8.353h4.375V7.698h-3.271V3.864
				h3.271V3.211h-3.925v-1.15h3.925V1h1.646v1.061h4.104v1.15h-4.104v0.653h3.45v1.331c1.827-0.654,2.165-1.398,2.165-2.256V1.677
				h6.021v2.12c0,0.474,0.045,0.632,0.36,0.632h1.264c0.293,0,0.834-0.022,1.127-0.091c0.023,0.451,0.068,1.083,0.113,1.534
				c-0.271,0.112-0.767,0.112-1.195,0.112h-1.533c-1.602,0-1.94-0.632-1.94-2.21V3.143h-2.48c-0.022,1.331-0.631,2.661-3.09,3.496
				c-0.157-0.226-0.496-0.609-0.812-0.925v1.984h-3.45v0.654h4.239v1.104h-4.239v1.376h1.939V9.706h1.533v2.277h-8.412V9.706h1.488
				v1.127h1.805V9.457z M-86.023,5.376h1.827V4.699h-1.827V5.376z M-84.196,6.864V6.188h-1.827v0.677H-84.196z M-82.55,4.699v0.677
				h1.962V4.699H-82.55z M-80.588,6.188h-1.962v0.677h1.962V6.188z M-69.56,6.751c-0.564,1.398-1.421,2.458-2.549,3.271
				c1.285,0.474,2.751,0.789,4.33,0.97c-0.36,0.36-0.834,1.015-1.06,1.488c-1.827-0.271-3.496-0.789-4.917-1.488
				c-1.308,0.586-2.819,0.992-4.42,1.263c-0.158-0.406-0.474-1.037-0.744-1.376c1.285-0.157,2.525-0.428,3.608-0.812
				c-0.722-0.563-1.331-1.15-1.827-1.85l1.083-0.36h-1.376V6.48h6.54l0.338-0.067L-69.56,6.751z M-75.469,7.856
				c0.451,0.541,1.083,1.037,1.805,1.466c0.676-0.406,1.285-0.902,1.736-1.466H-75.469z"/>
			<path fill="#FFFFFF" d="M-65.139,8.668h0.203c-0.181-0.474-0.654-1.15-1.016-1.488c3.879-0.925,4.466-2.571,4.624-6.157h1.826
				c-0.067,1.512-0.203,2.729-0.541,3.767c1.15,0.677,2.594,1.624,3.383,2.232l-1.354,1.309c-0.653-0.519-1.804-1.331-2.841-2.03
				c-0.79,1.061-2.008,1.805-3.992,2.368h9.518c-0.181-0.474-0.699-1.15-1.038-1.511c3.789-0.992,4.375-2.751,4.578-6.157h1.895
				c-0.09,1.489-0.248,2.707-0.608,3.767c1.443,0.834,3.337,1.939,4.33,2.661l-1.15,1.24h0.992v3.992h-2.098v-2.232h-14.704v2.232
				h-2.007V8.668z M-64.034,5.24c-0.271-0.722-0.789-1.895-1.263-2.751l1.443-0.474c0.474,0.812,1.06,1.962,1.331,2.639
				L-64.034,5.24z M-47.48,21.861c-0.271-0.338-0.631-0.722-1.015-1.15c-5.932,0.203-12.179,0.406-16.261,0.474l-0.18-1.895
				c2.142-0.022,4.961-0.067,8.096-0.112v-1.917h-5.818v-5.119h5.818v-1.624h2.053v1.624h6.044v5.119h-0.857
				c1.466,1.105,3.09,2.616,3.947,3.631L-47.48,21.861z M-56.84,15.704v-2.007h-3.856v2.007H-56.84z M-56.005,2.714
				c-0.677,0.925-1.443,1.85-2.008,2.437l-1.24-0.496c0.496-0.722,1.195-1.805,1.557-2.526L-56.005,2.714z M-54.606,5.218
				c-0.226-0.722-0.722-1.962-1.15-2.842l1.488-0.451c0.429,0.88,0.97,2.053,1.218,2.752L-54.606,5.218z M-47.706,8.668
				c-0.879-0.654-2.346-1.601-3.631-2.391c-0.767,1.038-1.984,1.827-3.834,2.391H-47.706z M-54.787,13.697v2.007h3.969v-2.007
				H-54.787z M-54.787,19.133l4.533-0.113c-0.474-0.405-0.993-0.834-1.443-1.195l1.24-0.563h-4.33V19.133z M-45.97,2.714
				c-0.744,0.925-1.578,1.872-2.21,2.504l-1.285-0.563c0.541-0.722,1.285-1.827,1.669-2.571L-45.97,2.714z"/>
			<path fill="#FFFFFF" d="M-27.837,14.284c1.376,1.06,3.248,1.917,5.119,2.39c-0.428,0.339-0.992,1.083-1.24,1.557
				c-0.879-0.271-1.759-0.632-2.571-1.105v2.233c0,0.879-0.157,1.308-0.767,1.578c-0.608,0.271-1.511,0.248-2.818,0.248
				c-0.091-0.496-0.316-1.104-0.542-1.578c0.813,0.022,1.557,0.022,1.782,0.022c0.248,0,0.338-0.068,0.338-0.293v-1.827h-3.767
				v4.172h-2.029v-4.172h-3.383v3.721h-2.007V16.99c-0.835,0.496-1.737,0.925-2.752,1.33c-0.226-0.474-0.789-1.24-1.173-1.578
				c1.895-0.654,3.429-1.512,4.624-2.458h-4.218v-1.646h5.932c0.293-0.339,0.541-0.677,0.744-1.038h-4.149V5.285h15.109V11.6h-8.66
				c-0.203,0.361-0.428,0.699-0.653,1.038h11.682v1.646H-27.837z M-37.985,4.067h-5.052V2.421h5.052V1h2.052v1.421h2.413v1.646
				h-2.413V4.97h-2.052V4.067z M-38.707,7.812h11.006V6.57h-11.006V7.812z M-38.707,10.314h11.006V9.029h-11.006V10.314z
				 M-28.423,15.862c-0.632-0.496-1.195-1.015-1.669-1.578h-6.18c-0.519,0.563-1.105,1.082-1.759,1.578h3.698V14.6h2.029v1.263
				H-28.423z M-30.61,4.067h-2.211V2.421h2.211V1h2.052v1.421h5.232v1.646h-5.232V4.97h-2.052V4.067z"/>
			<path fill="#FFFFFF" d="M-0.57,19.088v2.029h-15.968v-2.029h7.127v-6.202h-4.759v-1.443c-1.308,3.473-3.112,6.63-5.729,8.998
				c-0.338-0.474-0.97-1.24-1.398-1.669c3.271-2.864,5.188-7.262,6.383-11.84h-5.48V4.925h5.932
				c0.293-1.331,0.519-2.639,0.722-3.902l2.188,0.271c-0.203,1.195-0.451,2.413-0.699,3.631h11.299v2.007h-11.795
				c-0.36,1.331-0.722,2.661-1.195,3.946h12.472v2.008h-5.796v6.202H-0.57z"/>
			<path fill="#FFFFFF" d="M7.661,1.632C7.165,3.12,6.579,4.631,5.902,6.074v15.606H3.918V9.729
				c-0.587,0.924-1.173,1.759-1.805,2.48c-0.181-0.519-0.722-1.691-1.037-2.21c1.872-2.188,3.608-5.525,4.646-8.908L7.661,1.632z
				 M10.954,17.419C10.21,18.84,9.015,20.576,8,21.591c-0.361-0.338-1.061-0.88-1.512-1.173c1.061-0.947,2.165-2.639,2.706-3.901
				L10.954,17.419z M14.472,16.224H8V2.331h6.472V16.224z M12.623,4.022H9.759v2.413h2.864V4.022z M12.623,8.06H9.759v2.413h2.864
				V8.06z M12.623,12.073H9.759v2.459h2.864V12.073z M13.254,16.517c0.768,1.15,1.624,2.684,1.985,3.653l-1.602,0.97
				c-0.315-0.992-1.173-2.616-1.895-3.812L13.254,16.517z M17.832,16.606h-1.849V3.368h1.849V16.606z M21.599,1.316v17.951
				c0,1.128-0.248,1.714-0.88,2.03c-0.631,0.338-1.669,0.405-3.27,0.405c-0.067-0.541-0.316-1.42-0.609-2.007
				c1.105,0.045,2.098,0.045,2.413,0.045c0.316-0.022,0.429-0.112,0.429-0.451V1.316H21.599z"/>
			<path fill="#FFFFFF" d="M-109.884,33.792c-0.339-0.383-0.947-0.992-1.354-1.308c1.398-1.105,2.684-2.842,3.405-4.623l1.872,0.563
				c-0.136,0.315-0.271,0.586-0.429,0.902h5.3v1.623h-3.54c0.519,0.542,1.082,1.195,1.353,1.646l-1.104,0.857h3.292v1.24h-2.999
				v0.97h2.706v2.12c1.15-1.24,2.12-3,2.684-4.781l1.939,0.496c-0.157,0.451-0.338,0.902-0.496,1.354h6.428v1.781h-7.33
				c-0.586,1.082-1.24,2.052-1.962,2.819c-0.271-0.316-0.812-0.925-1.263-1.286v0.902h-2.706v1.105h3.383v1.285h-9.179V33.792z
				 M-92.992,46.579h2.277v1.602h-20.319v-1.602h2.525v-4.217h15.517V46.579z M-107.336,30.95c-0.631,0.947-1.308,1.805-2.007,2.504
				h4.511c-0.384-0.564-1.015-1.309-1.512-1.872l0.902-0.632H-107.336z M-105.779,34.694h-2.21v0.97h2.21V34.694z M-103.141,36.77
				h-4.849v1.195h4.849V36.77z M-105.779,39.069h-2.21v1.105h2.21V39.069z M-106.501,46.579h2.48v-2.661h-2.48V46.579z
				 M-102.081,43.918v2.661h2.504v-2.661H-102.081z M-90.646,29.35v1.623h-4.33c0.608,0.632,1.308,1.398,1.623,1.917l-1.511,1.061
				c-0.383-0.632-1.218-1.646-1.917-2.368l0.97-0.609h-2.052c-0.632,1.128-1.354,2.143-2.143,2.91
				c-0.339-0.316-1.128-0.971-1.579-1.264c1.309-1.127,2.391-2.887,2.978-4.735l1.917,0.474c-0.113,0.338-0.248,0.653-0.361,0.992
				H-90.646z M-98.901,40.783v-1.736h7.308v1.736H-98.901z M-97.615,43.918v2.661h2.525v-2.661H-97.615z"/>
			<path fill="#FFFFFF" d="M-68.185,39.994h-8.953v6.157c0,1.285-0.315,1.917-1.263,2.232c-0.947,0.338-2.436,0.383-4.533,0.383
				c-0.136-0.608-0.541-1.578-0.902-2.165c1.714,0.068,3.405,0.068,3.901,0.046c0.474-0.022,0.609-0.136,0.609-0.542v-6.111h-9.089
				v-2.098h9.089v-3.18c1.669-0.789,3.631-2.007,5.097-3.18h-11.952v-2.053h14.253l0.474-0.112l1.578,1.218
				c-1.917,1.85-4.69,3.879-7.262,5.232v2.074h8.953V39.994z"/>
			<path fill="#FFFFFF" d="M-59.208,33.792c-0.519,0.947-1.149,1.895-1.826,2.819v12.155h-2.143v-9.584
				c-0.677,0.722-1.398,1.375-2.075,1.939c-0.18-0.474-0.699-1.624-1.06-2.12c1.917-1.443,3.991-3.699,5.255-5.954L-59.208,33.792z
				 M-59.568,28.898c-1.331,1.984-3.405,4.127-5.367,5.48c-0.226-0.496-0.768-1.331-1.083-1.737c1.669-1.127,3.519-2.977,4.443-4.51
				L-59.568,28.898z M-45.496,46.083v2.008h-14.208v-2.008h6.135v-5.231h-4.714v-2.008h4.714v-4.556h-5.48v-1.984h6.066
				c-0.293-0.97-1.037-2.503-1.736-3.653l1.917-0.677c0.722,1.128,1.533,2.616,1.872,3.586l-1.984,0.744h6.833v1.984h-5.3v4.556
				h4.601v2.008h-4.601v5.231H-45.496z"/>
			<path fill="#FFFFFF" d="M-23.123,46.151v2.029h-15.968v-2.029h7.127v-6.202h-4.759v-1.443c-1.308,3.473-3.112,6.63-5.729,8.998
				c-0.338-0.474-0.97-1.24-1.398-1.669c3.271-2.864,5.188-7.262,6.383-11.84h-5.48v-2.007h5.932
				c0.293-1.331,0.519-2.639,0.722-3.902l2.188,0.271c-0.203,1.195-0.451,2.413-0.699,3.631h11.299v2.007h-11.795
				c-0.36,1.331-0.722,2.661-1.195,3.946h12.472v2.008h-5.796v6.202H-23.123z"/>
		</g>
		<g>
			<path fill="#FFFFFF" d="M224.266,20.959c0.857-0.925,1.309-2.525,1.512-4.014l1.443,0.383c-0.248,1.646-0.632,3.36-1.579,4.375
				L224.266,20.959z M224.672,14.396c1.15-0.045,2.57-0.09,4.127-0.158v-1.466h-3.608v-1.623h3.608V9.863h-3.518V1.744h9.065v8.119
				h-3.677v1.286h3.744v1.623h-3.744v1.376c1.354-0.067,2.752-0.136,4.128-0.203l-0.067,1.669c-3.586,0.248-7.33,0.429-9.969,0.587
				L224.672,14.396z M226.859,8.397h2.188V3.211h-2.188V8.397z M227.986,4c0.361,1.037,0.678,2.436,0.723,3.293l-1.016,0.315
				c-0.045-0.902-0.293-2.301-0.654-3.36L227.986,4z M229.002,16.877c0.338,1.218,0.563,2.819,0.563,3.879l-1.397,0.181
				c0-1.06-0.203-2.661-0.475-3.924L229.002,16.877z M231.145,16.674c0.496,1.128,0.947,2.616,1.105,3.609l-1.354,0.315
				c-0.113-0.992-0.564-2.504-1.037-3.676L231.145,16.674z M232.7,3.211h-2.3v5.187h2.3V3.211z M230.58,7.383
				c0.339-0.925,0.744-2.458,0.925-3.45l1.15,0.428c-0.429,1.128-0.856,2.504-1.24,3.338L230.58,7.383z M233.287,16.178
				c0.789,1.038,1.556,2.459,1.871,3.406l-1.375,0.586c-0.293-0.97-1.037-2.436-1.76-3.496L233.287,16.178z M240.571,7.721v3.856
				h3.743v10.014h-1.984v-0.88h-5.006v0.97h-1.918V11.577h3.135V1.022h2.03v4.759h4.601v1.939H240.571z M242.33,13.494h-5.006v5.3
				h5.006V13.494z"/>
			<path fill="#FFFFFF" d="M258.388,17.103h9.382v1.421h-9.382v1.263c0,1.016-0.248,1.421-1.015,1.691
				c-0.789,0.249-1.939,0.249-3.721,0.249c-0.113-0.497-0.43-1.15-0.678-1.602c1.219,0.045,2.526,0.045,2.865,0.022
				c0.36-0.022,0.473-0.113,0.473-0.406v-1.218h-9.359v-1.421h9.359v-0.947h-7.42v-1.353h7.42v-0.947
				c-2.66,0.09-5.412,0.09-7.938,0.045c0-0.338-0.181-0.902-0.316-1.24c5.706,0.09,12.787-0.113,16.396-0.654l1.353,1.105
				c-2.03,0.293-4.646,0.519-7.42,0.653v1.038h6.991v1.353h-6.991V17.103z M251.486,9.457h-4.375V8.353h4.375V7.698h-3.27V3.864
				h3.27V3.211h-3.924v-1.15h3.924V1h1.646v1.061h4.105v1.15h-4.105v0.653h3.451v1.331c1.826-0.654,2.164-1.398,2.164-2.256V1.677
				h6.021v2.12c0,0.474,0.046,0.632,0.361,0.632h1.264c0.293,0,0.834-0.022,1.127-0.091c0.022,0.451,0.068,1.083,0.113,1.534
				c-0.271,0.112-0.768,0.112-1.195,0.112h-1.533c-1.602,0-1.94-0.632-1.94-2.21V3.143h-2.48c-0.022,1.331-0.632,2.661-3.09,3.496
				c-0.157-0.226-0.496-0.609-0.812-0.925v1.984h-3.451v0.654h4.24v1.104h-4.24v1.376h1.939V9.706h1.534v2.277h-8.412V9.706h1.488
				v1.127h1.804V9.457z M249.66,5.376h1.826V4.699h-1.826V5.376z M251.486,6.864V6.188h-1.826v0.677H251.486z M253.133,4.699v0.677
				h1.963V4.699H253.133z M255.096,6.188h-1.963v0.677h1.963V6.188z M266.123,6.751c-0.563,1.398-1.42,2.458-2.548,3.271
				c1.285,0.474,2.751,0.789,4.33,0.97c-0.361,0.36-0.835,1.015-1.06,1.488c-1.827-0.271-3.496-0.789-4.917-1.488
				c-1.308,0.586-2.819,0.992-4.421,1.263c-0.157-0.406-0.473-1.037-0.744-1.376c1.286-0.157,2.526-0.428,3.609-0.812
				c-0.723-0.563-1.331-1.15-1.827-1.85l1.083-0.36h-1.377V6.48h6.541l0.338-0.067L266.123,6.751z M260.215,7.856
				c0.451,0.541,1.082,1.037,1.805,1.466c0.676-0.406,1.285-0.902,1.736-1.466H260.215z"/>
			<path fill="#FFFFFF" d="M270.544,8.668h0.203c-0.181-0.474-0.654-1.15-1.015-1.488c3.879-0.925,4.465-2.571,4.623-6.157h1.826
				c-0.067,1.512-0.203,2.729-0.541,3.767c1.15,0.677,2.594,1.624,3.383,2.232L277.67,8.33c-0.653-0.519-1.804-1.331-2.841-2.03
				c-0.79,1.061-2.007,1.805-3.992,2.368h9.518c-0.181-0.474-0.699-1.15-1.038-1.511c3.789-0.992,4.375-2.751,4.578-6.157h1.895
				c-0.09,1.489-0.248,2.707-0.608,3.767c1.443,0.834,3.337,1.939,4.33,2.661l-1.15,1.24h0.992v3.992h-2.097v-2.232h-14.705v2.232
				h-2.007V8.668z M271.648,5.24c-0.27-0.722-0.789-1.895-1.262-2.751l1.443-0.474c0.473,0.812,1.059,1.962,1.33,2.639L271.648,5.24
				z M288.203,21.861c-0.271-0.338-0.632-0.722-1.016-1.15c-5.932,0.203-12.178,0.406-16.26,0.474l-0.181-1.895
				c2.142-0.022,4.962-0.067,8.097-0.112v-1.917h-5.818v-5.119h5.818v-1.624h2.052v1.624h6.044v5.119h-0.857
				c1.467,1.105,3.09,2.616,3.947,3.631L288.203,21.861z M278.844,15.704v-2.007h-3.857v2.007H278.844z M279.678,2.714
				c-0.677,0.925-1.443,1.85-2.008,2.437l-1.24-0.496c0.496-0.722,1.195-1.805,1.557-2.526L279.678,2.714z M281.076,5.218
				c-0.226-0.722-0.722-1.962-1.15-2.842l1.488-0.451c0.429,0.88,0.97,2.053,1.218,2.752L281.076,5.218z M287.977,8.668
				c-0.879-0.654-2.346-1.601-3.631-2.391c-0.767,1.038-1.984,1.827-3.834,2.391H287.977z M280.896,13.697v2.007h3.97v-2.007
				H280.896z M280.896,19.133l4.533-0.113c-0.474-0.405-0.993-0.834-1.443-1.195l1.24-0.563h-4.33V19.133z M289.713,2.714
				c-0.744,0.925-1.578,1.872-2.209,2.504l-1.286-0.563c0.542-0.722,1.286-1.827,1.669-2.571L289.713,2.714z"/>
			<path fill="#FFFFFF" d="M307.847,14.284c1.376,1.06,3.247,1.917,5.119,2.39c-0.429,0.339-0.992,1.083-1.24,1.557
				c-0.88-0.271-1.759-0.632-2.571-1.105v2.233c0,0.879-0.158,1.308-0.767,1.578s-1.511,0.248-2.819,0.248
				c-0.09-0.496-0.315-1.104-0.541-1.578c0.813,0.022,1.557,0.022,1.781,0.022c0.248,0,0.339-0.068,0.339-0.293v-1.827h-3.767v4.172
				h-2.029v-4.172h-3.383v3.721h-2.008V16.99c-0.834,0.496-1.736,0.925-2.751,1.33c-0.226-0.474-0.79-1.24-1.173-1.578
				c1.895-0.654,3.428-1.512,4.623-2.458h-4.217v-1.646h5.932c0.293-0.339,0.541-0.677,0.744-1.038h-4.15V5.285h15.11V11.6h-8.66
				c-0.203,0.361-0.429,0.699-0.653,1.038h11.682v1.646H307.847z M297.697,4.067h-5.051V2.421h5.051V1h2.053v1.421h2.413v1.646
				h-2.413V4.97h-2.053V4.067z M296.977,7.812h11.006V6.57h-11.006V7.812z M296.977,10.314h11.006V9.029h-11.006V10.314z
				 M307.26,15.862c-0.631-0.496-1.195-1.015-1.668-1.578h-6.18c-0.52,0.563-1.105,1.082-1.76,1.578h3.699V14.6h2.029v1.263H307.26z
				 M305.072,4.067h-2.21V2.421h2.21V1h2.053v1.421h5.232v1.646h-5.232V4.97h-2.053V4.067z"/>
			<path fill="#FFFFFF" d="M323.272,7.067c-0.541,1.397-1.149,2.729-1.894,4.014h11.907v10.555h-2.21v-1.15h-9.247v1.264h-2.097
				v-8.164c-1.083,1.443-2.369,2.729-3.879,3.788c-0.294-0.496-0.947-1.263-1.377-1.669c3.045-2.074,5.12-5.209,6.518-8.637h-5.773
				V5.015h6.519c0.429-1.331,0.767-2.684,1.037-3.992l2.188,0.384c-0.271,1.218-0.586,2.413-0.992,3.608h10.894v2.053H323.272z
				 M321.829,13.111v5.345h9.247v-5.345H321.829z"/>
			<path fill="#FFFFFF" d="M343.345,1.632c-0.496,1.488-1.083,2.999-1.759,4.442v15.606h-1.984V9.729
				c-0.587,0.924-1.174,1.759-1.805,2.48c-0.181-0.519-0.722-1.691-1.037-2.21c1.871-2.188,3.607-5.525,4.646-8.908L343.345,1.632z
				 M346.637,17.419c-0.744,1.421-1.939,3.157-2.954,4.172c-0.36-0.338-1.06-0.88-1.511-1.173c1.061-0.947,2.165-2.639,2.706-3.901
				L346.637,17.419z M350.155,16.224h-6.473V2.331h6.473V16.224z M348.307,4.022h-2.865v2.413h2.865V4.022z M348.307,8.06h-2.865
				v2.413h2.865V8.06z M348.307,12.073h-2.865v2.459h2.865V12.073z M348.938,16.517c0.768,1.15,1.624,2.684,1.984,3.653l-1.602,0.97
				c-0.314-0.992-1.172-2.616-1.894-3.812L348.938,16.517z M353.516,16.606h-1.85V3.368h1.85V16.606z M357.282,1.316v17.951
				c0,1.128-0.248,1.714-0.88,2.03c-0.631,0.338-1.669,0.405-3.27,0.405c-0.068-0.541-0.316-1.42-0.609-2.007
				c1.105,0.045,2.098,0.045,2.413,0.045c0.315-0.022,0.429-0.112,0.429-0.451V1.316H357.282z"/>
			<path fill="#FFFFFF" d="M270.904,33.792c-0.338-0.383-0.947-0.992-1.353-1.308c1.397-1.105,2.684-2.842,3.405-4.623l1.872,0.563
				c-0.136,0.315-0.271,0.586-0.429,0.902h5.3v1.623h-3.54c0.518,0.542,1.082,1.195,1.353,1.646l-1.104,0.857h3.292v1.24h-2.999
				v0.97h2.706v2.12c1.149-1.24,2.12-3,2.684-4.781l1.939,0.496c-0.157,0.451-0.339,0.902-0.496,1.354h6.427v1.781h-7.329
				c-0.586,1.082-1.24,2.052-1.962,2.819c-0.271-0.316-0.813-0.925-1.263-1.286v0.902h-2.706v1.105h3.383v1.285h-9.18V33.792z
				 M287.797,46.579h2.277v1.602h-20.32v-1.602h2.526v-4.217h15.517V46.579z M273.453,30.95c-0.631,0.947-1.309,1.805-2.008,2.504
				h4.512c-0.384-0.564-1.016-1.309-1.512-1.872l0.902-0.632H273.453z M275.01,34.694h-2.211v0.97h2.211V34.694z M277.648,36.77
				h-4.85v1.195h4.85V36.77z M275.01,39.069h-2.211v1.105h2.211V39.069z M274.287,46.579h2.481v-2.661h-2.481V46.579z
				 M278.708,43.918v2.661h2.503v-2.661H278.708z M290.143,29.35v1.623h-4.33c0.608,0.632,1.308,1.398,1.623,1.917l-1.511,1.061
				c-0.384-0.632-1.218-1.646-1.917-2.368l0.97-0.609h-2.052c-0.632,1.128-1.354,2.143-2.143,2.91
				c-0.339-0.316-1.128-0.971-1.579-1.264c1.308-1.127,2.391-2.887,2.978-4.735l1.916,0.474c-0.112,0.338-0.248,0.653-0.36,0.992
				H290.143z M281.888,40.783v-1.736h7.308v1.736H281.888z M283.174,43.918v2.661h2.525v-2.661H283.174z"/>
			<path fill="#FFFFFF" d="M312.604,39.994h-8.953v6.157c0,1.285-0.315,1.917-1.263,2.232c-0.947,0.338-2.436,0.383-4.533,0.383
				c-0.136-0.608-0.541-1.578-0.902-2.165c1.714,0.068,3.405,0.068,3.901,0.046c0.474-0.022,0.609-0.136,0.609-0.542v-6.111h-9.089
				v-2.098h9.089v-3.18c1.669-0.789,3.631-2.007,5.097-3.18h-11.953v-2.053h14.254l0.473-0.112l1.579,1.218
				c-1.917,1.85-4.69,3.879-7.262,5.232v2.074h8.953V39.994z"/>
			<path fill="#FFFFFF" d="M321.58,33.792c-0.518,0.947-1.149,1.895-1.826,2.819v12.155h-2.143v-9.584
				c-0.676,0.722-1.398,1.375-2.074,1.939c-0.181-0.474-0.699-1.624-1.061-2.12c1.917-1.443,3.992-3.699,5.255-5.954L321.58,33.792z
				 M321.22,28.898c-1.331,1.984-3.405,4.127-5.367,5.48c-0.226-0.496-0.767-1.331-1.083-1.737c1.669-1.127,3.519-2.977,4.443-4.51
				L321.22,28.898z M335.293,46.083v2.008h-14.209v-2.008h6.135v-5.231h-4.713v-2.008h4.713v-4.556h-5.48v-1.984h6.066
				c-0.293-0.97-1.037-2.503-1.736-3.653l1.917-0.677c0.722,1.128,1.534,2.616,1.872,3.586l-1.984,0.744h6.833v1.984h-5.3v4.556
				h4.602v2.008h-4.602v5.231H335.293z"/>
			<path fill="#FFFFFF" d="M345.825,34.131c-0.541,1.397-1.149,2.729-1.894,4.014h11.907v10.555h-2.21v-1.15h-9.247v1.264h-2.097
				v-8.164c-1.083,1.443-2.369,2.729-3.879,3.788c-0.294-0.496-0.947-1.263-1.377-1.669c3.045-2.074,5.12-5.209,6.518-8.637h-5.773
				v-2.053h6.519c0.429-1.33,0.767-2.684,1.037-3.992l2.188,0.384c-0.271,1.218-0.586,2.413-0.992,3.608h10.894v2.053H345.825z
				 M344.382,40.175v5.345h9.247v-5.345H344.382z"/>
		</g>
	</g>
</g>
</svg>
