<?xml version="1.0" encoding="utf-8"?>
<!-- Generator: Adobe Illustrator 24.3.0, SVG Export Plug-In . SVG Version: 6.00 Build 0)  -->
<svg version="1.1" xmlns="http://www.w3.org/2000/svg" xmlns:xlink="http://www.w3.org/1999/xlink" x="0px" y="0px"
	 viewBox="0 0 100 100" style="enable-background:new 0 0 100 100;" xml:space="preserve">
<style type="text/css">
	.st0{fill:#D1D1D1;}
	.st1{fill:#FFFFFF;}
	.st2{fill:none;stroke:#FFFFFF;stroke-width:6.2365;stroke-linecap:round;stroke-miterlimit:10;}
	.st3{display:none;}
	.st4{display:inline;}
	.st5{fill:#F9C41C;}
	.st6{fill:#FFD255;}
</style>
<g id="圖層_1">
	<g>
		<g>
			<path class="st0" d="M70.2,78.6c7.5-3.9,13.9-9,18.6-16c4.9-7.3,6.2-15.2,4.4-23.8c-1.8-8.4-6.4-14.8-13.6-19.4
				c-3.8-2.5-8.1-3.3-12.6-2.3c-3,0.7-5.8,2.1-8.3,3.9c-4.1,3-7.8,6.5-10.7,10.7c-2.5,3.5-6.1,5.3-10.4,5.6
				c-1.7,0.2-3.5,0.2-5.2,0.7c-3.1,0.8-5.7,2.6-7.9,4.9c-3.8,4-6,8.6-6,14.2c0,4,1.3,7.7,3.4,11.1c2.7,4.5,6.3,8.2,10.8,10.8
				c4.1,2.4,8.6,3.7,13.4,4.1c6.9,0.6,13.6-0.2,20.1-2.7c0.5-0.2,1.1-0.4,1.6-0.6C68.6,79.4,69.4,79,70.2,78.6z"/>
		</g>
		<path class="st1" d="M14.6,41.4c0-4.8,3.8-8.6,8.6-8.6c-4.8,0-8.6-3.8-8.6-8.6c0,4.8-3.8,8.6-8.6,8.6
			C10.9,32.8,14.6,36.5,14.6,41.4z"/>
		<path class="st2" d="M56,35.9c0,0-3.4,8.4-15.7,10"/>
	</g>
</g>
<g id="圖層_2" class="st3">
	<g class="st4">
		<g>
			<path class="st5" d="M70.1,78.6c7.5-3.9,13.9-9,18.6-16c4.9-7.3,6.2-15.2,4.4-23.8c-1.8-8.4-6.4-14.8-13.6-19.4
				c-3.8-2.5-8.1-3.3-12.6-2.3c-3.1,0.7-5.8,2.1-8.3,3.9c-4.1,3-7.8,6.5-10.7,10.7c-2.5,3.5-6.1,5.3-10.4,5.6
				c-1.7,0.2-3.5,0.2-5.2,0.7c-3.1,0.8-5.7,2.6-7.9,4.9c-3.8,4-6,8.6-6,14.2c0,4,1.3,7.7,3.4,11.1c2.7,4.5,6.3,8.2,10.8,10.8
				c4.1,2.4,8.6,3.7,13.4,4.1c6.9,0.6,13.6-0.2,20.1-2.7c0.5-0.2,1.1-0.4,1.6-0.6C68.5,79.4,69.3,79,70.1,78.6z"/>
		</g>
		<path class="st6" d="M14.5,48.9c0-9,7.1-16.1,16.1-16.1c-9,0-16.1-7.1-16.1-16.1c0,9-7.1,16.1-16.1,16.1
			C7.5,32.8,14.5,39.8,14.5,48.9z"/>
		<path class="st2" d="M55.9,35.9c0,0-3.4,8.4-15.7,10"/>
	</g>
</g>
</svg>
