<?xml version="1.0" encoding="utf-8"?>
<!-- Generator: Adobe Illustrator 24.3.0, SVG Export Plug-In . SVG Version: 6.00 Build 0)  -->
<svg version="1.1" id="Layer_1" xmlns="http://www.w3.org/2000/svg" xmlns:xlink="http://www.w3.org/1999/xlink" x="0px" y="0px"
	 viewBox="0 0 177 224.6" style="enable-background:new 0 0 177 224.6;" xml:space="preserve">
<style type="text/css">
	.st0{fill:#3F3F3F;}
	.st1{fill:#ABADC4;stroke:#FFFFFF;stroke-miterlimit:10;}
	.st2{fill:#DDDDDD;stroke:#FFFFFF;stroke-miterlimit:10;}
	.st3{clip-path:url(#SVGID_2_);}
	.st4{fill:none;stroke:#FFFFFF;stroke-linejoin:round;stroke-miterlimit:10;}
	.st5{fill:#FFFFFF;stroke:#000000;stroke-width:2;stroke-linejoin:round;stroke-miterlimit:10;}
</style>
<g>
	<path class="st0" d="M148.9,195.4H28.2c-2.2,0-4-1.8-4-4V9c0-2.2,1.8-4,4-4h120.7c2.2,0,4,1.8,4,4v182.4
		C152.9,193.6,151.1,195.4,148.9,195.4z"/>
	<path class="st1" d="M32.5,9.7c-2.2,0-4,1.8-4,4v172.6c0,2.2,1.8,4,4,4h56V9.7H32.5z"/>
	<path class="st2" d="M144.5,9.7h-56v180.6h56c2.2,0,4-1.8,4-4V13.7C148.5,11.5,146.7,9.7,144.5,9.7z"/>
	<g>
		<defs>
			<path id="SVGID_1_" d="M144.5,9.7h-56v180.6h56c2.2,0,4-1.8,4-4V13.7C148.5,11.5,146.7,9.7,144.5,9.7z"/>
		</defs>
		<clipPath id="SVGID_2_">
			<use xlink:href="#SVGID_1_"  style="overflow:visible;"/>
		</clipPath>
		<g class="st3">
			<line class="st4" x1="169.8" y1="-66.4" x2="64.5" y2="39"/>
			<line class="st4" x1="169.8" y1="-50.1" x2="64.5" y2="55.2"/>
			<line class="st4" x1="169.8" y1="-33.8" x2="64.5" y2="71.5"/>
			<line class="st4" x1="169.8" y1="-17.5" x2="64.5" y2="87.8"/>
			<line class="st4" x1="169.8" y1="-1.3" x2="64.5" y2="104.1"/>
			<line class="st4" x1="169.8" y1="15" x2="64.5" y2="120.4"/>
			<line class="st4" x1="169.8" y1="31.3" x2="64.5" y2="136.7"/>
			<line class="st4" x1="169.8" y1="47.6" x2="64.5" y2="152.9"/>
			<line class="st4" x1="169.8" y1="63.9" x2="64.5" y2="169.2"/>
			<line class="st4" x1="169.8" y1="80.2" x2="64.5" y2="185.5"/>
			<line class="st4" x1="169.8" y1="96.4" x2="64.5" y2="201.8"/>
			<line class="st4" x1="169.8" y1="112.7" x2="64.5" y2="218.1"/>
			<line class="st4" x1="169.8" y1="129" x2="64.5" y2="234.4"/>
			<line class="st4" x1="169.8" y1="145.3" x2="64.5" y2="250.6"/>
			<line class="st4" x1="169.8" y1="161.6" x2="64.5" y2="266.9"/>
		</g>
	</g>
</g>
<path class="st5" d="M130.6,215.8l-34.5-19.4c0,0-3.3-3.3-0.7-6.8c2.6-3.5,6.9-1.9,8.2-1.3c1.3,0.5,16.6,6.6,16.6,6.6L110,157.4
	c0,0-0.6-5.3,4.7-6.8c5.3-1.4,7.4,3.9,7.4,3.9l7,26l-3.5-12.8c0,0-0.9-3.7,3.2-4.8s5.5,2.4,5.5,2.4l3.4,12.7l-2.3-8.7
	c0,0,1.1-3.3,4.3-4.2c3.3-0.9,5.6,2.3,5.6,2.3l2.1,7.9l-1-3.9c0-2.2,1.6-3.9,4.6-4.7c3.2-0.9,5,1.4,6.1,3.3c0.7,1.3,1,2.4,1,2.4
	s5.3,21.2,5.3,22.7c0,1.6-2.5,13.5-8.3,15.9C149.1,213.9,141.6,218.9,130.6,215.8z"/>
</svg>
